<svg xmlns="http://www.w3.org/2000/svg" width="80" height="93" viewBox="0 0 80 93">
  <g fill="#000000" fill-rule="evenodd" transform="translate(1 1)">
    <path stroke="#000000" stroke-width="2" d="M38.824,90 L38.679,89.916 L0.25,67.729 L0.25,23.188 L0.395,23.104 L38.824,0.917 L77.398,23.188 L77.398,67.73 L77.253,67.814 L38.824,90 L38.824,90 Z M0.831,67.394 L38.824,89.329 L76.817,67.394 L76.817,23.524 L38.824,1.588 L0.831,23.523 L0.831,67.394 L0.831,67.394 Z"/>
    <path stroke="#000000" stroke-width="2" d="M38.669 89.955C38.59 89.955 38.515 89.923 38.463 89.871 38.408 89.816 38.379 89.74 38.379 89.665 38.379 89.59 38.408 89.514 38.463 89.459 38.57 89.351 38.765 89.351 38.873 89.459 38.928 89.514 38.96 89.59 38.96 89.665 38.96 89.74 38.928 89.816 38.873 89.871 38.82 89.923 38.745 89.955 38.669 89.955L38.669 89.955zM37.828 88.795C37.75 88.656 37.796 88.478 37.936 88.397L37.936 88.397C38.076 88.319 38.253 88.365 38.334 88.505L38.334 88.505C38.413 88.645 38.366 88.822 38.226 88.903L38.226 88.903C38.179 88.929 38.13 88.941 38.081 88.941L38.081 88.941C37.98 88.94 37.884 88.888 37.828 88.795L37.828 88.795zM37.244 87.78C37.162 87.641 37.209 87.463 37.349 87.385L37.349 87.385C37.488 87.303 37.666 87.35 37.747 87.49L37.747 87.49C37.828 87.63 37.779 87.807 37.639 87.888L37.639 87.888C37.595 87.914 37.543 87.926 37.494 87.926L37.494 87.926C37.395 87.925 37.296 87.873 37.244 87.78L37.244 87.78zM36.657 86.765C36.578 86.625 36.625 86.448 36.764 86.367L36.764 86.367C36.901 86.288 37.078 86.335 37.16 86.475L37.16 86.475C37.242 86.614 37.192 86.792 37.055 86.873L37.055 86.873C37.009 86.899 36.959 86.911 36.91 86.911L36.91 86.911C36.808 86.91 36.709 86.858 36.657 86.765L36.657 86.765zM36.069 85.75C35.991 85.61 36.037 85.433 36.177 85.354L36.177 85.354C36.316 85.272 36.494 85.322 36.575 85.459L36.575 85.459C36.653 85.598 36.607 85.776 36.467 85.857L36.467 85.857C36.42 85.883 36.371 85.895 36.322 85.895L36.322 85.895C36.22 85.895 36.124 85.843 36.069 85.75L36.069 85.75zM35.484 84.738C35.402 84.599 35.449 84.418 35.589 84.34L35.589 84.34C35.729 84.259 35.906 84.305 35.987 84.445L35.987 84.445C36.069 84.585 36.019 84.762 35.879 84.843L35.879 84.843C35.836 84.869 35.783 84.881 35.734 84.881L35.734 84.881C35.636 84.88 35.537 84.831 35.484 84.738L35.484 84.738zM34.897 83.72C34.816 83.583 34.865 83.406 35.005 83.325L35.005 83.325C35.142 83.243 35.322 83.293 35.401 83.43L35.401 83.43C35.483 83.57 35.433 83.747 35.296 83.828L35.296 83.828C35.249 83.854 35.2 83.869 35.151 83.869L35.151 83.869C35.048 83.868 34.949 83.816 34.897 83.72L34.897 83.72zM34.309 82.708C34.23 82.568 34.277 82.391 34.417 82.31L34.417 82.31C34.556 82.231 34.734 82.278 34.815 82.418L34.815 82.418C34.893 82.557 34.847 82.735 34.707 82.813L34.707 82.813C34.66 82.839 34.611 82.854 34.562 82.854L34.562 82.854C34.461 82.853 34.365 82.801 34.309 82.708L34.309 82.708zM33.725 81.693C33.643 81.553 33.69 81.376 33.83 81.295L33.83 81.295C33.97 81.213 34.147 81.263 34.228 81.403L34.228 81.403C34.31 81.542 34.26 81.72 34.12 81.799L34.12 81.799C34.077 81.825 34.024 81.84 33.975 81.84L33.975 81.84C33.876 81.838 33.777 81.786 33.725 81.693L33.725 81.693zM33.137 80.678C33.055 80.539 33.105 80.361 33.245 80.28L33.245 80.28C33.385 80.202 33.562 80.248 33.641 80.388L33.641 80.388C33.722 80.528 33.673 80.705 33.536 80.784L33.536 80.784C33.489 80.813 33.44 80.825 33.391 80.825L33.391 80.825C33.289 80.823 33.193 80.771 33.137 80.678L33.137 80.678zM32.55 79.663C32.471 79.524 32.518 79.346 32.658 79.265L32.658 79.265C32.797 79.186 32.975 79.233 33.053 79.372L33.053 79.372C33.135 79.512 33.088 79.689 32.948 79.77L32.948 79.77C32.901 79.796 32.852 79.808 32.803 79.808L32.803 79.808C32.704 79.808 32.605 79.756 32.55 79.663L32.55 79.663zM31.965 78.648C31.884 78.508 31.93 78.331 32.07 78.25L32.07 78.25C32.21 78.171 32.387 78.218 32.468 78.358L32.468 78.358C32.55 78.497 32.5 78.675 32.36 78.756L32.36 78.756C32.316 78.782 32.264 78.794 32.215 78.794L32.215 78.794C32.117 78.793 32.018 78.741 31.965 78.648L31.965 78.648zM31.378 77.633C31.299 77.493 31.346 77.316 31.486 77.237L31.486 77.237C31.625 77.156 31.803 77.202 31.881 77.342L31.881 77.342C31.963 77.481 31.916 77.659 31.776 77.74L31.776 77.74C31.729 77.766 31.68 77.778 31.631 77.778L31.631 77.778C31.529 77.778 31.433 77.726 31.378 77.633L31.378 77.633zM30.793 76.618C30.711 76.481 30.758 76.301 30.898 76.223L30.898 76.223C31.038 76.141 31.215 76.188 31.296 76.328L31.296 76.328C31.375 76.468 31.328 76.645 31.188 76.726L31.188 76.726C31.142 76.752 31.092 76.764 31.043 76.764L31.043 76.764C30.945 76.763 30.846 76.711 30.793 76.618L30.793 76.618zM30.206 75.603C30.125 75.466 30.171 75.286 30.311 75.208L30.311 75.208C30.45 75.126 30.628 75.176 30.709 75.313L30.709 75.313C30.79 75.453 30.741 75.63 30.604 75.711L30.604 75.711C30.557 75.737 30.508 75.749 30.459 75.749L30.459 75.749C30.357 75.748 30.258 75.699 30.206 75.603L30.206 75.603zM29.618 74.588C29.539 74.451 29.586 74.274 29.726 74.192L29.726 74.192C29.865 74.11 30.043 74.16 30.121 74.3L30.121 74.3C30.203 74.437 30.156 74.617 30.016 74.696L30.016 74.696C29.969 74.722 29.92 74.737 29.871 74.737L29.871 74.737C29.77 74.736 29.674 74.684 29.618 74.588L29.618 74.588zM29.034 73.576C28.952 73.437 28.999 73.259 29.139 73.178L29.139 73.178C29.279 73.097 29.456 73.146 29.537 73.286L29.537 73.286C29.616 73.426 29.569 73.603 29.429 73.682L29.429 73.682C29.382 73.708 29.333 73.723 29.284 73.723L29.284 73.723C29.185 73.721 29.086 73.669 29.034 73.576L29.034 73.576zM28.446 72.561C28.364 72.422 28.414 72.244 28.551 72.163L28.551 72.163C28.69 72.085 28.868 72.131 28.949 72.271L28.949 72.271C29.03 72.408 28.981 72.588 28.844 72.667L28.844 72.667C28.797 72.693 28.748 72.708 28.699 72.708L28.699 72.708C28.598 72.706 28.499 72.654 28.446 72.561L28.446 72.561zM27.859 71.546C27.78 71.406 27.827 71.229 27.966 71.148L27.966 71.148C28.106 71.069 28.283 71.116 28.362 71.256L28.362 71.256C28.444 71.395 28.397 71.573 28.257 71.651L28.257 71.651C28.211 71.68 28.161 71.692 28.112 71.692L28.112 71.692C28.01 71.691 27.914 71.639 27.859 71.546L27.859 71.546zM27.274 70.531C27.193 70.391 27.239 70.214 27.379 70.133L27.379 70.133C27.518 70.054 27.696 70.101 27.777 70.241L27.777 70.241C27.855 70.38 27.809 70.558 27.669 70.636L27.669 70.636C27.622 70.665 27.573 70.677 27.524 70.677L27.524 70.677C27.426 70.676 27.327 70.624 27.274 70.531L27.274 70.531zM26.687 69.516C26.605 69.377 26.655 69.199 26.792 69.118L26.792 69.118C26.932 69.04 27.109 69.086 27.19 69.226L27.19 69.226C27.272 69.366 27.222 69.543 27.085 69.624L27.085 69.624C27.038 69.65 26.989 69.662 26.94 69.662L26.94 69.662C26.838 69.661 26.739 69.609 26.687 69.516L26.687 69.516zM26.099 68.501C26.021 68.362 26.067 68.184 26.207 68.106L26.207 68.106C26.347 68.024 26.524 68.071 26.603 68.211L26.603 68.211C26.685 68.351 26.638 68.528 26.498 68.609L26.498 68.609C26.451 68.635 26.402 68.647 26.353 68.647L26.353 68.647C26.251 68.646 26.155 68.594 26.099 68.501L26.099 68.501zM25.515 67.486C25.433 67.346 25.48 67.169 25.62 67.09L25.62 67.09C25.759 67.008 25.937 67.055 26.018 67.195L26.018 67.195C26.099 67.334 26.05 67.512 25.91 67.593L25.91 67.593C25.866 67.619 25.814 67.631 25.765 67.631L25.765 67.631C25.666 67.631 25.567 67.579 25.515 67.486L25.515 67.486zM24.927 66.471C24.845 66.334 24.895 66.157 25.035 66.075L25.035 66.075C25.172 65.993 25.349 66.043 25.43 66.18L25.43 66.18C25.512 66.319 25.462 66.497 25.325 66.578L25.325 66.578C25.278 66.604 25.229 66.619 25.18 66.619L25.18 66.619C25.079 66.619 24.98 66.567 24.927 66.471L24.927 66.471zM24.34 65.459C24.262 65.32 24.308 65.142 24.448 65.061L24.448 65.061C24.588 64.98 24.765 65.029 24.846 65.166L24.846 65.166C24.924 65.306 24.878 65.483 24.738 65.564L24.738 65.564C24.691 65.59 24.642 65.605 24.593 65.605L24.593 65.605C24.491 65.604 24.395 65.552 24.34 65.459L24.34 65.459zM23.755 64.444C23.673 64.304 23.72 64.127 23.86 64.046L23.86 64.046C23.999 63.964 24.177 64.014 24.258 64.154L24.258 64.154C24.34 64.291 24.29 64.471 24.151 64.549L24.151 64.549C24.107 64.575 24.055 64.59 24.006 64.59L24.006 64.59C23.906 64.589 23.808 64.537 23.755 64.444L23.755 64.444zM23.168 63.429C23.087 63.289 23.136 63.112 23.276 63.031L23.276 63.031C23.416 62.952 23.59 62.999 23.672 63.139L23.672 63.139C23.754 63.278 23.704 63.456 23.567 63.534L23.567 63.534C23.52 63.56 23.471 63.575 23.422 63.575L23.422 63.575C23.319 63.574 23.223 63.522 23.168 63.429L23.168 63.429zM22.58 62.414C22.501 62.274 22.548 62.097 22.688 62.016L22.688 62.016C22.827 61.938 23.005 61.984 23.083 62.124L23.083 62.124C23.165 62.264 23.118 62.441 22.978 62.52L22.978 62.52C22.931 62.546 22.882 62.561 22.833 62.561L22.833 62.561C22.731 62.559 22.636 62.507 22.58 62.414L22.58 62.414zM21.996 61.399C21.914 61.259 21.961 61.082 22.1 61L22.1 61C22.24 60.922 22.417 60.968 22.498 61.108L22.498 61.108C22.58 61.248 22.53 61.425 22.39 61.506L22.39 61.506C22.347 61.532 22.294 61.544 22.245 61.544L22.245 61.544C22.147 61.544 22.048 61.492 21.996 61.399L21.996 61.399zM21.408 60.384C21.327 60.245 21.376 60.067 21.516 59.986L21.516 59.986C21.653 59.907 21.833 59.954 21.912 60.093L21.912 60.093C21.993 60.233 21.944 60.41 21.807 60.491L21.807 60.491C21.76 60.517 21.711 60.529 21.662 60.529L21.662 60.529C21.56 60.529 21.464 60.477 21.408 60.384L21.408 60.384zM20.821 59.369C20.742 59.229 20.789 59.052 20.929 58.973L20.929 58.973C21.068 58.891 21.246 58.938 21.324 59.078L21.324 59.078C21.406 59.217 21.359 59.395 21.219 59.476L21.219 59.476C21.172 59.502 21.123 59.514 21.074 59.514L21.074 59.514C20.972 59.514 20.876 59.462 20.821 59.369L20.821 59.369zM20.236 58.354C20.154 58.214 20.201 58.037 20.341 57.958L20.341 57.958C20.481 57.877 20.658 57.923 20.739 58.063L20.739 58.063C20.821 58.202 20.771 58.38 20.634 58.461L20.634 58.461C20.588 58.487 20.535 58.499 20.486 58.499L20.486 58.499C20.388 58.499 20.289 58.447 20.236 58.354L20.236 58.354zM19.649 57.339C19.571 57.202 19.617 57.022 19.757 56.944L19.757 56.944C19.896 56.862 20.074 56.909 20.153 57.049L20.153 57.049C20.234 57.189 20.188 57.366 20.048 57.447L20.048 57.447C20.001 57.473 19.952 57.485 19.903 57.485L19.903 57.485C19.8 57.484 19.704 57.435 19.649 57.339L19.649 57.339zM19.064 56.327C18.982 56.187 19.029 56.01 19.169 55.929L19.169 55.929C19.309 55.847 19.486 55.897 19.567 56.034L19.567 56.034C19.646 56.174 19.599 56.351 19.459 56.432L19.459 56.432C19.413 56.458 19.363 56.473 19.314 56.473L19.314 56.473C19.215 56.472 19.117 56.42 19.064 56.327L19.064 56.327zM18.477 55.312C18.396 55.172 18.442 54.995 18.582 54.914L18.582 54.914C18.721 54.832 18.899 54.882 18.98 55.022L18.98 55.022C19.062 55.159 19.012 55.339 18.875 55.418L18.875 55.418C18.828 55.444 18.779 55.459 18.73 55.459L18.73 55.459C18.628 55.457 18.529 55.405 18.477 55.312L18.477 55.312zM17.889 54.297C17.81 54.158 17.857 53.98 17.997 53.899L17.997 53.899C18.136 53.821 18.314 53.867 18.392 54.007L18.392 54.007C18.474 54.147 18.427 54.324 18.287 54.403L18.287 54.403C18.24 54.429 18.191 54.444 18.142 54.444L18.142 54.444C18.04 54.442 17.944 54.39 17.889 54.297L17.889 54.297zM17.305 53.282C17.223 53.143 17.27 52.965 17.41 52.884L17.41 52.884C17.55 52.805 17.727 52.852 17.808 52.991L17.808 52.991C17.887 53.131 17.84 53.308 17.7 53.387L17.7 53.387C17.653 53.413 17.604 53.428 17.555 53.428L17.555 53.428C17.456 53.427 17.357 53.375 17.305 53.282L17.305 53.282zM16.717 52.267C16.635 52.127 16.682 51.95 16.822 51.869L16.822 51.869C16.961 51.79 17.139 51.837 17.22 51.977L17.22 51.977C17.301 52.116 17.252 52.294 17.115 52.375L17.115 52.375C17.068 52.401 17.019 52.413 16.97 52.413L16.97 52.413C16.869 52.412 16.769 52.36 16.717 52.267L16.717 52.267zM16.13 51.252C16.051 51.112 16.098 50.935 16.238 50.856L16.238 50.856C16.377 50.775 16.555 50.821 16.633 50.961L16.633 50.961C16.715 51.1 16.668 51.278 16.528 51.359L16.528 51.359C16.481 51.385 16.432 51.397 16.383 51.397L16.383 51.397C16.281 51.397 16.185 51.345 16.13 51.252L16.13 51.252zM15.545 50.237C15.464 50.098 15.51 49.92 15.65 49.841L15.65 49.841C15.79 49.76 15.967 49.806 16.048 49.946L16.048 49.946C16.126 50.086 16.08 50.263 15.94 50.344L15.94 50.344C15.893 50.37 15.844 50.382 15.795 50.382L15.795 50.382C15.696 50.382 15.598 50.33 15.545 50.237L15.545 50.237zM14.958 49.222C14.876 49.085 14.926 48.905 15.063 48.827L15.063 48.827C15.202 48.745 15.38 48.792 15.461 48.932L15.461 48.932C15.543 49.072 15.493 49.249 15.356 49.33L15.356 49.33C15.309 49.356 15.26 49.368 15.211 49.368L15.211 49.368C15.109 49.367 15.01 49.315 14.958 49.222L14.958 49.222zM14.37 48.207C14.292 48.067 14.338 47.89 14.478 47.811L14.478 47.811C14.618 47.729 14.795 47.779 14.876 47.916L14.876 47.916C14.955 48.055 14.908 48.233 14.768 48.314L14.768 48.314C14.721 48.34 14.672 48.352 14.623 48.352L14.623 48.352C14.522 48.352 14.426 48.303 14.37 48.207L14.37 48.207zM13.786 47.195C13.704 47.056 13.751 46.878 13.891 46.797L13.891 46.797C14.03 46.715 14.208 46.765 14.289 46.905L14.289 46.905C14.37 47.042 14.321 47.222 14.181 47.301L14.181 47.301C14.137 47.327 14.085 47.342 14.036 47.342L14.036 47.342C13.937 47.34 13.838 47.288 13.786 47.195L13.786 47.195zM13.198 46.18C13.116 46.041 13.166 45.863 13.303 45.782L13.303 45.782C13.446 45.704 13.62 45.75 13.701 45.89L13.701 45.89C13.783 46.027 13.733 46.204 13.596 46.286L13.596 46.286C13.549 46.312 13.5 46.327 13.451 46.327L13.451 46.327C13.349 46.325 13.253 46.273 13.198 46.18L13.198 46.18zM12.611 45.165C12.533 45.025 12.579 44.848 12.719 44.767L12.719 44.767C12.859 44.688 13.036 44.735 13.115 44.875L13.115 44.875C13.196 45.014 13.15 45.192 13.01 45.27L13.01 45.27C12.963 45.296 12.914 45.311 12.865 45.311L12.865 45.311C12.762 45.31 12.666 45.258 12.611 45.165L12.611 45.165zM12.026 44.15C11.944 44.01 11.991 43.833 12.131 43.752L12.131 43.752C12.27 43.673 12.448 43.72 12.529 43.86L12.529 43.86C12.61 43.999 12.561 44.177 12.421 44.255L12.421 44.255C12.377 44.284 12.325 44.296 12.276 44.296L12.276 44.296C12.177 44.295 12.078 44.243 12.026 44.15L12.026 44.15zM11.439 43.135C11.357 42.996 11.407 42.818 11.546 42.737L11.546 42.737C11.683 42.659 11.86 42.705 11.942 42.845L11.942 42.845C12.024 42.985 11.974 43.162 11.837 43.243L11.837 43.243C11.791 43.269 11.741 43.281 11.692 43.281L11.692 43.281C11.59 43.28 11.494 43.228 11.439 43.135L11.439 43.135zM10.854 42.12C10.773 41.981 10.819 41.803 10.959 41.725L10.959 41.725C11.098 41.643 11.276 41.69 11.355 41.83L11.355 41.83C11.436 41.97 11.39 42.147 11.25 42.228L11.25 42.228C11.203 42.254 11.154 42.266 11.105 42.266L11.105 42.266C11.003 42.265 10.907 42.213 10.854 42.12L10.854 42.12zM10.267 41.105C10.185 40.965 10.232 40.788 10.372 40.709L10.372 40.709C10.512 40.627 10.689 40.674 10.77 40.814L10.77 40.814C10.852 40.953 10.802 41.131 10.662 41.212L10.662 41.212C10.619 41.238 10.566 41.25 10.517 41.25L10.517 41.25C10.418 41.25 10.319 41.198 10.267 41.105L10.267 41.105zM9.679 40.09C9.598 39.953 9.647 39.773 9.787 39.694L9.787 39.694C9.924 39.613 10.104 39.659 10.183 39.799L10.183 39.799C10.265 39.939 10.218 40.116 10.078 40.197L10.078 40.197C10.031 40.223 9.982 40.235 9.933 40.235L9.933 40.235C9.831 40.235 9.735 40.183 9.679 40.09L9.679 40.09zM9.092 39.078C9.013 38.938 9.06 38.761 9.2 38.68L9.2 38.68C9.339 38.598 9.517 38.648 9.595 38.785L9.595 38.785C9.677 38.925 9.63 39.102 9.49 39.183L9.49 39.183C9.443 39.209 9.394 39.224 9.345 39.224L9.345 39.224C9.243 39.223 9.147 39.171 9.092 39.078L9.092 39.078zM8.507 38.063C8.425 37.923 8.472 37.746 8.612 37.665L8.612 37.665C8.752 37.584 8.929 37.633 9.01 37.773L9.01 37.773C9.092 37.91 9.042 38.09 8.902 38.168L8.902 38.168C8.859 38.194 8.806 38.209 8.757 38.209L8.757 38.209C8.658 38.208 8.56 38.156 8.507 38.063L8.507 38.063zM7.92 37.048C7.842 36.908 7.888 36.731 8.028 36.65L8.028 36.65C8.168 36.571 8.345 36.618 8.424 36.757L8.424 36.757C8.505 36.897 8.459 37.074 8.319 37.153L8.319 37.153C8.272 37.179 8.223 37.194 8.174 37.194L8.174 37.194C8.071 37.193 7.975 37.141 7.92 37.048L7.92 37.048zM7.335 36.033C7.253 35.893 7.3 35.716 7.44 35.635L7.44 35.635C7.579 35.556 7.757 35.603 7.838 35.743L7.838 35.743C7.917 35.88 7.87 36.06 7.731 36.138L7.731 36.138C7.684 36.164 7.635 36.179 7.586 36.179L7.586 36.179C7.486 36.178 7.387 36.126 7.335 36.033L7.335 36.033zM6.748 35.018C6.667 34.878 6.713 34.701 6.853 34.62L6.853 34.62C6.993 34.541 7.17 34.588 7.251 34.727L7.251 34.727C7.333 34.867 7.283 35.044 7.146 35.125L7.146 35.125C7.099 35.151 7.05 35.163 7.001 35.163L7.001 35.163C6.899 35.163 6.8 35.111 6.748 35.018L6.748 35.018zM6.16 34.003C6.078 33.863 6.128 33.686 6.268 33.608L6.268 33.608C6.407 33.526 6.585 33.573 6.663 33.713L6.663 33.713C6.745 33.853 6.698 34.03 6.558 34.111L6.558 34.111C6.511 34.137 6.462 34.149 6.413 34.149L6.413 34.149C6.311 34.148 6.215 34.096 6.16 34.003L6.16 34.003zM5.576 32.988C5.494 32.848 5.541 32.671 5.681 32.59L5.681 32.59C5.821 32.511 5.998 32.558 6.079 32.697L6.079 32.697C6.158 32.837 6.111 33.014 5.971 33.095L5.971 33.095C5.924 33.121 5.875 33.133 5.826 33.133L5.826 33.133C5.727 33.133 5.628 33.081 5.576 32.988L5.576 32.988zM4.988 31.973C4.906 31.833 4.956 31.656 5.093 31.578L5.093 31.578C5.232 31.496 5.41 31.543 5.491 31.683L5.491 31.683C5.572 31.823 5.523 32 5.386 32.081L5.386 32.081C5.339 32.107 5.29 32.119 5.241 32.119L5.241 32.119C5.139 32.118 5.041 32.066 4.988 31.973L4.988 31.973zM4.401 30.958C4.322 30.821 4.369 30.641 4.509 30.563L4.509 30.563C4.648 30.482 4.826 30.528 4.904 30.668L4.904 30.668C4.986 30.808 4.939 30.985 4.799 31.066L4.799 31.066C4.752 31.092 4.703 31.104 4.654 31.104L4.654 31.104C4.552 31.103 4.456 31.054 4.401 30.958L4.401 30.958zM3.816 29.943C3.735 29.806 3.781 29.629 3.921 29.548L3.921 29.548C4.061 29.466 4.238 29.516 4.319 29.653L4.319 29.653C4.397 29.793 4.351 29.97 4.211 30.051L4.211 30.051C4.164 30.077 4.115 30.092 4.066 30.092L4.066 30.092C3.967 30.091 3.869 30.039 3.816 29.943L3.816 29.943zM3.229 28.931C3.147 28.791 3.197 28.614 3.334 28.533L3.334 28.533C3.473 28.452 3.651 28.501 3.732 28.641L3.732 28.641C3.813 28.778 3.764 28.958 3.627 29.036L3.627 29.036C3.58 29.062 3.531 29.077 3.482 29.077L3.482 29.077C3.38 29.076 3.281 29.024 3.229 28.931L3.229 28.931zM2.641 27.916C2.562 27.776 2.609 27.599 2.748 27.518L2.748 27.518C2.888 27.436 3.065 27.486 3.146 27.625L3.146 27.625C3.225 27.762 3.178 27.942 3.038 28.021L3.038 28.021C2.992 28.047 2.942 28.062 2.893 28.062L2.893 28.062C2.792 28.061 2.696 28.009 2.641 27.916L2.641 27.916zM2.057 26.901C1.976 26.761 2.022 26.584 2.162 26.503L2.162 26.503C2.301 26.424 2.479 26.471 2.56 26.611L2.56 26.611C2.638 26.751 2.592 26.928 2.452 27.006L2.452 27.006C2.408 27.035 2.356 27.047 2.307 27.047L2.307 27.047C2.208 27.046 2.109 26.994 2.057 26.901L2.057 26.901zM1.469 25.886C1.387 25.746 1.437 25.569 1.574 25.488L1.574 25.488C1.714 25.41 1.891 25.456 1.972 25.596L1.972 25.596C2.054 25.736 2.004 25.913 1.867 25.994L1.867 25.994C1.82 26.02 1.771 26.032 1.722 26.032L1.722 26.032C1.62 26.031 1.524 25.979 1.469 25.886L1.469 25.886zM.882 24.871C.804 24.731.85 24.554.99 24.473L.99 24.473C1.13 24.394 1.307 24.441 1.386 24.581L1.386 24.581C1.468 24.721 1.421 24.898 1.281 24.979L1.281 24.979C1.234 25.005 1.185 25.017 1.136 25.017L1.136 25.017C1.036 25.016.937 24.964.882 24.871L.882 24.871zM.541 24.007C.463 24.007.39 23.975.335 23.923.28 23.868.251 23.792.251 23.717.251 23.641.28 23.566.335 23.511.445 23.401.637 23.403.745 23.511.8 23.566.832 23.642.832 23.717.832 23.793.8 23.868.745 23.923.693 23.975.617 24.007.541 24.007L.541 24.007zM75.348 23.716C75.348 23.553 75.479 23.425 75.639 23.425L75.639 23.425C75.802 23.425 75.93 23.553 75.93 23.716L75.93 23.716C75.93 23.876 75.802 24.007 75.639 24.007L75.639 24.007C75.479 24.007 75.348 23.876 75.348 23.716L75.348 23.716zM74.193 23.716C74.193 23.553 74.324 23.425 74.484 23.425L74.484 23.425C74.644 23.425 74.775 23.553 74.775 23.716L74.775 23.716C74.775 23.876 74.644 24.007 74.484 24.007L74.484 24.007C74.324 24.007 74.193 23.876 74.193 23.716L74.193 23.716zM73.039 23.716C73.039 23.553 73.17 23.425 73.33 23.425L73.33 23.425C73.49 23.425 73.621 23.553 73.621 23.716L73.621 23.716C73.621 23.876 73.49 24.007 73.33 24.007L73.33 24.007C73.17 24.007 73.039 23.876 73.039 23.716L73.039 23.716zM71.881 23.716C71.881 23.553 72.012 23.425 72.172 23.425L72.172 23.425C72.335 23.425 72.463 23.553 72.463 23.716L72.463 23.716C72.463 23.876 72.335 24.007 72.172 24.007L72.172 24.007C72.012 24.007 71.881 23.876 71.881 23.716L71.881 23.716zM70.727 23.716C70.727 23.553 70.858 23.425 71.018 23.425L71.018 23.425C71.178 23.425 71.309 23.553 71.309 23.716L71.309 23.716C71.309 23.876 71.178 24.007 71.018 24.007L71.018 24.007C70.858 24.007 70.727 23.876 70.727 23.716L70.727 23.716zM69.572 23.716C69.572 23.553 69.703 23.425 69.863 23.425L69.863 23.425C70.023 23.425 70.154 23.553 70.154 23.716L70.154 23.716C70.154 23.876 70.023 24.007 69.863 24.007L69.863 24.007C69.703 24.007 69.572 23.876 69.572 23.716L69.572 23.716zM68.418 23.716C68.418 23.553 68.549 23.425 68.709 23.425L68.709 23.425C68.869 23.425 69 23.553 69 23.716L69 23.716C69 23.876 68.869 24.007 68.709 24.007L68.709 24.007C68.548 24.007 68.418 23.876 68.418 23.716L68.418 23.716zM67.26 23.716C67.26 23.553 67.391 23.425 67.551 23.425L67.551 23.425C67.714 23.425 67.842 23.553 67.842 23.716L67.842 23.716C67.842 23.876 67.714 24.007 67.551 24.007L67.551 24.007C67.391 24.007 67.26 23.876 67.26 23.716L67.26 23.716zM66.106 23.716C66.106 23.553 66.237 23.425 66.397 23.425L66.397 23.425C66.557 23.425 66.688 23.553 66.688 23.716L66.688 23.716C66.688 23.876 66.557 24.007 66.397 24.007L66.397 24.007C66.237 24.007 66.106 23.876 66.106 23.716L66.106 23.716zM64.951 23.716C64.951 23.553 65.082 23.425 65.242 23.425L65.242 23.425C65.402 23.425 65.533 23.553 65.533 23.716L65.533 23.716C65.533 23.876 65.402 24.007 65.242 24.007L65.242 24.007C65.082 24.007 64.951 23.876 64.951 23.716L64.951 23.716zM63.796 23.716C63.796 23.553 63.924 23.425 64.087 23.425L64.087 23.425C64.247 23.425 64.378 23.553 64.378 23.716L64.378 23.716C64.378 23.876 64.247 24.007 64.087 24.007L64.087 24.007C63.924 24.007 63.796 23.876 63.796 23.716L63.796 23.716zM62.639 23.716C62.639 23.553 62.77 23.425 62.93 23.425L62.93 23.425C63.093 23.425 63.221 23.553 63.221 23.716L63.221 23.716C63.221 23.876 63.093 24.007 62.93 24.007L62.93 24.007C62.77 24.007 62.639 23.876 62.639 23.716L62.639 23.716zM61.484 23.716C61.484 23.553 61.615 23.425 61.775 23.425L61.775 23.425C61.935 23.425 62.066 23.553 62.066 23.716L62.066 23.716C62.066 23.876 61.935 24.007 61.775 24.007L61.775 24.007C61.615 24.007 61.484 23.876 61.484 23.716L61.484 23.716zM60.33 23.716C60.33 23.553 60.461 23.425 60.621 23.425L60.621 23.425C60.781 23.425 60.912 23.553 60.912 23.716L60.912 23.716C60.912 23.876 60.781 24.007 60.621 24.007L60.621 24.007C60.461 24.007 60.33 23.876 60.33 23.716L60.33 23.716zM59.175 23.716C59.175 23.553 59.303 23.425 59.466 23.425L59.466 23.425C59.626 23.425 59.757 23.553 59.757 23.716L59.757 23.716C59.757 23.876 59.626 24.007 59.466 24.007L59.466 24.007C59.303 24.007 59.175 23.876 59.175 23.716L59.175 23.716zM58.018 23.716C58.018 23.553 58.149 23.425 58.309 23.425L58.309 23.425C58.469 23.425 58.6 23.553 58.6 23.716L58.6 23.716C58.6 23.876 58.469 24.007 58.309 24.007L58.309 24.007C58.149 24.007 58.018 23.876 58.018 23.716L58.018 23.716zM56.863 23.716C56.863 23.553 56.994 23.425 57.154 23.425L57.154 23.425C57.314 23.425 57.445 23.553 57.445 23.716L57.445 23.716C57.445 23.876 57.314 24.007 57.154 24.007L57.154 24.007C56.994 24.007 56.863 23.876 56.863 23.716L56.863 23.716zM55.709 23.716C55.709 23.553 55.84 23.425 56 23.425L56 23.425C56.16 23.425 56.291 23.553 56.291 23.716L56.291 23.716C56.291 23.876 56.16 24.007 56 24.007L56 24.007C55.84 24.007 55.709 23.876 55.709 23.716L55.709 23.716zM54.551 23.716C54.551 23.553 54.682 23.425 54.842 23.425L54.842 23.425C55.005 23.425 55.133 23.553 55.133 23.716L55.133 23.716C55.133 23.876 55.005 24.007 54.842 24.007L54.842 24.007C54.682 24.007 54.551 23.876 54.551 23.716L54.551 23.716zM53.396 23.716C53.396 23.553 53.527 23.425 53.687 23.425L53.687 23.425C53.847 23.425 53.978 23.553 53.978 23.716L53.978 23.716C53.978 23.876 53.847 24.007 53.687 24.007L53.687 24.007C53.527 24.007 53.396 23.876 53.396 23.716L53.396 23.716zM52.242 23.716C52.242 23.553 52.373 23.425 52.533 23.425L52.533 23.425C52.693 23.425 52.824 23.553 52.824 23.716L52.824 23.716C52.824 23.876 52.693 24.007 52.533 24.007L52.533 24.007C52.373 24.007 52.242 23.876 52.242 23.716L52.242 23.716zM51.087 23.716C51.087 23.553 51.218 23.425 51.378 23.425L51.378 23.425C51.538 23.425 51.669 23.553 51.669 23.716L51.669 23.716C51.669 23.876 51.538 24.007 51.378 24.007L51.378 24.007C51.218 24.007 51.087 23.876 51.087 23.716L51.087 23.716zM49.93 23.716C49.93 23.553 50.061 23.425 50.221 23.425L50.221 23.425C50.384 23.425 50.512 23.553 50.512 23.716L50.512 23.716C50.512 23.876 50.384 24.007 50.221 24.007L50.221 24.007C50.061 24.007 49.93 23.876 49.93 23.716L49.93 23.716zM48.775 23.716C48.775 23.553 48.906 23.425 49.066 23.425L49.066 23.425C49.226 23.425 49.357 23.553 49.357 23.716L49.357 23.716C49.357 23.876 49.226 24.007 49.066 24.007L49.066 24.007C48.906 24.007 48.775 23.876 48.775 23.716L48.775 23.716zM47.621 23.716C47.621 23.553 47.752 23.425 47.912 23.425L47.912 23.425C48.072 23.425 48.203 23.553 48.203 23.716L48.203 23.716C48.203 23.876 48.072 24.007 47.912 24.007L47.912 24.007C47.751 24.007 47.621 23.876 47.621 23.716L47.621 23.716zM46.466 23.716C46.466 23.553 46.594 23.425 46.757 23.425L46.757 23.425C46.917 23.425 47.048 23.553 47.048 23.716L47.048 23.716C47.048 23.876 46.917 24.007 46.757 24.007L46.757 24.007C46.594 24.007 46.466 23.876 46.466 23.716L46.466 23.716zM45.309 23.716C45.309 23.553 45.44 23.425 45.6 23.425L45.6 23.425C45.763 23.425 45.891 23.553 45.891 23.716L45.891 23.716C45.891 23.876 45.763 24.007 45.6 24.007L45.6 24.007C45.439 24.007 45.309 23.876 45.309 23.716L45.309 23.716zM44.154 23.716C44.154 23.553 44.285 23.425 44.445 23.425L44.445 23.425C44.605 23.425 44.736 23.553 44.736 23.716L44.736 23.716C44.736 23.876 44.605 24.007 44.445 24.007L44.445 24.007C44.285 24.007 44.154 23.876 44.154 23.716L44.154 23.716zM42.999 23.716C42.999 23.553 43.127 23.425 43.29 23.425L43.29 23.425C43.45 23.425 43.581 23.553 43.581 23.716L43.581 23.716C43.581 23.876 43.45 24.007 43.29 24.007L43.29 24.007C43.127 24.007 42.999 23.876 42.999 23.716L42.999 23.716zM41.845 23.716C41.845 23.553 41.973 23.425 42.136 23.425L42.136 23.425C42.296 23.425 42.424 23.553 42.424 23.716L42.424 23.716C42.424 23.876 42.296 24.007 42.136 24.007L42.136 24.007C41.973 24.007 41.845 23.876 41.845 23.716L41.845 23.716zM40.687 23.716C40.687 23.553 40.818 23.425 40.978 23.425L40.978 23.425C41.138 23.425 41.269 23.553 41.269 23.716L41.269 23.716C41.269 23.876 41.138 24.007 40.978 24.007L40.978 24.007C40.818 24.007 40.687 23.876 40.687 23.716L40.687 23.716zM39.533 23.716C39.533 23.553 39.664 23.425 39.824 23.425L39.824 23.425C39.984 23.425 40.115 23.553 40.115 23.716L40.115 23.716C40.115 23.876 39.984 24.007 39.824 24.007L39.824 24.007C39.664 24.007 39.533 23.876 39.533 23.716L39.533 23.716zM38.378 23.716C38.378 23.553 38.506 23.425 38.669 23.425L38.669 23.425C38.829 23.425 38.96 23.553 38.96 23.716L38.96 23.716C38.96 23.876 38.829 24.007 38.669 24.007L38.669 24.007C38.506 24.007 38.378 23.876 38.378 23.716L38.378 23.716zM37.223 23.716C37.223 23.553 37.351 23.425 37.514 23.425L37.514 23.425C37.674 23.425 37.805 23.553 37.805 23.716L37.805 23.716C37.805 23.876 37.674 24.007 37.514 24.007L37.514 24.007C37.352 24.007 37.223 23.876 37.223 23.716L37.223 23.716zM36.066 23.716C36.066 23.553 36.197 23.425 36.357 23.425L36.357 23.425C36.517 23.425 36.648 23.553 36.648 23.716L36.648 23.716C36.648 23.876 36.517 24.007 36.357 24.007L36.357 24.007C36.197 24.007 36.066 23.876 36.066 23.716L36.066 23.716zM34.912 23.716C34.912 23.553 35.043 23.425 35.203 23.425L35.203 23.425C35.363 23.425 35.494 23.553 35.494 23.716L35.494 23.716C35.494 23.876 35.363 24.007 35.203 24.007L35.203 24.007C35.042 24.007 34.912 23.876 34.912 23.716L34.912 23.716zM33.757 23.716C33.757 23.553 33.885 23.425 34.048 23.425L34.048 23.425C34.208 23.425 34.339 23.553 34.339 23.716L34.339 23.716C34.339 23.876 34.208 24.007 34.048 24.007L34.048 24.007C33.885 24.007 33.757 23.876 33.757 23.716L33.757 23.716zM32.599 23.716C32.599 23.553 32.73 23.425 32.89 23.425L32.89 23.425C33.053 23.425 33.181 23.553 33.181 23.716L33.181 23.716C33.181 23.876 33.053 24.007 32.89 24.007L32.89 24.007C32.73 24.007 32.599 23.876 32.599 23.716L32.599 23.716zM31.445 23.716C31.445 23.553 31.576 23.425 31.736 23.425L31.736 23.425C31.896 23.425 32.027 23.553 32.027 23.716L32.027 23.716C32.027 23.876 31.896 24.007 31.736 24.007L31.736 24.007C31.576 24.007 31.445 23.876 31.445 23.716L31.445 23.716zM30.29 23.716C30.29 23.553 30.418 23.425 30.581 23.425L30.581 23.425C30.741 23.425 30.872 23.553 30.872 23.716L30.872 23.716C30.872 23.876 30.741 24.007 30.581 24.007L30.581 24.007C30.418 24.007 30.29 23.876 30.29 23.716L30.29 23.716zM29.133 23.716C29.133 23.553 29.264 23.425 29.424 23.425L29.424 23.425C29.587 23.425 29.715 23.553 29.715 23.716L29.715 23.716C29.715 23.876 29.587 24.007 29.424 24.007L29.424 24.007C29.263 24.007 29.133 23.876 29.133 23.716L29.133 23.716zM27.978 23.716C27.978 23.553 28.109 23.425 28.269 23.425L28.269 23.425C28.429 23.425 28.56 23.553 28.56 23.716L28.56 23.716C28.56 23.876 28.429 24.007 28.269 24.007L28.269 24.007C28.109 24.007 27.978 23.876 27.978 23.716L27.978 23.716zM26.823 23.716C26.823 23.553 26.954 23.425 27.114 23.425L27.114 23.425C27.274 23.425 27.405 23.553 27.405 23.716L27.405 23.716C27.405 23.876 27.274 24.007 27.114 24.007L27.114 24.007C26.954 24.007 26.823 23.876 26.823 23.716L26.823 23.716zM25.669 23.716C25.669 23.553 25.797 23.425 25.96 23.425L25.96 23.425C26.12 23.425 26.251 23.553 26.251 23.716L26.251 23.716C26.251 23.876 26.12 24.007 25.96 24.007L25.96 24.007C25.797 24.007 25.669 23.876 25.669 23.716L25.669 23.716zM24.511 23.716C24.511 23.553 24.642 23.425 24.802 23.425L24.802 23.425C24.962 23.425 25.093 23.553 25.093 23.716L25.093 23.716C25.093 23.876 24.962 24.007 24.802 24.007L24.802 24.007C24.642 24.007 24.511 23.876 24.511 23.716L24.511 23.716zM23.357 23.716C23.357 23.553 23.488 23.425 23.648 23.425L23.648 23.425C23.808 23.425 23.939 23.553 23.939 23.716L23.939 23.716C23.939 23.876 23.808 24.007 23.648 24.007L23.648 24.007C23.488 24.007 23.357 23.876 23.357 23.716L23.357 23.716zM22.202 23.716C22.202 23.553 22.333 23.425 22.493 23.425L22.493 23.425C22.653 23.425 22.784 23.553 22.784 23.716L22.784 23.716C22.784 23.876 22.653 24.007 22.493 24.007L22.493 24.007C22.333 24.007 22.202 23.876 22.202 23.716L22.202 23.716zM21.045 23.716C21.045 23.553 21.176 23.425 21.336 23.425L21.336 23.425C21.499 23.425 21.627 23.553 21.627 23.716L21.627 23.716C21.627 23.876 21.499 24.007 21.336 24.007L21.336 24.007C21.176 24.007 21.045 23.876 21.045 23.716L21.045 23.716zM19.89 23.716C19.89 23.553 20.021 23.425 20.181 23.425L20.181 23.425C20.341 23.425 20.472 23.553 20.472 23.716L20.472 23.716C20.472 23.876 20.341 24.007 20.181 24.007L20.181 24.007C20.021 24.007 19.89 23.876 19.89 23.716L19.89 23.716zM18.736 23.716C18.736 23.553 18.867 23.425 19.027 23.425L19.027 23.425C19.187 23.425 19.318 23.553 19.318 23.716L19.318 23.716C19.318 23.876 19.187 24.007 19.027 24.007L19.027 24.007C18.866 24.007 18.736 23.876 18.736 23.716L18.736 23.716zM17.581 23.716C17.581 23.553 17.712 23.425 17.872 23.425L17.872 23.425C18.032 23.425 18.163 23.553 18.163 23.716L18.163 23.716C18.163 23.876 18.032 24.007 17.872 24.007L17.872 24.007C17.712 24.007 17.581 23.876 17.581 23.716L17.581 23.716zM16.424 23.716C16.424 23.553 16.555 23.425 16.715 23.425L16.715 23.425C16.878 23.425 17.006 23.553 17.006 23.716L17.006 23.716C17.006 23.876 16.878 24.007 16.715 24.007L16.715 24.007C16.554 24.007 16.424 23.876 16.424 23.716L16.424 23.716zM15.269 23.716C15.269 23.553 15.4 23.425 15.56 23.425L15.56 23.425C15.72 23.425 15.851 23.553 15.851 23.716L15.851 23.716C15.851 23.876 15.72 24.007 15.56 24.007L15.56 24.007C15.4 24.007 15.269 23.876 15.269 23.716L15.269 23.716zM14.114 23.716C14.114 23.553 14.245 23.425 14.405 23.425L14.405 23.425C14.565 23.425 14.696 23.553 14.696 23.716L14.696 23.716C14.696 23.876 14.565 24.007 14.405 24.007L14.405 24.007C14.245 24.007 14.114 23.876 14.114 23.716L14.114 23.716zM12.96 23.716C12.96 23.553 13.088 23.425 13.251 23.425L13.251 23.425C13.411 23.425 13.542 23.553 13.542 23.716L13.542 23.716C13.542 23.876 13.411 24.007 13.251 24.007L13.251 24.007C13.088 24.007 12.96 23.876 12.96 23.716L12.96 23.716zM11.802 23.716C11.802 23.553 11.933 23.425 12.093 23.425L12.093 23.425C12.256 23.425 12.384 23.553 12.384 23.716L12.384 23.716C12.384 23.876 12.256 24.007 12.093 24.007L12.093 24.007C11.933 24.007 11.802 23.876 11.802 23.716L11.802 23.716zM10.648 23.716C10.648 23.553 10.779 23.425 10.939 23.425L10.939 23.425C11.099 23.425 11.23 23.553 11.23 23.716L11.23 23.716C11.23 23.876 11.099 24.007 10.939 24.007L10.939 24.007C10.779 24.007 10.648 23.876 10.648 23.716L10.648 23.716zM9.493 23.716C9.493 23.553 9.621 23.425 9.784 23.425L9.784 23.425C9.944 23.425 10.075 23.553 10.075 23.716L10.075 23.716C10.075 23.876 9.944 24.007 9.784 24.007L9.784 24.007C9.621 24.007 9.493 23.876 9.493 23.716L9.493 23.716zM8.339 23.716C8.339 23.553 8.467 23.425 8.63 23.425L8.63 23.425C8.79 23.425 8.921 23.553 8.921 23.716L8.921 23.716C8.921 23.876 8.79 24.007 8.63 24.007L8.63 24.007C8.466 24.007 8.339 23.876 8.339 23.716L8.339 23.716zM7.181 23.716C7.181 23.553 7.312 23.425 7.472 23.425L7.472 23.425C7.632 23.425 7.763 23.553 7.763 23.716L7.763 23.716C7.763 23.876 7.632 24.007 7.472 24.007L7.472 24.007C7.312 24.007 7.181 23.876 7.181 23.716L7.181 23.716zM6.026 23.716C6.026 23.553 6.157 23.425 6.317 23.425L6.317 23.425C6.477 23.425 6.608 23.553 6.608 23.716L6.608 23.716C6.608 23.876 6.477 24.007 6.317 24.007L6.317 24.007C6.157 24.007 6.026 23.876 6.026 23.716L6.026 23.716zM4.872 23.716C4.872 23.553 5 23.425 5.163 23.425L5.163 23.425C5.323 23.425 5.454 23.553 5.454 23.716L5.454 23.716C5.454 23.876 5.323 24.007 5.163 24.007L5.163 24.007C5 24.007 4.872 23.876 4.872 23.716L4.872 23.716zM3.717 23.716C3.717 23.553 3.845 23.425 4.008 23.425L4.008 23.425C4.168 23.425 4.299 23.553 4.299 23.716L4.299 23.716C4.299 23.876 4.168 24.007 4.008 24.007L4.008 24.007C3.845 24.007 3.717 23.876 3.717 23.716L3.717 23.716zM2.56 23.716C2.56 23.553 2.691 23.425 2.851 23.425L2.851 23.425C3.011 23.425 3.142 23.553 3.142 23.716L3.142 23.716C3.142 23.876 3.011 24.007 2.851 24.007L2.851 24.007C2.691 24.007 2.56 23.876 2.56 23.716L2.56 23.716zM1.405 23.716C1.405 23.553 1.536 23.425 1.696 23.425L1.696 23.425C1.856 23.425 1.987 23.553 1.987 23.716L1.987 23.716C1.987 23.876 1.856 24.007 1.696 24.007L1.696 24.007C1.536 24.007 1.405 23.876 1.405 23.716L1.405 23.716zM76.796 24.007C76.718 24.007 76.642 23.975 76.59 23.92 76.535 23.868 76.506 23.792 76.506 23.716 76.506 23.637 76.535 23.562 76.59 23.51 76.695 23.402 76.892 23.4 77 23.51 77.055 23.562 77.087 23.638 77.087 23.716 77.087 23.792 77.055 23.867 77 23.922 76.948 23.975 76.872 24.007 76.796 24.007L76.796 24.007z"/>
    <path stroke="#000000" stroke-width="2" d="M76.951 24.007C76.875 24.007 76.8 23.975 76.745 23.92 76.692 23.868 76.661 23.792 76.661 23.716 76.661 23.64 76.693 23.565 76.745 23.51 76.853 23.402 77.05 23.402 77.158 23.51 77.213 23.565 77.242 23.641 77.242 23.716 77.242 23.792 77.213 23.867 77.158 23.922 77.102 23.975 77.026 24.007 76.951 24.007L76.951 24.007zM39.102 88.917C38.963 88.835 38.916 88.658 38.997 88.519L38.997 88.519C39.075 88.38 39.253 88.333 39.392 88.414L39.392 88.414C39.532 88.495 39.578 88.673 39.5 88.809L39.5 88.809C39.445 88.905 39.346 88.954 39.247 88.954L39.247 88.954C39.198 88.955 39.149 88.943 39.102 88.917L39.102 88.917zM39.681 87.916C39.542 87.834 39.495 87.657 39.576 87.518L39.576 87.518C39.657 87.381 39.835 87.332 39.974 87.413L39.974 87.413C40.111 87.495 40.16 87.672 40.079 87.811L40.079 87.811C40.024 87.904 39.928 87.956 39.826 87.956L39.826 87.956C39.777 87.957 39.728 87.943 39.681 87.916L39.681 87.916zM40.263 86.919C40.124 86.838 40.077 86.66 40.155 86.521L40.155 86.521C40.237 86.382 40.414 86.335 40.553 86.416L40.553 86.416C40.693 86.494 40.739 86.675 40.661 86.811L40.661 86.811C40.606 86.904 40.507 86.956 40.408 86.956L40.408 86.956C40.359 86.957 40.309 86.945 40.263 86.919L40.263 86.919zM40.841 85.918C40.701 85.836 40.655 85.659 40.736 85.52L40.736 85.52C40.818 85.38 40.995 85.334 41.134 85.415L41.134 85.415C41.271 85.497 41.317 85.674 41.239 85.813L41.239 85.813C41.184 85.906 41.088 85.958 40.986 85.958L40.986 85.958C40.937 85.959 40.888 85.945 40.841 85.918L40.841 85.918zM41.42 84.921C41.283 84.84 41.234 84.662 41.315 84.523L41.315 84.523C41.397 84.384 41.574 84.337 41.713 84.416L41.713 84.416C41.852 84.497 41.899 84.675 41.818 84.814L41.818 84.814C41.765 84.907 41.667 84.959 41.568 84.959L41.568 84.959C41.519 84.959 41.467 84.947 41.42 84.921L41.42 84.921zM42.002 83.92C41.862 83.838 41.816 83.661 41.897 83.522L41.897 83.522C41.979 83.382 42.156 83.336 42.295 83.417L42.295 83.417C42.432 83.499 42.481 83.676 42.4 83.815L42.4 83.815C42.345 83.905 42.249 83.958 42.147 83.958L42.147 83.958C42.098 83.958 42.049 83.947 42.002 83.92L42.002 83.92zM42.58 82.92C42.443 82.842 42.397 82.661 42.475 82.525L42.475 82.525C42.557 82.385 42.734 82.339 42.873 82.417L42.873 82.417C43.012 82.498 43.059 82.676 42.978 82.815L42.978 82.815C42.926 82.908 42.827 82.96 42.728 82.96L42.728 82.96C42.68 82.961 42.627 82.946 42.58 82.92L42.58 82.92zM43.162 81.922C43.023 81.84 42.976 81.663 43.057 81.524L43.057 81.524C43.135 81.385 43.313 81.338 43.455 81.419L43.455 81.419C43.592 81.501 43.638 81.678 43.56 81.817L43.56 81.817C43.505 81.907 43.409 81.96 43.307 81.96L43.307 81.96C43.258 81.96 43.209 81.949 43.162 81.922L43.162 81.922zM43.741 80.922C43.604 80.841 43.558 80.663 43.636 80.524L43.636 80.524C43.717 80.387 43.895 80.341 44.034 80.419L44.034 80.419C44.174 80.501 44.22 80.678 44.139 80.817L44.139 80.817C44.087 80.91 43.988 80.962 43.889 80.962L43.889 80.962C43.84 80.963 43.788 80.948 43.741 80.922L43.741 80.922zM44.323 79.924C44.184 79.842 44.137 79.665 44.215 79.526L44.215 79.526C44.297 79.387 44.474 79.34 44.613 79.421L44.613 79.421C44.753 79.499 44.799 79.677 44.718 79.816L44.718 79.816C44.666 79.909 44.567 79.961 44.468 79.961L44.468 79.961C44.419 79.962 44.369 79.951 44.323 79.924L44.323 79.924zM44.901 78.924C44.764 78.843 44.715 78.665 44.796 78.526L44.796 78.526C44.878 78.389 45.055 78.34 45.194 78.421L45.194 78.421C45.331 78.503 45.38 78.68 45.299 78.819L45.299 78.819C45.244 78.912 45.148 78.962 45.049 78.962L45.049 78.962C44.997 78.962 44.948 78.95 44.901 78.924L44.901 78.924zM45.483 77.924C45.343 77.845 45.297 77.668 45.375 77.528L45.375 77.528C45.457 77.389 45.634 77.342 45.773 77.42L45.773 77.42C45.912 77.502 45.959 77.679 45.878 77.818L45.878 77.818C45.825 77.911 45.727 77.963 45.628 77.963L45.628 77.963C45.579 77.964 45.53 77.953 45.483 77.924L45.483 77.924zM46.062 76.926C45.922 76.844 45.876 76.667 45.957 76.528L45.957 76.528C46.039 76.388 46.216 76.342 46.355 76.423L46.355 76.423C46.492 76.505 46.541 76.682 46.46 76.821L46.46 76.821C46.405 76.911 46.309 76.964 46.207 76.964L46.207 76.964C46.158 76.964 46.108 76.952 46.062 76.926L46.062 76.926zM46.644 75.926C46.504 75.848 46.458 75.667 46.536 75.53L46.536 75.53C46.618 75.391 46.795 75.344 46.934 75.423L46.934 75.423C47.073 75.504 47.12 75.682 47.039 75.821L47.039 75.821C46.987 75.914 46.888 75.966 46.789 75.966L46.789 75.966C46.74 75.966 46.687 75.952 46.644 75.926L46.644 75.926zM47.222 74.928C47.083 74.846 47.036 74.669 47.117 74.53L47.117 74.53C47.199 74.39 47.376 74.344 47.512 74.425L47.512 74.425C47.652 74.504 47.701 74.681 47.62 74.821L47.62 74.821C47.565 74.914 47.469 74.966 47.367 74.966L47.367 74.966C47.318 74.966 47.269 74.954 47.222 74.928L47.222 74.928zM47.801 73.928C47.664 73.846 47.615 73.669 47.696 73.53L47.696 73.53C47.777 73.393 47.955 73.344 48.094 73.425L48.094 73.425C48.234 73.506 48.28 73.684 48.199 73.823L48.199 73.823C48.147 73.916 48.048 73.968 47.949 73.968L47.949 73.968C47.9 73.968 47.847 73.954 47.801 73.928L47.801 73.928zM48.383 72.927C48.244 72.848 48.197 72.671 48.278 72.531L48.278 72.531C48.356 72.391 48.537 72.345 48.673 72.426L48.673 72.426C48.813 72.505 48.859 72.682 48.781 72.822L48.781 72.822C48.726 72.915 48.63 72.967 48.528 72.967L48.528 72.967C48.479 72.968 48.429 72.956 48.383 72.927L48.383 72.927zM48.961 71.929C48.824 71.848 48.775 71.67 48.856 71.531L48.856 71.531C48.938 71.394 49.115 71.345 49.254 71.426L49.254 71.426C49.394 71.507 49.44 71.685 49.359 71.824L49.359 71.824C49.304 71.917 49.208 71.966 49.109 71.966L49.109 71.966C49.057 71.967 49.008 71.956 48.961 71.929L48.961 71.929zM49.543 70.929C49.403 70.85 49.357 70.67 49.438 70.533L49.438 70.533C49.517 70.394 49.694 70.347 49.834 70.425L49.834 70.425C49.974 70.507 50.02 70.684 49.942 70.823L49.942 70.823C49.887 70.916 49.788 70.968 49.689 70.968L49.689 70.968C49.639 70.97 49.59 70.958 49.543 70.929L49.543 70.929zM50.122 69.931C49.982 69.85 49.936 69.672 50.017 69.533L50.017 69.533C50.099 69.393 50.276 69.347 50.415 69.428L50.415 69.428C50.555 69.506 50.601 69.687 50.52 69.824L50.52 69.824C50.467 69.917 50.369 69.969 50.267 69.969L50.267 69.969C50.218 69.97 50.168 69.958 50.122 69.931L50.122 69.931zM50.703 68.931C50.563 68.849 50.517 68.672 50.598 68.533L50.598 68.533C50.677 68.396 50.854 68.347 50.994 68.428L50.994 68.428C51.133 68.51 51.18 68.687 51.099 68.826L51.099 68.826C51.047 68.919 50.948 68.971 50.849 68.971L50.849 68.971C50.799 68.972 50.747 68.957 50.703 68.931L50.703 68.931zM51.282 67.934C51.142 67.852 51.096 67.675 51.177 67.536L51.177 67.536C51.259 67.396 51.436 67.35 51.575 67.431L51.575 67.431C51.712 67.509 51.758 67.69 51.68 67.827L51.68 67.827C51.625 67.92 51.529 67.972 51.427 67.972L51.427 67.972C51.378 67.971 51.329 67.96 51.282 67.934L51.282 67.934zM51.864 66.933C51.724 66.851 51.678 66.674 51.756 66.535L51.756 66.535C51.837 66.396 52.015 66.349 52.154 66.43L52.154 66.43C52.293 66.512 52.34 66.689 52.259 66.828L52.259 66.828C52.207 66.921 52.108 66.973 52.009 66.973L52.009 66.973C51.96 66.974 51.91 66.959 51.864 66.933L51.864 66.933zM52.442 65.933C52.303 65.855 52.256 65.677 52.337 65.538L52.337 65.538C52.418 65.398 52.596 65.352 52.732 65.433L52.732 65.433C52.872 65.512 52.918 65.689 52.84 65.829L52.84 65.829C52.785 65.922 52.689 65.974 52.587 65.974L52.587 65.974C52.538 65.973 52.489 65.962 52.442 65.933L52.442 65.933zM53.021 64.935C52.884 64.853 52.835 64.676 52.916 64.537L52.916 64.537C52.998 64.398 53.175 64.351 53.314 64.432L53.314 64.432C53.454 64.513 53.5 64.691 53.419 64.83L53.419 64.83C53.367 64.923 53.268 64.973 53.169 64.973L53.169 64.973C53.12 64.973 53.068 64.961 53.021 64.935L53.021 64.935zM53.603 63.935C53.464 63.856 53.417 63.676 53.498 63.539L53.498 63.539C53.58 63.399 53.757 63.353 53.896 63.431L53.896 63.431C54.033 63.513 54.079 63.69 54.001 63.829L54.001 63.829C53.946 63.922 53.85 63.974 53.748 63.974L53.748 63.974C53.699 63.975 53.65 63.964 53.603 63.935L53.603 63.935zM54.182 62.937C54.045 62.855 53.996 62.678 54.077 62.539L54.077 62.539C54.159 62.4 54.336 62.353 54.475 62.434L54.475 62.434C54.615 62.515 54.661 62.693 54.58 62.829L54.58 62.829C54.527 62.922 54.429 62.974 54.33 62.974L54.33 62.974C54.281 62.975 54.228 62.963 54.182 62.937L54.182 62.937zM54.763 61.937C54.623 61.855 54.577 61.678 54.658 61.539L54.658 61.539C54.74 61.402 54.914 61.353 55.054 61.434L55.054 61.434C55.193 61.516 55.24 61.693 55.162 61.832L55.162 61.832C55.107 61.925 55.011 61.977 54.909 61.977L54.909 61.977C54.859 61.977 54.81 61.963 54.763 61.937L54.763 61.937zM55.342 60.936C55.205 60.858 55.156 60.68 55.237 60.54L55.237 60.54C55.319 60.401 55.496 60.354 55.635 60.435L55.635 60.435C55.774 60.513 55.821 60.694 55.74 60.83L55.74 60.83C55.688 60.923 55.589 60.975 55.49 60.975L55.49 60.975C55.441 60.977 55.389 60.965 55.342 60.936L55.342 60.936zM55.924 59.939C55.784 59.857 55.738 59.68 55.816 59.541L55.816 59.541C55.897 59.401 56.075 59.355 56.214 59.436L56.214 59.436C56.353 59.518 56.4 59.695 56.319 59.834L56.319 59.834C56.267 59.927 56.168 59.979 56.069 59.979L56.069 59.979C56.02 59.979 55.97 59.965 55.924 59.939L55.924 59.939zM56.502 58.938C56.365 58.86 56.316 58.682 56.397 58.543L56.397 58.543C56.478 58.403 56.656 58.357 56.795 58.435L56.795 58.435C56.934 58.516 56.981 58.694 56.9 58.833L56.9 58.833C56.845 58.926 56.749 58.978 56.647 58.978L56.647 58.978C56.598 58.979 56.549 58.964 56.502 58.938L56.502 58.938zM57.084 57.941C56.945 57.859 56.898 57.682 56.976 57.543L56.976 57.543C57.058 57.403 57.235 57.357 57.374 57.438L57.374 57.438C57.514 57.52 57.56 57.697 57.479 57.836L57.479 57.836C57.427 57.926 57.328 57.979 57.229 57.979L57.229 57.979C57.18 57.979 57.128 57.967 57.084 57.941L57.084 57.941zM57.663 56.94C57.524 56.862 57.477 56.681 57.558 56.545L57.558 56.545C57.64 56.405 57.817 56.359 57.956 56.437L57.956 56.437C58.093 56.519 58.142 56.696 58.061 56.835L58.061 56.835C58.006 56.928 57.91 56.98 57.808 56.98L57.808 56.98C57.759 56.981 57.709 56.966 57.663 56.94L57.663 56.94zM58.245 55.943C58.106 55.861 58.059 55.684 58.137 55.545L58.137 55.545C58.219 55.406 58.396 55.359 58.535 55.44L58.535 55.44C58.675 55.522 58.721 55.699 58.64 55.838L58.64 55.838C58.587 55.928 58.489 55.981 58.39 55.981L58.39 55.981C58.341 55.981 58.288 55.969 58.245 55.943L58.245 55.943zM58.823 54.942C58.683 54.861 58.637 54.683 58.718 54.544L58.718 54.544C58.797 54.407 58.977 54.358 59.114 54.439L59.114 54.439C59.253 54.521 59.3 54.698 59.222 54.837L59.222 54.837C59.167 54.93 59.071 54.982 58.969 54.982L58.969 54.982C58.919 54.983 58.87 54.969 58.823 54.942L58.823 54.942zM59.405 53.942C59.265 53.863 59.216 53.686 59.297 53.546L59.297 53.546C59.379 53.407 59.556 53.36 59.695 53.441L59.695 53.441C59.834 53.519 59.881 53.697 59.8 53.836L59.8 53.836C59.748 53.929 59.649 53.981 59.55 53.981L59.55 53.981C59.501 53.983 59.448 53.971 59.405 53.942L59.405 53.942zM59.984 52.944C59.844 52.862 59.798 52.685 59.879 52.546L59.879 52.546C59.957 52.409 60.138 52.36 60.275 52.441L60.275 52.441C60.414 52.523 60.461 52.7 60.382 52.839L60.382 52.839C60.327 52.932 60.231 52.982 60.129 52.982L60.129 52.982C60.08 52.982 60.03 52.971 59.984 52.944L59.984 52.944zM60.562 51.944C60.425 51.866 60.376 51.688 60.457 51.548L60.457 51.548C60.538 51.409 60.716 51.362 60.855 51.44L60.855 51.44C60.994 51.522 61.041 51.699 60.96 51.838L60.96 51.838C60.908 51.931 60.809 51.983 60.707 51.983L60.707 51.983C60.658 51.984 60.609 51.973 60.562 51.944L60.562 51.944zM61.144 50.946C61.005 50.864 60.958 50.687 61.039 50.548L61.039 50.548C61.117 50.408 61.295 50.362 61.434 50.443L61.434 50.443C61.574 50.522 61.62 50.702 61.542 50.839L61.542 50.839C61.487 50.932 61.388 50.984 61.289 50.984L61.289 50.984C61.24 50.984 61.191 50.973 61.144 50.946L61.144 50.946zM61.723 49.946C61.584 49.864 61.537 49.687 61.618 49.548L61.618 49.548C61.7 49.411 61.877 49.362 62.016 49.443L62.016 49.443C62.156 49.524 62.202 49.702 62.121 49.841L62.121 49.841C62.066 49.934 61.97 49.986 61.868 49.986L61.868 49.986C61.819 49.986 61.769 49.972 61.723 49.946L61.723 49.946zM62.304 48.948C62.165 48.866 62.118 48.689 62.199 48.55L62.199 48.55C62.278 48.41 62.455 48.364 62.595 48.445L62.595 48.445C62.735 48.524 62.781 48.701 62.7 48.841L62.7 48.841C62.647 48.934 62.549 48.986 62.45 48.986L62.45 48.986C62.4 48.986 62.348 48.975 62.304 48.948L62.304 48.948zM62.883 47.948C62.743 47.867 62.697 47.689 62.778 47.55L62.778 47.55C62.86 47.413 63.037 47.364 63.176 47.445L63.176 47.445C63.313 47.526 63.359 47.704 63.281 47.843L63.281 47.843C63.226 47.936 63.13 47.988 63.028 47.988L63.028 47.988C62.979 47.989 62.93 47.974 62.883 47.948L62.883 47.948zM63.465 46.948C63.325 46.869 63.279 46.689 63.357 46.552L63.357 46.552C63.439 46.413 63.616 46.366 63.755 46.447L63.755 46.447C63.894 46.526 63.941 46.703 63.86 46.843L63.86 46.843C63.807 46.936 63.709 46.988 63.61 46.988L63.61 46.988C63.561 46.988 63.508 46.977 63.465 46.948L63.465 46.948zM64.044 45.95C63.904 45.869 63.858 45.691 63.939 45.552L63.939 45.552C64.017 45.415 64.198 45.366 64.337 45.447L64.337 45.447C64.474 45.529 64.52 45.706 64.442 45.845L64.442 45.845C64.387 45.938 64.291 45.987 64.189 45.987L64.189 45.987C64.14 45.988 64.09 45.976 64.044 45.95L64.044 45.95zM64.622 44.95C64.485 44.871 64.439 44.691 64.517 44.554L64.517 44.554C64.598 44.415 64.776 44.368 64.915 44.446L64.915 44.446C65.054 44.528 65.101 44.705 65.02 44.844L65.02 44.844C64.968 44.937 64.869 44.989 64.77 44.989L64.77 44.989C64.718 44.99 64.669 44.978 64.622 44.95L64.622 44.95zM65.204 43.952C65.065 43.871 65.018 43.693 65.099 43.554L65.099 43.554C65.177 43.414 65.358 43.368 65.494 43.449L65.494 43.449C65.634 43.527 65.68 43.708 65.602 43.845L65.602 43.845C65.547 43.938 65.451 43.99 65.349 43.99L65.349 43.99C65.3 43.99 65.251 43.978 65.204 43.952L65.204 43.952zM65.783 42.952C65.646 42.87 65.597 42.693 65.678 42.554L65.678 42.554C65.759 42.417 65.937 42.368 66.076 42.449L66.076 42.449C66.213 42.531 66.262 42.708 66.181 42.847L66.181 42.847C66.129 42.94 66.03 42.992 65.931 42.992L65.931 42.992C65.882 42.992 65.829 42.978 65.783 42.952L65.783 42.952zM66.364 41.954C66.225 41.872 66.178 41.695 66.259 41.556L66.259 41.556C66.337 41.416 66.515 41.37 66.654 41.448L66.654 41.448C66.794 41.53 66.84 41.707 66.762 41.846L66.762 41.846C66.707 41.939 66.608 41.991 66.509 41.991L66.509 41.991C66.46 41.992 66.411 41.98 66.364 41.954L66.364 41.954zM66.943 40.953C66.806 40.871 66.757 40.694 66.838 40.555L66.838 40.555C66.92 40.418 67.097 40.369 67.236 40.45L67.236 40.45C67.373 40.532 67.422 40.709 67.341 40.848L67.341 40.848C67.286 40.941 67.19 40.993 67.091 40.993L67.091 40.993C67.039 40.994 66.99 40.98 66.943 40.953L66.943 40.953zM67.525 39.956C67.385 39.875 67.339 39.697 67.417 39.558L67.417 39.558C67.499 39.418 67.676 39.372 67.815 39.453L67.815 39.453C67.954 39.532 68.001 39.709 67.92 39.849L67.92 39.849C67.867 39.942 67.769 39.994 67.67 39.994L67.67 39.994C67.621 39.994 67.571 39.982 67.525 39.956L67.525 39.956zM68.104 38.955C67.967 38.874 67.918 38.696 67.999 38.557L67.999 38.557C68.081 38.42 68.258 38.371 68.397 38.452L68.397 38.452C68.536 38.534 68.583 38.711 68.502 38.85L68.502 38.85C68.447 38.943 68.351 38.993 68.249 38.993L68.249 38.993C68.2 38.993 68.15 38.982 68.104 38.955L68.104 38.955zM68.685 37.955C68.545 37.876 68.499 37.696 68.577 37.56L68.577 37.56C68.659 37.42 68.836 37.374 68.975 37.452L68.975 37.452C69.114 37.534 69.161 37.711 69.08 37.85L69.08 37.85C69.028 37.943 68.929 37.995 68.83 37.995L68.83 37.995C68.781 37.996 68.729 37.981 68.685 37.955L68.685 37.955zM69.264 36.958C69.125 36.876 69.078 36.699 69.159 36.56L69.159 36.56C69.241 36.42 69.418 36.374 69.557 36.455L69.557 36.455C69.694 36.534 69.743 36.714 69.662 36.85L69.662 36.85C69.607 36.946 69.511 36.995 69.409 36.995L69.409 36.995C69.36 36.995 69.31 36.984 69.264 36.958L69.264 36.958zM69.846 35.957C69.707 35.876 69.66 35.698 69.739 35.559L69.739 35.559C69.82 35.422 69.998 35.373 70.137 35.454L70.137 35.454C70.277 35.536 70.323 35.713 70.242 35.852L70.242 35.852C70.19 35.945 70.091 35.997 69.992 35.997L69.992 35.997C69.942 35.998 69.889 35.983 69.846 35.957L69.846 35.957zM70.424 34.96C70.285 34.878 70.238 34.701 70.319 34.562L70.319 34.562C70.397 34.422 70.578 34.376 70.714 34.457L70.714 34.457C70.854 34.536 70.9 34.716 70.822 34.852L70.822 34.852C70.767 34.945 70.668 34.997 70.569 34.997L70.569 34.997C70.52 34.997 70.471 34.986 70.424 34.96L70.424 34.96zM71.003 33.959C70.866 33.877 70.817 33.7 70.898 33.561L70.898 33.561C70.98 33.421 71.157 33.375 71.296 33.456L71.296 33.456C71.436 33.537 71.482 33.715 71.401 33.854L71.401 33.854C71.346 33.947 71.25 34 71.149 34L71.149 34C71.099 34 71.05 33.985 71.003 33.959L71.003 33.959zM71.585 32.959C71.445 32.88 71.399 32.703 71.48 32.563L71.48 32.563C71.559 32.423 71.739 32.377 71.876 32.456L71.876 32.456C72.015 32.537 72.062 32.715 71.981 32.854L71.981 32.854C71.928 32.947 71.832 32.999 71.731 32.999L71.731 32.999C71.681 32.999 71.631 32.988 71.585 32.959L71.585 32.959zM72.164 31.961C72.024 31.88 71.978 31.702 72.059 31.563L72.059 31.563C72.141 31.423 72.318 31.377 72.457 31.458L72.457 31.458C72.596 31.539 72.643 31.717 72.562 31.856L72.562 31.856C72.507 31.949 72.411 31.998 72.309 31.998L72.309 31.998C72.26 31.999 72.21 31.987 72.164 31.961L72.164 31.961zM72.745 30.961C72.605 30.882 72.559 30.702 72.64 30.566L72.64 30.566C72.719 30.426 72.896 30.377 73.036 30.458L73.036 30.458C73.175 30.539 73.222 30.717 73.141 30.856L73.141 30.856C73.089 30.949 72.99 31.001 72.891 31.001L72.891 31.001C72.841 31.001 72.789 30.987 72.745 30.961L72.745 30.961zM73.324 29.963C73.185 29.882 73.138 29.704 73.219 29.565L73.219 29.565C73.301 29.425 73.478 29.379 73.617 29.46L73.617 29.46C73.754 29.542 73.803 29.719 73.722 29.855L73.722 29.855C73.667 29.948 73.571 30 73.469 30L73.469 30C73.42 30.001 73.37 29.989 73.324 29.963L73.324 29.963zM73.906 28.963C73.767 28.882 73.72 28.704 73.799 28.565L73.799 28.565C73.88 28.428 74.058 28.379 74.197 28.46L74.197 28.46C74.337 28.541 74.383 28.719 74.305 28.858L74.305 28.858C74.25 28.951 74.151 29.003 74.052 29.003L74.052 29.003C74.002 29.003 73.952 28.989 73.906 28.963L73.906 28.963zM74.484 27.962C74.345 27.883 74.298 27.706 74.379 27.567L74.379 27.567C74.46 27.427 74.638 27.381 74.774 27.462L74.774 27.462C74.914 27.541 74.96 27.721 74.882 27.858L74.882 27.858C74.827 27.951 74.731 28.003 74.629 28.003L74.629 28.003C74.58 28.003 74.531 27.991 74.484 27.962L74.484 27.962zM75.066 26.965C74.927 26.884 74.88 26.706 74.958 26.567L74.958 26.567C75.04 26.427 75.217 26.381 75.356 26.462L75.356 26.462C75.496 26.544 75.542 26.721 75.461 26.86L75.461 26.86C75.409 26.953 75.31 27.003 75.211 27.003L75.211 27.003C75.162 27.003 75.11 26.991 75.066 26.965L75.066 26.965zM75.645 25.964C75.505 25.885 75.459 25.708 75.54 25.569L75.54 25.569C75.622 25.429 75.799 25.383 75.938 25.461L75.938 25.461C76.075 25.543 76.121 25.72 76.043 25.859L76.043 25.859C75.988 25.952 75.892 26.004 75.79 26.004L75.79 26.004C75.741 26.005 75.691 25.993 75.645 25.964L75.645 25.964zM76.224 24.967C76.087 24.885 76.038 24.708 76.119 24.569L76.119 24.569C76.201 24.429 76.378 24.383 76.517 24.464L76.517 24.464C76.657 24.545 76.703 24.723 76.622 24.862L76.622 24.862C76.569 24.955 76.471 25.005 76.372 25.005L76.372 25.005C76.322 25.005 76.27 24.993 76.224 24.967L76.224 24.967zM38.669 89.955C38.59 89.955 38.515 89.923 38.463 89.871 38.408 89.816 38.379 89.74 38.379 89.665 38.379 89.59 38.408 89.514 38.463 89.459 38.57 89.351 38.765 89.351 38.873 89.459 38.928 89.514 38.96 89.59 38.96 89.665 38.96 89.74 38.928 89.816 38.873 89.871 38.82 89.923 38.745 89.955 38.669 89.955L38.669 89.955z"/>
    <polygon points="77.464 67.78 .696 67.78 .696 67.199 76.438 67.199 76.399 67.134 38.572 1.686 39.076 1.395 76.901 66.839"/>
    <rect width="76.256" height=".582" x="-18.264" y="34.119" transform="rotate(-59.881 19.864 34.619)"/>
  </g>
</svg>
