<svg xmlns="http://www.w3.org/2000/svg" width="80" height="93" viewBox="0 0 80 93">
  <g fill="#000000" fill-rule="evenodd" transform="translate(1 2)">
    <g transform="translate(39)">
      <path d="M.367 1.228C.292 1.228.218 1.196.163 1.145.111 1.09.08 1.016.08.941.08.863.112.791.166.737.269.631.462.631.571.737.626.792.654.863.654.941.654 1.016.625 1.091.571 1.145.516 1.196.442 1.228.367 1.228L.367 1.228zM.079 43.772C.079 43.614.208 43.484.367 43.484L.367 43.484C.525 43.484.655 43.613.655 43.772L.655 43.772C.655 43.93.526 44.06.367 44.06L.367 44.06C.209 44.06.079 43.93.079 43.772L.079 43.772zM.079 42.617C.079 42.456.208 42.329.367 42.329L.367 42.329C.525 42.329.655 42.455.655 42.617L.655 42.617C.655 42.775.526 42.905.367 42.905L.367 42.905C.209 42.904.079 42.775.079 42.617L.079 42.617zM.079 41.458C.079 41.3.208 41.17.367 41.17L.367 41.17C.525 41.17.655 41.299.655 41.458L.655 41.458C.655 41.616.526 41.746.367 41.746L.367 41.746C.209 41.745.079 41.616.079 41.458L.079 41.458zM.079 40.299C.079 40.141.208 40.014.367 40.014L.367 40.014C.525 40.014.655 40.14.655 40.299L.655 40.299C.655 40.46.526 40.587.367 40.587L.367 40.587C.209 40.587.079 40.46.079 40.299L.079 40.299zM.079 39.143C.079 38.985.208 38.855.367 38.855L.367 38.855C.525 38.855.655 38.984.655 39.143L.655 39.143C.655 39.301.526 39.431.367 39.431L.367 39.431C.209 39.431.079 39.301.079 39.143L.079 39.143zM.079 37.985C.079 37.827.208 37.697.367 37.697L.367 37.697C.525 37.697.655 37.826.655 37.985L.655 37.985C.655 38.143.526 38.273.367 38.273L.367 38.273C.209 38.272.079 38.143.079 37.985L.079 37.985zM.079 36.829C.079 36.668.208 36.541.367 36.541L.367 36.541C.525 36.541.655 36.667.655 36.829L.655 36.829C.655 36.987.526 37.114.367 37.114L.367 37.114C.209 37.113.079 36.987.079 36.829L.079 36.829zM.079 35.67C.079 35.512.208 35.382.367 35.382L.367 35.382C.525 35.382.655 35.511.655 35.67L.655 35.67C.655 35.828.526 35.958.367 35.958L.367 35.958C.209 35.958.079 35.828.079 35.67L.079 35.67zM.079 34.511C.079 34.353.208 34.223.367 34.223L.367 34.223C.525 34.223.655 34.352.655 34.511L.655 34.511C.655 34.672.526 34.799.367 34.799L.367 34.799C.209 34.799.079 34.672.079 34.511L.079 34.511zM.079 33.355C.079 33.194.208 33.067.367 33.067L.367 33.067C.525 33.067.655 33.193.655 33.355L.655 33.355C.655 33.513.526 33.643.367 33.643L.367 33.643C.209 33.643.079 33.514.079 33.355L.079 33.355zM.079 32.197C.079 32.039.208 31.909.367 31.909L.367 31.909C.525 31.909.655 32.038.655 32.197L.655 32.197C.655 32.355.526 32.485.367 32.485L.367 32.485C.209 32.484.079 32.355.079 32.197L.079 32.197zM.079 31.041C.079 30.88.208 30.751.367 30.751L.367 30.751C.525 30.751.655 30.88.655 31.041L.655 31.041C.655 31.199.526 31.326.367 31.326L.367 31.326C.209 31.325.079 31.199.079 31.041L.079 31.041zM.079 29.882C.079 29.724.208 29.594.367 29.594L.367 29.594C.525 29.594.655 29.723.655 29.882L.655 29.882C.655 30.04.526 30.17.367 30.17L.367 30.17C.209 30.17.079 30.04.079 29.882L.079 29.882zM.079 28.723C.079 28.565.208 28.435.367 28.435L.367 28.435C.525 28.435.655 28.564.655 28.723L.655 28.723C.655 28.881.526 29.011.367 29.011L.367 29.011C.209 29.011.079 28.882.079 28.723L.079 28.723zM.079 27.568C.079 27.407.208 27.278.367 27.278L.367 27.278C.525 27.278.655 27.407.655 27.568L.655 27.568C.655 27.726.526 27.856.367 27.856L.367 27.856C.209 27.855.079 27.726.079 27.568L.079 27.568zM.079 26.409C.079 26.251.208 26.121.367 26.121L.367 26.121C.525 26.121.655 26.25.655 26.409L.655 26.409C.655 26.567.526 26.697.367 26.697L.367 26.697C.209 26.696.079 26.567.079 26.409L.079 26.409zM.079 25.25C.079 25.092.208 24.962.367 24.962L.367 24.962C.525 24.962.655 25.091.655 25.25L.655 25.25C.655 25.411.526 25.538.367 25.538L.367 25.538C.209 25.538.079 25.411.079 25.25L.079 25.25zM.079 24.094C.079 23.933.208 23.806.367 23.806L.367 23.806C.525 23.806.655 23.932.655 24.094L.655 24.094C.655 24.252.526 24.382.367 24.382L.367 24.382C.209 24.382.079 24.252.079 24.094L.079 24.094zM.079 22.936C.079 22.778.208 22.648.367 22.648L.367 22.648C.525 22.648.655 22.777.655 22.936L.655 22.936C.655 23.094.526 23.224.367 23.224L.367 23.224C.209 23.223.079 23.094.079 22.936L.079 22.936zM.079 21.777C.079 21.619.208 21.489.367 21.489L.367 21.489C.525 21.489.655 21.618.655 21.777L.655 21.777C.655 21.938.526 22.065.367 22.065L.367 22.065C.209 22.064.079 21.938.079 21.777L.079 21.777zM.079 20.621C.079 20.46.208 20.333.367 20.333L.367 20.333C.525 20.333.655 20.459.655 20.621L.655 20.621C.655 20.779.526 20.909.367 20.909L.367 20.909C.209 20.909.079 20.779.079 20.621L.079 20.621zM.079 19.462C.079 19.304.208 19.174.367 19.174L.367 19.174C.525 19.174.655 19.303.655 19.462L.655 19.462C.655 19.62.526 19.75.367 19.75L.367 19.75C.209 19.75.079 19.62.079 19.462L.079 19.462zM.079 18.306C.079 18.145.208 18.016.367 18.016L.367 18.016C.525 18.016.655 18.145.655 18.306L.655 18.306C.655 18.464.526 18.594.367 18.594L.367 18.594C.209 18.594.079 18.465.079 18.306L.079 18.306zM.079 17.148C.079 16.987.208 16.86.367 16.86L.367 16.86C.525 16.86.655 16.987.655 17.148L.655 17.148C.655 17.306.526 17.436.367 17.436L.367 17.436C.209 17.435.079 17.306.079 17.148L.079 17.148zM.079 15.989C.079 15.831.208 15.701.367 15.701L.367 15.701C.525 15.701.655 15.83.655 15.989L.655 15.989C.655 16.15.526 16.277.367 16.277L.367 16.277C.209 16.277.079 16.15.079 15.989L.079 15.989zM.079 14.83C.079 14.672.208 14.545.367 14.545L.367 14.545C.525 14.545.655 14.671.655 14.83L.655 14.83C.655 14.991.526 15.12.367 15.12L.367 15.12C.209 15.121.079 14.991.079 14.83L.079 14.83zM.079 13.675C.079 13.517.208 13.387.367 13.387L.367 13.387C.525 13.387.655 13.516.655 13.675L.655 13.675C.655 13.833.526 13.963.367 13.963L.367 13.963C.209 13.962.079 13.833.079 13.675L.079 13.675zM.079 12.516C.079 12.358.208 12.228.367 12.228L.367 12.228C.525 12.228.655 12.357.655 12.516L.655 12.516C.655 12.674.526 12.804.367 12.804L.367 12.804C.209 12.803.079 12.674.079 12.516L.079 12.516zM.079 11.36C.079 11.199.208 11.072.367 11.072L.367 11.072C.525 11.072.655 11.198.655 11.36L.655 11.36C.655 11.518.526 11.648.367 11.648L.367 11.648C.209 11.647.079 11.518.079 11.36L.079 11.36zM.079 10.201C.079 10.043.208 9.913.367 9.913L.367 9.913C.525 9.913.655 10.042.655 10.201L.655 10.201C.655 10.359.526 10.489.367 10.489L.367 10.489C.209 10.489.079 10.359.079 10.201L.079 10.201zM.079 9.042C.079 8.884.208 8.754.367 8.754L.367 8.754C.525 8.754.655 8.883.655 9.042L.655 9.042C.655 9.203.526 9.33.367 9.33L.367 9.33C.209 9.33.079 9.203.079 9.042L.079 9.042zM.079 7.887C.079 7.726.208 7.599.367 7.599L.367 7.599C.525 7.599.655 7.725.655 7.887L.655 7.887C.655 8.045.526 8.175.367 8.175L.367 8.175C.209 8.174.079 8.045.079 7.887L.079 7.887zM.079 6.728C.079 6.57.208 6.44.367 6.44L.367 6.44C.525 6.44.655 6.569.655 6.728L.655 6.728C.655 6.886.526 7.016.367 7.016L.367 7.016C.209 7.015.079 6.886.079 6.728L.079 6.728zM.079 5.569C.079 5.411.208 5.284.367 5.284L.367 5.284C.525 5.284.655 5.41.655 5.569L.655 5.569C.655 5.73.526 5.857.367 5.857L.367 5.857C.209 5.857.079 5.73.079 5.569L.079 5.569zM.079 4.413C.079 4.255.208 4.125.367 4.125L.367 4.125C.525 4.125.655 4.254.655 4.413L.655 4.413C.655 4.571.526 4.701.367 4.701L.367 4.701C.209 4.701.079 4.572.079 4.413L.079 4.413zM.079 3.255C.079 3.097.208 2.967.367 2.967L.367 2.967C.525 2.967.655 3.096.655 3.255L.655 3.255C.655 3.413.526 3.543.367 3.543L.367 3.543C.209 3.542.079 3.413.079 3.255L.079 3.255zM.079 2.099C.079 1.938.208 1.811.367 1.811L.367 1.811C.525 1.811.655 1.937.655 2.099L.655 2.099C.655 2.257.526 2.387.367 2.387L.367 2.387C.209 2.386.079 2.257.079 2.099L.079 2.099zM.367 45.219C.292 45.219.218 45.187.166 45.136.111 45.081.08 45.007.08 44.932.08 44.854.112 44.782.166 44.728.269 44.622.462 44.622.571 44.728.626 44.782.654 44.857.654 44.932.654 45.007.625 45.081.571 45.136.516 45.187.442 45.219.367 45.219L.367 45.219z"/>
    </g>
    <g transform="translate(0 44)">
      <path d="M1.147 23.07C1.072 23.07.998 23.041.943 22.987.889 22.932.86 22.858.86 22.783.86 22.708.889 22.633.943 22.579 1.049 22.473 1.245 22.473 1.351 22.579 1.403 22.633 1.434 22.705 1.434 22.783 1.434 22.858 1.402 22.932 1.348 22.987 1.296 23.039 1.221 23.07 1.147 23.07L1.147 23.07zM1.903 22.352C1.823 22.214 1.872 22.039 2.009 21.958L2.009 21.958C2.147 21.88 2.322 21.926 2.4 22.064L2.4 22.064C2.48 22.202 2.431 22.377 2.294 22.458L2.294 22.458C2.248 22.484 2.199 22.495 2.15 22.495L2.15 22.495C2.052 22.495 1.955 22.443 1.903 22.352L1.903 22.352zM2.909 21.776C2.829 21.638 2.878 21.46 3.015 21.382L3.015 21.382C3.153 21.304 3.328 21.35 3.406 21.488L3.406 21.488C3.483 21.626 3.437 21.801 3.3 21.882L3.3 21.882C3.254 21.908 3.205 21.919 3.156 21.919L3.156 21.919C3.059 21.92 2.961 21.868 2.909 21.776L2.909 21.776zM3.913 21.201C3.836 21.063 3.884 20.885 4.022 20.807L4.022 20.807C4.157 20.729 4.335 20.775 4.413 20.913L4.413 20.913C4.49 21.051 4.444 21.226 4.307 21.307L4.307 21.307C4.261 21.333 4.212 21.344 4.163 21.344L4.163 21.344C4.065 21.345 3.967 21.293 3.913 21.201L3.913 21.201zM4.919 20.624C4.842 20.489 4.887 20.313 5.025 20.233L5.025 20.233C5.163 20.155 5.338 20.201 5.419 20.339L5.419 20.339C5.496 20.477 5.45 20.652 5.313 20.733L5.313 20.733C5.267 20.759 5.218 20.77 5.169 20.77L5.169 20.77C5.068 20.77 4.974 20.718 4.919 20.624L4.919 20.624zM5.925 20.051C5.844 19.913 5.893 19.738 6.031 19.657L6.031 19.657C6.169 19.579 6.344 19.625 6.425 19.763L6.425 19.763C6.502 19.901 6.454 20.076 6.316 20.157L6.316 20.157C6.273 20.183 6.224 20.194 6.175 20.194L6.175 20.194C6.075 20.195 5.977 20.143 5.925 20.051L5.925 20.051zM6.932 19.476C6.851 19.338 6.9 19.16 7.038 19.082L7.038 19.082C7.176 19.004 7.351 19.05 7.429 19.188L7.429 19.188C7.509 19.326 7.46 19.501 7.323 19.582L7.323 19.582C7.28 19.608 7.231 19.619 7.182 19.619L7.182 19.619C7.081 19.62 6.983 19.568 6.932 19.476L6.932 19.476zM7.938 18.901C7.857 18.763 7.906 18.585 8.044 18.507L8.044 18.507C8.182 18.429 8.357 18.475 8.435 18.613L8.435 18.613C8.515 18.751 8.466 18.926 8.329 19.007L8.329 19.007C8.283 19.033 8.234 19.044 8.185 19.044L8.185 19.044C8.087 19.045 7.99 18.993 7.938 18.901L7.938 18.901zM8.944 18.326C8.863 18.188 8.912 18.013 9.05 17.932L9.05 17.932C9.188 17.854 9.363 17.9 9.441 18.038L9.441 18.038C9.518 18.176 9.472 18.351 9.335 18.432L9.335 18.432C9.289 18.458 9.24 18.469 9.191 18.469L9.191 18.469C9.094 18.47 8.996 18.418 8.944 18.326L8.944 18.326zM9.948 17.751C9.87 17.613 9.919 17.435 10.054 17.357L10.054 17.357C10.192 17.279 10.37 17.325 10.448 17.463L10.448 17.463C10.525 17.601 10.479 17.776 10.342 17.857L10.342 17.857C10.296 17.883 10.247 17.894 10.198 17.894L10.198 17.894C10.097 17.895 10.002 17.843 9.948 17.751L9.948 17.751zM10.954 17.176C10.876 17.038 10.922 16.86 11.06 16.782L11.06 16.782C11.198 16.704 11.373 16.75 11.454 16.888L11.454 16.888C11.531 17.026 11.485 17.201 11.348 17.282L11.348 17.282C11.302 17.308 11.253 17.319 11.204 17.319L11.204 17.319C11.103 17.32 11.009 17.268 10.954 17.176L10.954 17.176zM11.96 16.601C11.882 16.463 11.928 16.288 12.066 16.207L12.066 16.207C12.204 16.129 12.379 16.175 12.46 16.313L12.46 16.313C12.537 16.451 12.489 16.626 12.35 16.707L12.35 16.707C12.307 16.733 12.258 16.744 12.209 16.744L12.209 16.744C12.11 16.745 12.012 16.693 11.96 16.601L11.96 16.601zM12.967 16.026C12.886 15.888 12.935 15.713 13.073 15.632L13.073 15.632C13.211 15.554 13.386 15.6 13.464 15.738L13.464 15.738C13.545 15.876 13.496 16.051 13.358 16.132L13.358 16.132C13.315 16.158 13.263 16.169 13.217 16.169L13.217 16.169C13.116 16.17 13.018 16.118 12.967 16.026L12.967 16.026zM13.973 15.451C13.892 15.313 13.941 15.135 14.079 15.057L14.079 15.057C14.217 14.979 14.392 15.025 14.47 15.163L14.47 15.163C14.551 15.301 14.502 15.476 14.364 15.557L14.364 15.557C14.318 15.583 14.269 15.594 14.22 15.594L14.22 15.594C14.122 15.595 14.025 15.543 13.973 15.451L13.973 15.451zM14.977 14.876C14.899 14.738 14.948 14.563 15.086 14.482L15.086 14.482C15.224 14.404 15.399 14.45 15.477 14.588L15.477 14.588C15.558 14.726 15.509 14.901 15.371 14.982L15.371 14.982C15.325 15.008 15.276 15.019 15.227 15.019L15.227 15.019C15.129 15.02 15.031 14.968 14.977 14.876L14.977 14.876zM15.983 14.301C15.905 14.163 15.951 13.988 16.089 13.907L16.089 13.907C16.227 13.829 16.403 13.875 16.483 14.013L16.483 14.013C16.561 14.151 16.515 14.326 16.377 14.407L16.377 14.407C16.331 14.433 16.282 14.444 16.233 14.444L16.233 14.444C16.132 14.445 16.037 14.393 15.983 14.301L15.983 14.301zM16.989 13.726C16.911 13.588 16.957 13.41 17.095 13.332L17.095 13.332C17.233 13.254 17.409 13.3 17.489 13.438L17.489 13.438C17.567 13.576 17.521 13.751 17.383 13.832L17.383 13.832C17.337 13.858 17.288 13.869 17.239 13.869L17.239 13.869C17.139 13.87 17.044 13.818 16.989 13.726L16.989 13.726zM17.996 13.151C17.918 13.013 17.964 12.835 18.102 12.757L18.102 12.757C18.24 12.679 18.416 12.725 18.496 12.863L18.496 12.863C18.574 13.001 18.525 13.179 18.387 13.257L18.387 13.257C18.344 13.283 18.295 13.294 18.246 13.294L18.246 13.294C18.145 13.295 18.047 13.243 17.996 13.151L17.996 13.151zM19.002 12.576C18.921 12.438 18.97 12.263 19.108 12.182L19.108 12.182C19.246 12.104 19.422 12.15 19.499 12.288L19.499 12.288C19.58 12.426 19.531 12.601 19.393 12.682L19.393 12.682C19.35 12.708 19.298 12.719 19.252 12.719L19.252 12.719C19.151 12.72 19.054 12.668 19.002 12.576L19.002 12.576zM20.008 12.001C19.927 11.863 19.976 11.685 20.114 11.607L20.114 11.607C20.252 11.529 20.428 11.575 20.505 11.713L20.505 11.713C20.583 11.851 20.537 12.026 20.399 12.107L20.399 12.107C20.353 12.133 20.304 12.144 20.258 12.144L20.258 12.144C20.158 12.144 20.06 12.093 20.008 12.001L20.008 12.001zM21.011 11.426C20.934 11.288 20.982 11.11 21.12 11.032L21.12 11.032C21.255 10.954 21.434 11 21.511 11.138L21.511 11.138C21.592 11.276 21.543 11.451 21.405 11.532L21.405 11.532C21.359 11.558 21.31 11.569 21.261 11.569L21.261 11.569C21.164 11.569 21.066 11.517 21.011 11.426L21.011 11.426zM22.018 10.848C21.941 10.713 21.987 10.537 22.124 10.457L22.124 10.457C22.262 10.379 22.437 10.425 22.518 10.563L22.518 10.563C22.596 10.701 22.55 10.876 22.412 10.957L22.412 10.957C22.366 10.983 22.317 10.994 22.268 10.994L22.268 10.994C22.167 10.994 22.073 10.942 22.018 10.848L22.018 10.848zM23.024 10.276C22.947 10.138 22.993 9.963 23.13 9.882L23.13 9.882C23.268 9.804 23.443 9.85 23.524 9.988L23.524 9.988C23.602 10.126 23.553 10.301 23.418 10.382L23.418 10.382C23.372 10.408 23.323 10.419 23.274 10.419L23.274 10.419C23.174 10.419 23.076 10.367 23.024 10.276L23.024 10.276zM24.03 9.701C23.953 9.563 23.999 9.385 24.136 9.307L24.136 9.307C24.274 9.229 24.449 9.275 24.527 9.413L24.527 9.413C24.608 9.551 24.558 9.726 24.421 9.807L24.421 9.807C24.378 9.833 24.329 9.844 24.28 9.844L24.28 9.844C24.18 9.844 24.082 9.792 24.03 9.701L24.03 9.701zM25.037 9.126C24.957 8.988 25.006 8.81 25.143 8.732L25.143 8.732C25.281 8.654 25.456 8.7 25.534 8.838L25.534 8.838C25.615 8.976 25.565 9.151 25.428 9.232L25.428 9.232C25.385 9.258 25.336 9.269 25.287 9.269L25.287 9.269C25.186 9.269 25.089 9.217 25.037 9.126L25.037 9.126zM26.043 8.55C25.963 8.412 26.012 8.237 26.149 8.156L26.149 8.156C26.287 8.078 26.462 8.124 26.54 8.262L26.54 8.262C26.617 8.4 26.571 8.575 26.434 8.656L26.434 8.656C26.388 8.682 26.339 8.693 26.29 8.693L26.29 8.693C26.193 8.694 26.095 8.642 26.043 8.55L26.043 8.55zM27.049 7.975C26.969 7.837 27.018 7.659 27.153 7.581L27.153 7.581C27.291 7.503 27.469 7.549 27.547 7.687L27.547 7.687C27.624 7.825 27.578 8 27.441 8.081L27.441 8.081C27.395 8.107 27.346 8.118 27.297 8.118L27.297 8.118C27.199 8.119 27.101 8.067 27.049 7.975L27.049 7.975zM28.053 7.4C27.976 7.262 28.021 7.084 28.159 7.006L28.159 7.006C28.297 6.928 28.472 6.974 28.553 7.112L28.553 7.112C28.63 7.25 28.584 7.425 28.447 7.506L28.447 7.506C28.401 7.532 28.352 7.543 28.303 7.543L28.303 7.543C28.203 7.544 28.108 7.492 28.053 7.4L28.053 7.4zM29.059 6.825C28.982 6.687 29.027 6.512 29.165 6.431L29.165 6.431C29.303 6.353 29.478 6.399 29.559 6.537L29.559 6.537C29.636 6.675 29.588 6.85 29.45 6.931L29.45 6.931C29.407 6.957 29.358 6.968 29.309 6.968L29.309 6.968C29.209 6.969 29.111 6.917 29.059 6.825L29.059 6.825zM30.066 6.25C29.985 6.112 30.034 5.937 30.172 5.856L30.172 5.856C30.31 5.778 30.485 5.824 30.563 5.962L30.563 5.962C30.643 6.1 30.594 6.275 30.457 6.356L30.457 6.356C30.414 6.382 30.365 6.393 30.316 6.393L30.316 6.393C30.215 6.394 30.117 6.342 30.066 6.25L30.066 6.25zM31.072 5.675C30.991 5.537 31.04 5.359 31.178 5.281L31.178 5.281C31.316 5.203 31.491 5.249 31.569 5.387L31.569 5.387C31.649 5.525 31.6 5.7 31.463 5.781L31.463 5.781C31.42 5.807 31.368 5.818 31.322 5.818L31.322 5.818C31.222 5.819 31.124 5.767 31.072 5.675L31.072 5.675zM32.078 5.1C31.997 4.962 32.046 4.787 32.184 4.706L32.184 4.706C32.322 4.628 32.497 4.674 32.575 4.812L32.575 4.812C32.655 4.95 32.606 5.125 32.469 5.206L32.469 5.206C32.423 5.232 32.374 5.243 32.325 5.243L32.325 5.243C32.228 5.244 32.13 5.192 32.078 5.1L32.078 5.1zM33.082 4.525C33.004 4.387 33.05 4.212 33.188 4.131L33.188 4.131C33.326 4.053 33.504 4.099 33.582 4.237L33.582 4.237C33.659 4.375 33.613 4.55 33.476 4.631L33.476 4.631C33.43 4.657 33.381 4.668 33.332 4.668L33.332 4.668C33.231 4.669 33.136 4.617 33.082 4.525L33.082 4.525zM34.088 3.95C34.01 3.812 34.056 3.634 34.194 3.556L34.194 3.556C34.332 3.478 34.507 3.524 34.588 3.662L34.588 3.662C34.665 3.8 34.619 3.975 34.482 4.056L34.482 4.056C34.436 4.082 34.387 4.093 34.338 4.093L34.338 4.093C34.237 4.094 34.143 4.042 34.088 3.95L34.088 3.95zM35.094 3.375C35.016 3.237 35.062 3.059 35.2 2.981L35.2 2.981C35.338 2.903 35.513 2.949 35.591 3.087L35.591 3.087C35.672 3.225 35.626 3.403 35.488 3.481L35.488 3.481C35.442 3.507 35.393 3.518 35.344 3.518L35.344 3.518C35.244 3.519 35.149 3.467 35.094 3.375L35.094 3.375zM36.101 2.8C36.02 2.662 36.069 2.487 36.207 2.406L36.207 2.406C36.345 2.328 36.52 2.374 36.598 2.512L36.598 2.512C36.679 2.65 36.63 2.825 36.492 2.906L36.492 2.906C36.449 2.932 36.397 2.943 36.351 2.943L36.351 2.943C36.25 2.944 36.152 2.892 36.101 2.8L36.101 2.8zM37.107 2.225C37.026 2.087 37.075 1.909 37.213 1.831L37.213 1.831C37.351 1.753 37.526 1.799 37.604 1.937L37.604 1.937C37.685 2.075 37.636 2.25 37.498 2.331L37.498 2.331C37.452 2.357 37.403 2.368 37.357 2.368L37.357 2.368C37.256 2.369 37.159 2.317 37.107 2.225L37.107 2.225zM38.113 1.65C38.032 1.512 38.081 1.334 38.219 1.256L38.219 1.256C38.357 1.178 38.532 1.224 38.61 1.362L38.61 1.362C38.691 1.5 38.642 1.675 38.504 1.756L38.504 1.756C38.458 1.782 38.409 1.793 38.36 1.793L38.36 1.793C38.263 1.794 38.165 1.742 38.113 1.65L38.113 1.65zM39.367 1.219C39.292 1.219 39.218 1.187 39.166 1.136 39.111 1.081 39.08 1.007 39.08.932 39.08.854 39.112.782 39.166.728 39.269.622 39.462.622 39.571.728 39.626.782 39.654.857 39.654.932 39.654 1.007 39.625 1.081 39.571 1.136 39.516 1.187 39.442 1.219 39.367 1.219L39.367 1.219z"/>
    </g>
    <g transform="translate(39 44)">
      <path d="M38.435 22.783C38.358 22.783 38.286 22.751 38.231 22.7 38.176 22.645 38.148 22.571 38.148 22.496 38.148 22.421 38.177 22.346 38.231 22.292 38.337 22.186 38.533 22.186 38.636 22.292 38.69 22.346 38.722 22.421 38.722 22.496 38.722 22.571 38.69 22.645 38.636 22.7 38.585 22.751 38.51 22.783 38.435 22.783L38.435 22.783zM37.288 22.17C37.15 22.089 37.104 21.914 37.182 21.776L37.182 21.776C37.263 21.638 37.438 21.592 37.576 21.67L37.576 21.67C37.714 21.751 37.76 21.926 37.682 22.064L37.682 22.064C37.628 22.156 37.533 22.208 37.432 22.208L37.432 22.208C37.383 22.208 37.334 22.196 37.288 22.17L37.288 22.17zM36.287 21.595C36.149 21.514 36.103 21.339 36.181 21.201L36.181 21.201C36.258 21.063 36.437 21.017 36.572 21.095L36.572 21.095C36.713 21.176 36.759 21.351 36.681 21.489L36.681 21.489C36.626 21.581 36.529 21.633 36.431 21.633L36.431 21.633C36.382 21.633 36.333 21.621 36.287 21.595L36.287 21.595zM35.287 21.02C35.149 20.939 35.1 20.764 35.181 20.626L35.181 20.626C35.259 20.488 35.434 20.442 35.572 20.52L35.572 20.52C35.71 20.601 35.759 20.776 35.678 20.914L35.678 20.914C35.626 21.006 35.528 21.058 35.428 21.058L35.428 21.058C35.379 21.058 35.33 21.046 35.287 21.02L35.287 21.02zM34.283 20.445C34.145 20.364 34.099 20.189 34.177 20.051L34.177 20.051C34.257 19.913 34.433 19.867 34.571 19.945L34.571 19.945C34.709 20.026 34.755 20.201 34.677 20.339L34.677 20.339C34.623 20.431 34.525 20.483 34.427 20.483L34.427 20.483C34.378 20.483 34.329 20.471 34.283 20.445L34.283 20.445zM33.283 19.87C33.145 19.789 33.096 19.614 33.177 19.476L33.177 19.476C33.255 19.338 33.43 19.292 33.568 19.37L33.568 19.37C33.706 19.451 33.755 19.626 33.674 19.764L33.674 19.764C33.622 19.856 33.524 19.908 33.424 19.908L33.424 19.908C33.377 19.908 33.326 19.896 33.283 19.87L33.283 19.87zM32.279 19.295C32.141 19.214 32.095 19.039 32.173 18.901L32.173 18.901C32.254 18.763 32.429 18.717 32.567 18.795L32.567 18.795C32.705 18.876 32.751 19.051 32.673 19.189L32.673 19.189C32.619 19.281 32.524 19.333 32.423 19.333L32.423 19.333C32.374 19.333 32.325 19.321 32.279 19.295L32.279 19.295zM31.279 18.72C31.141 18.639 31.095 18.464 31.173 18.326L31.173 18.326C31.25 18.188 31.429 18.142 31.564 18.22L31.564 18.22C31.702 18.301 31.751 18.476 31.67 18.614L31.67 18.614C31.618 18.706 31.521 18.758 31.423 18.758L31.423 18.758C31.374 18.758 31.325 18.746 31.279 18.72L31.279 18.72zM30.278 18.145C30.14 18.064 30.091 17.889 30.172 17.751L30.172 17.751C30.25 17.613 30.425 17.567 30.563 17.645L30.563 17.645C30.701 17.726 30.747 17.901 30.669 18.039L30.669 18.039C30.614 18.131 30.519 18.183 30.419 18.183L30.419 18.183C30.37 18.182 30.321 18.171 30.278 18.145L30.278 18.145zM29.274 17.57C29.136 17.489 29.09 17.314 29.168 17.176L29.168 17.176C29.248 17.038 29.424 16.992 29.562 17.07L29.562 17.07C29.697 17.151 29.746 17.326 29.668 17.464L29.668 17.464C29.614 17.556 29.516 17.608 29.418 17.608L29.418 17.608C29.369 17.607 29.32 17.596 29.274 17.57L29.274 17.57zM28.274 16.995C28.136 16.914 28.087 16.739 28.168 16.601L28.168 16.601C28.245 16.463 28.421 16.417 28.559 16.495L28.559 16.495C28.697 16.576 28.746 16.751 28.665 16.889L28.665 16.889C28.613 16.981 28.515 17.033 28.415 17.033L28.415 17.033C28.366 17.032 28.317 17.021 28.274 16.995L28.274 16.995zM27.27 16.42C27.135 16.339 27.086 16.164 27.164 16.026L27.164 16.026C27.245 15.888 27.42 15.842 27.558 15.92L27.558 15.92C27.696 16.001 27.742 16.176 27.664 16.314L27.664 16.314C27.609 16.406 27.515 16.458 27.414 16.458L27.414 16.458C27.365 16.457 27.316 16.446 27.27 16.42L27.27 16.42zM26.27 15.845C26.132 15.764 26.086 15.589 26.164 15.451L26.164 15.451C26.241 15.313 26.42 15.267 26.555 15.345L26.555 15.345C26.693 15.426 26.742 15.601 26.661 15.739L26.661 15.739C26.609 15.831 26.512 15.883 26.414 15.883L26.414 15.883C26.365 15.882 26.316 15.871 26.27 15.845L26.27 15.845zM25.266 15.27C25.131 15.189 25.082 15.014 25.162 14.876L25.162 14.876C25.24 14.738 25.415 14.692 25.553 14.77L25.553 14.77C25.691 14.851 25.737 15.026 25.659 15.164L25.659 15.164C25.607 15.256 25.509 15.308 25.409 15.308L25.409 15.308C25.361 15.307 25.313 15.296 25.266 15.27L25.266 15.27zM24.266 14.695C24.128 14.614 24.082 14.439 24.16 14.301L24.16 14.301C24.241 14.163 24.416 14.117 24.554 14.195L24.554 14.195C24.692 14.276 24.738 14.451 24.66 14.589L24.66 14.589C24.606 14.681 24.508 14.733 24.41 14.733L24.41 14.733C24.361 14.732 24.312 14.721 24.266 14.695L24.266 14.695zM23.265 14.12C23.127 14.039 23.078 13.864 23.159 13.726L23.159 13.726C23.236 13.588 23.412 13.542 23.55 13.62L23.55 13.62C23.688 13.701 23.737 13.876 23.656 14.014L23.656 14.014C23.604 14.106 23.507 14.158 23.406 14.158L23.406 14.158C23.357 14.157 23.308 14.146 23.265 14.12L23.265 14.12zM22.262 13.545C22.124 13.464 22.078 13.289 22.156 13.151L22.156 13.151C22.237 13.013 22.412 12.967 22.55 13.045L22.55 13.045C22.688 13.126 22.734 13.301 22.656 13.439L22.656 13.439C22.601 13.531 22.506 13.583 22.406 13.583L22.406 13.583C22.357 13.582 22.308 13.571 22.262 13.545L22.262 13.545zM21.261 12.97C21.123 12.889 21.074 12.714 21.155 12.576L21.155 12.576C21.235 12.438 21.411 12.392 21.546 12.47L21.546 12.47C21.684 12.551 21.733 12.726 21.652 12.864L21.652 12.864C21.6 12.956 21.503 13.008 21.405 13.008L21.405 13.008C21.356 13.007 21.307 12.996 21.261 12.97L21.261 12.97zM20.261 12.395C20.12 12.314 20.074 12.139 20.155 12.001L20.155 12.001C20.233 11.863 20.408 11.817 20.546 11.895L20.546 11.895C20.684 11.976 20.73 12.151 20.652 12.289L20.652 12.289C20.6 12.381 20.502 12.433 20.402 12.433L20.402 12.433C20.353 12.432 20.304 12.421 20.261 12.395L20.261 12.395zM19.257 11.82C19.119 11.739 19.073 11.564 19.151 11.426L19.151 11.426C19.232 11.288 19.407 11.242 19.545 11.32L19.545 11.32C19.683 11.401 19.729 11.576 19.651 11.714L19.651 11.714C19.597 11.806 19.499 11.858 19.401 11.858L19.401 11.858C19.352 11.857 19.303 11.845 19.257 11.82L19.257 11.82zM18.257 11.245C18.119 11.164 18.07 10.989 18.151 10.851L18.151 10.851C18.228 10.713 18.404 10.667 18.542 10.745L18.542 10.745C18.68 10.826 18.729 11.001 18.648 11.139L18.648 11.139C18.596 11.231 18.499 11.283 18.398 11.283L18.398 11.283C18.352 11.282 18.3 11.27 18.257 11.245L18.257 11.245zM17.253 10.67C17.115 10.589 17.069 10.414 17.147 10.276L17.147 10.276C17.228 10.138 17.403 10.092 17.541 10.17L17.541 10.17C17.679 10.251 17.725 10.426 17.647 10.564L17.647 10.564C17.592 10.656 17.497 10.708 17.397 10.708L17.397 10.708C17.348 10.707 17.299 10.695 17.253 10.67L17.253 10.67zM16.252 10.094C16.114 10.013 16.065 9.838 16.146 9.7L16.146 9.7C16.223 9.562 16.399 9.516 16.537 9.594L16.537 9.594C16.675 9.675 16.724 9.85 16.643 9.988L16.643 9.988C16.591 10.08 16.494 10.132 16.393 10.132L16.393 10.132C16.347 10.132 16.299 10.12 16.252 10.094L16.252 10.094zM15.252 9.519C15.114 9.438 15.065 9.263 15.143 9.125L15.143 9.125C15.224 8.987 15.399 8.941 15.537 9.019L15.537 9.019C15.675 9.1 15.721 9.275 15.643 9.413L15.643 9.413C15.591 9.505 15.493 9.557 15.393 9.557L15.393 9.557C15.344 9.557 15.295 9.545 15.252 9.519L15.252 9.519zM14.249 8.944C14.111 8.863 14.065 8.688 14.143 8.55L14.143 8.55C14.221 8.412 14.399 8.366 14.537 8.444L14.537 8.444C14.675 8.525 14.721 8.7 14.643 8.838L14.643 8.838C14.588 8.93 14.491 8.982 14.393 8.982L14.393 8.982C14.343 8.982 14.295 8.97 14.249 8.944L14.249 8.944zM13.248 8.369C13.11 8.288 13.061 8.113 13.142 7.975L13.142 7.975C13.219 7.837 13.395 7.791 13.533 7.869L13.533 7.869C13.671 7.95 13.72 8.125 13.639 8.263L13.639 8.263C13.587 8.355 13.49 8.407 13.389 8.407L13.389 8.407C13.34 8.407 13.291 8.395 13.248 8.369L13.248 8.369zM12.245 7.794C12.107 7.713 12.061 7.538 12.139 7.4L12.139 7.4C12.22 7.262 12.395 7.216 12.533 7.294L12.533 7.294C12.671 7.375 12.717 7.55 12.639 7.688L12.639 7.688C12.584 7.78 12.489 7.832 12.389 7.832L12.389 7.832C12.339 7.832 12.291 7.82 12.245 7.794L12.245 7.794zM11.244 7.219C11.106 7.138 11.057 6.963 11.138 6.825L11.138 6.825C11.216 6.687 11.394 6.641 11.529 6.719L11.529 6.719C11.667 6.8 11.716 6.975 11.635 7.113L11.635 7.113C11.583 7.205 11.486 7.257 11.388 7.257L11.388 7.257C11.339 7.257 11.29 7.245 11.244 7.219L11.244 7.219zM10.241 6.644C10.103 6.563 10.057 6.388 10.135 6.25L10.135 6.25C10.215 6.112 10.391 6.066 10.529 6.144L10.529 6.144C10.667 6.225 10.713 6.4 10.635 6.538L10.635 6.538C10.581 6.63 10.486 6.682 10.385 6.682L10.385 6.682C10.336 6.682 10.286 6.67 10.241 6.644L10.241 6.644zM9.24 6.069C9.102 5.988 9.056 5.813 9.134 5.675L9.134 5.675C9.215 5.537 9.39 5.491 9.528 5.569L9.528 5.569C9.663 5.65 9.712 5.825 9.634 5.963L9.634 5.963C9.579 6.055 9.482 6.107 9.384 6.107L9.384 6.107C9.335 6.107 9.286 6.095 9.24 6.069L9.24 6.069zM8.239 5.494C8.101 5.413 8.052 5.238 8.133 5.1L8.133 5.1C8.21 4.962 8.386 4.916 8.524 4.994L8.524 4.994C8.662 5.075 8.711 5.25 8.63 5.388L8.63 5.388C8.578 5.48 8.481 5.532 8.38 5.532L8.38 5.532C8.331 5.531 8.282 5.52 8.239 5.494L8.239 5.494zM7.236 4.919C7.098 4.838 7.052 4.663 7.13 4.525L7.13 4.525C7.211 4.387 7.386 4.341 7.524 4.419L7.524 4.419C7.662 4.5 7.708 4.675 7.63 4.813L7.63 4.813C7.575 4.905 7.48 4.957 7.38 4.957L7.38 4.957C7.331 4.956 7.282 4.945 7.236 4.919L7.236 4.919zM6.235 4.344C6.097 4.263 6.048 4.088 6.129 3.95L6.129 3.95C6.207 3.812 6.385 3.766 6.52 3.844L6.52 3.844C6.658 3.925 6.707 4.1 6.626 4.238L6.626 4.238C6.574 4.33 6.476 4.382 6.379 4.382L6.379 4.382C6.33 4.381 6.281 4.37 6.235 4.344L6.235 4.344zM5.232 3.769C5.097 3.688 5.048 3.513 5.126 3.375L5.126 3.375C5.206 3.237 5.382 3.191 5.52 3.269L5.52 3.269C5.658 3.35 5.704 3.525 5.626 3.663L5.626 3.663C5.572 3.755 5.477 3.807 5.376 3.807L5.376 3.807C5.327 3.806 5.278 3.795 5.232 3.769L5.232 3.769zM4.231 3.194C4.093 3.113 4.047 2.938 4.125 2.8L4.125 2.8C4.206 2.662 4.381 2.616 4.516 2.694L4.516 2.694C4.654 2.775 4.703 2.95 4.622 3.088L4.622 3.088C4.57 3.18 4.472 3.232 4.375 3.232L4.375 3.232C4.326 3.231 4.277 3.22 4.231 3.194L4.231 3.194zM3.231 2.619C3.093 2.538 3.044 2.363 3.125 2.225L3.125 2.225C3.202 2.087 3.378 2.041 3.516 2.119L3.516 2.119C3.654 2.2 3.703 2.375 3.622 2.513L3.622 2.513C3.57 2.605 3.473 2.657 3.372 2.657L3.372 2.657C3.323 2.656 3.274 2.645 3.231 2.619L3.231 2.619zM2.227 2.044C2.089 1.963 2.043 1.788 2.121 1.65L2.121 1.65C2.202 1.512 2.377 1.466 2.515 1.544L2.515 1.544C2.653 1.625 2.699 1.8 2.621 1.938L2.621 1.938C2.566 2.03 2.471 2.082 2.371 2.082L2.371 2.082C2.322 2.081 2.273 2.07 2.227 2.044L2.227 2.044zM1.227 1.469C1.089 1.388 1.04 1.213 1.121 1.075L1.121 1.075C1.199.937 1.374.891 1.512.969L1.512.969C1.65 1.05 1.699 1.225 1.618 1.363L1.618 1.363C1.566 1.455 1.468 1.507 1.368 1.507L1.368 1.507C1.322 1.506 1.27 1.495 1.227 1.469L1.227 1.469zM.367.931C.292.931.218.902.166.848.111.793.08.719.08.644.08.566.112.494.166.44.269.334.462.334.571.44.626.494.654.569.654.644.654.719.625.793.571.848.516.902.442.931.367.931L.367.931z"/>
    </g>
    <rect width=".575" height="43.991" x="39.212" y="44.644" stroke="#000000" stroke-width="2"/>
    <rect width="43.779" height=".575" x="36.685" y="33.401" stroke="#000000" stroke-width="2" transform="rotate(-29.947 58.574 33.9)"/>
    <rect width=".575" height="43.892" x="19.94" y="11.584" stroke="#000000" stroke-width="2" transform="rotate(-60.146 20.44 33.53)"/>
    <path stroke="#000000" stroke-width="2" d="M39.368,88.966 L39.224,88.883 L0.859,66.733 L0.859,22.267 L1.003,22.184 L39.368,0.034 L77.877,22.267 L77.877,66.734 L77.733,66.817 L39.368,88.966 L39.368,88.966 Z M1.434,66.401 L39.368,88.302 L77.302,66.401 L77.302,22.598 L39.368,0.697 L1.434,22.598 L1.434,66.401 L1.434,66.401 Z"/>
  </g>
</svg>
