<svg xmlns="http://www.w3.org/2000/svg" width="20" height="20" viewBox="0 0 20 20">
  <path fill="#FFFFFF" fill-rule="evenodd" d="M18,0 L2,0 C0.9,0 0,0.9 0,2 L0,18 C0,19.1 0.9,20 2,20 L18,20 C19.1,20 20,19.1 20,18 L20,2 C20,0.9 19.1,0 18,0 L18,0 Z M15.6,6.8 L15.6,7.2 C15.6,11 12.7,15.4 7.4,15.4 C5.8,15.4 4.3,14.9 3,14.1 L3.7,14.1 C5,14.1 6.3,13.6 7.3,12.9 C6,12.9 5,12 4.6,10.9 C4.8,10.9 5,11 5.1,11 C5.4,11 5.6,11 5.9,10.9 C4.6,10.6 3.6,9.5 3.6,8.1 L3.6,8.1 C4,8.3 4.4,8.4 4.9,8.5 C4.1,7.8 3.6,7 3.6,6 C3.6,5.5 3.7,5 4,4.6 C5.4,6.3 7.5,7.5 9.9,7.6 C9.9,7.4 9.8,7.2 9.8,6.9 C9.8,5.3 11.1,4 12.7,4 C13.5,4 14.3,4.3 14.8,4.9 C15.5,4.8 16.1,4.5 16.6,4.2 C16.4,4.9 15.9,5.4 15.3,5.8 C15.9,5.7 16.4,5.6 17,5.3 C16.6,5.9 16.1,6.4 15.6,6.8 L15.6,6.8 Z" opacity=".578"/>
</svg>
