<svg xmlns="http://www.w3.org/2000/svg" width="116" height="89" viewBox="0 0 116 89">
  <g fill="none" fill-rule="evenodd" transform="translate(1 2)">
    <path stroke="#000000" stroke-width="3" d="M66.5 44.5L66.5 85.5121918M26.5 28.5L66.5 43.5121918M26.5 28.5L.5 28.5M26.5 28.5L26.5 8.5M51.5 36.5L51.5 18.5M25.5 46.5L51.5 37.5M85.5 27.5L66.5 43.5121918M85.5 27.5L101.5 27.5M85.5 27.5L85.5 13.5" stroke-linecap="round"/>
    <circle cx="43" cy="67" r="10" fill="#FFFFFF" stroke="#000000" stroke-width="3"/>
    <circle cx="103" cy="10" r="10" fill="#FFFFFF" stroke="#000000" stroke-width="3"/>
    <polygon fill="#ffffff" points="43.024 62.48 40.714 63.362 40.714 65.252 42.506 64.58 42.506 70.194 40.714 70.194 40.714 72 46.146 72 46.146 70.194 44.55 70.194 44.55 62.48"/>
    <path fill="#ffffff" d="M101.548,7.134 L101.548,6.28 L99.826,6.28 L99.826,13 L101.772,13 L101.772,8.618 C102.052,8.212 102.584,7.764 103.27,7.764 C104.026,7.764 104.572,8.184 104.572,9.094 L104.572,13 L106.518,13 L106.518,8.842 C106.518,7.288 105.552,6.084 103.788,6.084 C102.822,6.084 102.066,6.532 101.548,7.134 L101.548,7.134 Z"/>
  </g>
</svg>
