<svg xmlns="http://www.w3.org/2000/svg" width="92" height="92" viewBox="0 0 92 92">
  <g fill="#000000" fill-rule="evenodd">
    <path d="M75,77 L16,77 C14.7826087,77 14,76.2173913 14,75 L14,16 C14,14.7826087 14.7826087,14 16,14 L75,14 C76.2173913,14 77,14.7826087 77,16 L77,75 C77,76.2173913 76.2173913,77 75,77 L75,77 Z M18,73 L73,73 L73,18 L18,18 L18,73 L18,73 Z"/>
    <path d="M63 65L28 65C26.8336508 65 26 64.1702128 26 63L26 28C26 26.8297872 26.8336508 26 28 26L63 26C64.1395245 26 64.9731753 26.8297872 65 28L65 63C65.1815881 63.962766 64.1395245 65 63 65L63 65zM30 61L61 61 61 30 30 30 30 61 30 61zM26 12C24.6 12 24 11.2 24 10L24 2C24 .8 24.6 0 26 0 26.4 0 27 .8 27 2L27 10C27 11.2 26.4 12 26 12L26 12zM35 12C33.6 12 33 11.2 33 10L33 2C33 .8 33.6 0 35 0 35.4 0 36 .8 36 2L36 10C36 11.2 35.4 12 35 12L35 12zM46 12C44.6 12 44 11.2 44 10L44 2C44 .8 44.6 0 46 0 46.4 0 47 .8 47 2L47 10C47 11.2 46.4 12 46 12L46 12zM56 12C54.6 12 54 11.2 54 10L54 2C54 .8 54.6 0 56 0 56.4 0 57 .8 57 2L57 10C57 11.2 56.25 12 56 12L56 12zM66 12C64.6 12 64 11.2 64 10L64 2C64 .8 64.6 0 66 0 66.4 0 67 .8 67 2L67 10C67 11.2 66.25 12 66 12L66 12zM26 92C24.6 92 24 91.2 24 90L24 82C24 80.8 24.6 80 26 80 26.4 80 27 80.8 27 82L27 90C27 91.2 26.4 92 26 92L26 92zM35 92C33.6 92 33 91.2 33 90L33 82C33 80.8 33.6 80 35 80 35.4 80 36 80.8 36 82L36 90C36 91.2 35.4 92 35 92L35 92zM46 92C44.6 92 44 91.2 44 90L44 82C44 80.8 44.6 80 46 80 46.4 80 47 80.8 47 82L47 90C47 91.2 46.4 92 46 92L46 92zM56 92C54.6 92 54 91.2 54 90L54 82C54 80.8 54.6 80 56 80 56.4 80 57 80.8 57 82L57 90C57 91.2 56.25 92 56 92L56 92zM66 92C64.6 92 64 91.2 64 90L64 82C64 80.8 64.6 80 66 80 66.4 80 67 80.8 67 82L67 90C67 91.2 66.25 92 66 92L66 92zM90 27L82 27C80.8 27 80 26.4 80 26 80 24.6 80.8 24 82 24L90 24C91.2 24 92 24.6 92 26 92 26.4 91.2 27 90 27L90 27zM90 36L82 36C80.8 36 80 35.4 80 35 80 33.6 80.8 33 82 33L90 33C91.2 33 92 33.6 92 35 92 35.4 91.2 36 90 36L90 36zM90 47L82 47C80.8 47 80 46.4 80 46 80 44.6 80.8 44 82 44L90 44C91.2 44 92 44.6 92 46 92 46.4 91.2 47 90 47L90 47zM90 57L82 57C80.8 57 80 56.4 80 56 80 54.6 80.8 54 82 54L90 54C91.2 54 92 54.6 92 56 92 56.25 91.2 57 90 57L90 57zM90 67L82 67C80.8 67 80 66.4 80 66 80 64.6 80.8 64 82 64L90 64C91.2 64 92 64.6 92 66 92 66.25 91.2 67 90 67L90 67zM10 27L2 27C.8 27 0 26.4 0 26 0 24.6.8 24 2 24L10 24C11.2 24 12 24.6 12 26 12 26.4 11.2 27 10 27L10 27zM10 36L2 36C.8 36 0 35.4 0 35 0 33.6.8 33 2 33L10 33C11.2 33 12 33.6 12 35 12 35.4 11.2 36 10 36L10 36zM10 47L2 47C.8 47 0 46.4 0 46 0 44.6.8 44 2 44L10 44C11.2 44 12 44.6 12 46 12 46.4 11.2 47 10 47L10 47zM10 57L2 57C.8 57 0 56.4 0 56 0 54.6.8 54 2 54L10 54C11.2 54 12 54.6 12 56 12 56.25 11.2 57 10 57L10 57zM10 67L2 67C.8 67 0 66.4 0 66 0 64.6.8 64 2 64L10 64C11.2 64 12 64.6 12 66 12 66.25 11.2 67 10 67L10 67z"/>
  </g>
</svg>
