<svg xmlns="http://www.w3.org/2000/svg" width="80" height="82" viewBox="0 0 80 82">
  <g fill="#000000" fill-rule="evenodd">
    <path d="M78.3819643,60.2196491 L76.2991071,59.8168421 C75.3155357,59.6298246 74.5489286,58.9968421 74.1873214,58.0617544 C73.8257143,57.1410526 73.9558929,56.1484211 74.5489286,55.357193 L75.8651786,53.5733333 C76.2846429,52.9978947 76.2267857,52.2066667 75.7205357,51.7031579 L72.8855357,48.8835088 C72.39375,48.394386 71.6271429,48.3224561 71.0485714,48.7108772 L69.2839286,49.8905263 C68.8066071,50.2070175 68.2569643,50.3796491 67.6928571,50.3796491 C66.4778571,50.3796491 65.10375,49.5452632 64.8578571,47.962807 L64.5251786,45.7905263 C64.4094643,45.085614 63.8019643,44.5677193 63.0932143,44.5677193 L59.0866071,44.5677193 C58.3923214,44.5677193 57.7992857,45.0568421 57.6691071,45.7329825 L57.1483929,48.4231579 C56.8591071,49.9336842 55.5139286,50.7249123 54.3423214,50.7249123 C53.7782143,50.7249123 53.2285714,50.5522807 52.75125,50.2357895 L50.4803571,48.7108772 C49.9017857,48.3224561 49.1351786,48.394386 48.6433929,48.8835088 L45.8083929,51.7031579 C45.3021429,52.2066667 45.2442857,52.9978947 45.66375,53.5733333 L46.98,55.357193 C47.5730357,56.162807 47.7032143,57.1410526 47.3416071,58.0617544 C46.98,58.9824561 46.1989286,59.6298246 45.2298214,59.8168421 L43.1469643,60.2196491 C42.4671429,60.3491228 41.9753571,60.9389474 41.9753571,61.6294737 L41.9753571,65.614386 C41.9753571,66.3192982 42.4960714,66.9235088 43.2048214,67.0385965 L45.3889286,67.3694737 C46.3725,67.5277193 47.1680357,68.1319298 47.5730357,69.0382456 C47.9780357,69.9445614 47.8767857,70.937193 47.3271429,71.757193 L46.1410714,73.5122807 C45.7505357,74.0877193 45.8228571,74.8501754 46.3146429,75.3392982 L49.1496429,78.1589474 C49.6558929,78.6624561 50.4514286,78.72 51.03,78.302807 L52.8235714,76.9936842 C53.3153571,76.6340351 53.8939286,76.4470175 54.5014286,76.4470175 C55.6730357,76.4470175 57.0182143,77.2382456 57.3075,78.7487719 L57.7125,80.8203509 C57.8426786,81.4964912 58.4357143,81.985614 59.13,81.985614 L63.1366071,81.985614 C63.8453571,81.985614 64.4528571,81.4677193 64.5685714,80.762807 L64.8,79.2235088 C65.0458929,77.6410526 66.4055357,76.8066667 67.635,76.8066667 C68.2280357,76.8066667 68.8066071,76.9936842 69.3128571,77.3677193 L70.57125,78.2884211 C71.1498214,78.705614 71.9453571,78.6480702 72.4516071,78.1445614 L75.2866071,75.3249123 C75.7783929,74.8357895 75.8507143,74.0733333 75.4601786,73.4978947 L74.2741071,71.742807 C73.71,70.922807 73.6232143,69.9301754 74.0282143,69.0238596 C74.4332143,68.1175439 75.22875,67.5133333 76.2123214,67.3550877 L78.3964286,67.0242105 C79.1051786,66.9091228 79.6258929,66.3049123 79.6258929,65.6 L79.6258929,61.6150877 C79.5535714,60.9533333 79.0617857,60.3491228 78.3819643,60.2196491 L78.3819643,60.2196491 Z M76.6607143,64.3915789 L75.6916071,64.5354386 C73.7389286,64.8375439 72.09,66.0891228 71.2944643,67.9017544 C70.4989286,69.714386 70.6869643,71.757193 71.8007143,73.397193 L72.3214286,74.1596491 L71.2076786,75.2673684 L70.9473214,75.0803509 C69.9492857,74.3610526 68.7776786,73.9726316 67.5626786,73.9726316 C64.69875,73.9726316 62.3121429,76.0154386 61.8782143,78.8207018 L61.8492857,79.122807 L60.2726786,79.122807 L60.0991071,78.2164912 C59.5783929,75.5263158 57.20625,73.5842105 54.4435714,73.5842105 C53.2285714,73.5842105 52.0569643,73.9726316 51.0589286,74.6919298 L50.2778571,75.2673684 L49.1641071,74.1596491 L49.6848214,73.397193 C50.7985714,71.7715789 50.9866071,69.714386 50.1910714,67.9017544 C49.3955357,66.1035088 47.7610714,64.8375439 45.7939286,64.5354386 L44.8392857,64.3915789 L44.8392857,62.8235088 L45.7505357,62.6508772 C47.7032143,62.2768421 49.2942857,60.9677193 50.0175,59.1263158 C50.7407143,57.2849123 50.4803571,55.2421053 49.30875,53.6596491 L48.7301786,52.882807 L49.8439286,51.7750877 L51.13125,52.6382456 C52.0858929,53.285614 53.1996429,53.6308772 54.3423214,53.6308772 C57.105,53.6308772 59.4771429,51.674386 59.9978571,48.9985965 L60.2871429,47.4880702 L61.86375,47.4880702 L62.0083929,48.4519298 C62.4423214,51.257193 64.8433929,53.3 67.6928571,53.3 C68.8355357,53.3 69.9492857,52.9547368 70.9039286,52.3073684 L71.6705357,51.7894737 L72.7842857,52.897193 L72.2057143,53.6740351 C71.0341071,55.2564912 70.77375,57.2992982 71.4969643,59.1407018 C72.2201786,60.9677193 73.81125,62.2912281 75.7639286,62.6652632 L76.6607143,62.8235088 L76.6607143,64.3915789 L76.6607143,64.3915789 Z"/>
    <path d="M60.75 56.1052632C56.7578571 56.1052632 53.5178571 59.3277193 53.5178571 63.2982456 53.5178571 67.2687719 56.7578571 70.4912281 60.75 70.4912281 64.7421429 70.4912281 67.9821429 67.2687719 67.9821429 63.2982456 67.9821429 59.3277193 64.7421429 56.1052632 60.75 56.1052632L60.75 56.1052632zM60.75 67.6140351C58.3633929 67.6140351 56.4107143 65.6719298 56.4107143 63.2982456 56.4107143 60.9245614 58.3633929 58.9824561 60.75 58.9824561 63.1366071 58.9824561 65.0892857 60.9245614 65.0892857 63.2982456 65.0892857 65.6719298 63.1366071 67.6140351 60.75 67.6140351L60.75 67.6140351zM36.1607143 58.9824561C34.9601786 58.9824561 33.7885714 58.9536842 32.6458929 58.9249123 31.9371429 58.8961404 31.2573214 58.8529825 30.5775 58.8098246 30.1580357 58.7810526 29.7241071 58.7666667 29.3046429 58.7378947 28.3933929 58.6659649 27.5110714 58.5940351 26.62875 58.4933333 26.4696429 58.4789474 26.2960714 58.4645614 26.1225 58.4501754 25.1244643 58.3350877 24.1408929 58.22 23.18625 58.0761404 23.1573214 58.0761404 23.1428571 58.0761404 23.1139286 58.0617544 18.2105357 57.3424561 14.0158929 56.2491228 10.7325 54.94 10.7180357 54.94 10.7035714 54.925614 10.6746429 54.925614 10.0671429 54.6810526 9.50303571 54.4364912 8.95339286 54.1775439 8.89553571 54.1487719 8.82321429 54.12 8.76535714 54.0912281 8.27357143 53.8610526 7.82517857 53.6164912 7.40571429 53.3719298 7.30446429 53.314386 7.20321429 53.2568421 7.10196429 53.1992982 6.72589286 52.9835088 6.39321429 52.7533333 6.06053571 52.5375439 5.93035714 52.4512281 5.80017857 52.3649123 5.68446429 52.2785965 5.40964286 52.077193 5.16375 51.8757895 4.91785714 51.66 4.78767857 51.5449123 4.6575 51.4298246 4.54178571 51.3147368 4.35375 51.1277193 4.18017857 50.9407018 4.02107143 50.7536842 3.90535714 50.6242105 3.80410714 50.4947368 3.70285714 50.3508772 3.57267857 50.1782456 3.47142857 49.9912281 3.37017857 49.8185965 3.29785714 49.6747368 3.22553571 49.5308772 3.16767857 49.3870175 3.09535714 49.214386 3.0375 49.0417544 2.99410714 48.8691228 2.95071429 48.6533333 2.89285714 48.4231579 2.89285714 48.1929825L2.89285714 36.3821053C2.93625 36.4252632 2.97964286 36.4540351 3.02303571 36.497193 3.34125 36.7705263 3.65946429 37.0438596 4.02107143 37.317193 9.47410714 41.417193 20.3657143 44.5964912 36.1607143 44.5964912 51.8833929 44.5964912 62.7605357 41.4315789 68.2280357 37.3603509 68.6619643 37.0438596 69.0525 36.7129825 69.4285714 36.3821053L69.4285714 36.3821053 69.4285714 41.7192982C69.4285714 42.5105263 70.0794643 43.1578947 70.875 43.1578947 71.6705357 43.1578947 72.3214286 42.5105263 72.3214286 41.7192982L72.3214286 31.6491228 72.3214286 30.9298246 72.3214286 13.6666667 72.3214286 12.9473684C72.3214286 12.702807 72.2346429 12.4870175 72.1189286 12.285614 70.4989286 6.09964912 58.0307143 0 36.1607143 0 14.3485714 0 1.88035714 6.07087719.216964286 12.2424561.0867857143 12.4582456 0 12.6884211 0 12.9473684L0 13.6666667 0 30.9298246 0 31.6491228 0 48.1929825 0 48.9122807 0 66.1754386C0 66.405614.0578571429 66.6214035.173571429 66.822807 1.8225 73.7712281 15.6358929 77.8712281 28.8273214 78.8494737L28.9430357 78.8494737C29.6951786 78.8494737 30.3316071 78.2740351 30.3894643 77.5259649 30.4473214 76.7347368 29.8542857 76.0442105 29.05875 75.9866667 12.96 74.7782456 3.58714286 69.9157895 2.93625 65.9452632 2.92178571 65.8733333 2.90732143 65.8157895 2.89285714 65.7582456L2.89285714 53.6596491C2.93625 53.702807 2.97964286 53.7315789 3.02303571 53.7747368 3.34125 54.0480702 3.65946429 54.3214035 4.02107143 54.5947368 9.47410714 58.6803509 20.3657143 61.8596491 36.1607143 61.8596491 36.95625 61.8596491 37.6071429 61.2122807 37.6071429 60.4210526 37.6071429 59.6298246 36.95625 58.9824561 36.1607143 58.9824561L36.1607143 58.9824561zM3.76071429 19.8526316C4.19464286 20.1978947 4.6575 20.5287719 5.17821429 20.8596491 5.27946429 20.9315789 5.40964286 20.9891228 5.51089286 21.0610526 5.93035714 21.32 6.37875 21.5789474 6.85607143 21.8378947 7.02964286 21.9242105 7.20321429 22.0249123 7.39125 22.1112281 7.92642857 22.3845614 8.47607143 22.6435088 9.05464286 22.8880702 9.15589286 22.9312281 9.24267857 22.974386 9.32946429 23.0175439 10.0092857 23.3052632 10.7325 23.5785965 11.4846429 23.8375439 11.6871429 23.9094737 11.9041071 23.9814035 12.1210714 24.0533333 12.7141071 24.2547368 13.3360714 24.4417544 13.9725 24.6287719 14.2039286 24.7007018 14.4208929 24.7582456 14.6667857 24.8301754 15.5057143 25.0603509 16.3880357 25.2905263 17.2992857 25.4919298 17.4294643 25.5207018 17.5596429 25.5494737 17.6898214 25.5782456 18.4998214 25.7508772 19.33875 25.9091228 20.2066071 26.0673684 20.4958929 26.1249123 20.7996429 26.1680702 21.0889286 26.2112281 21.9133929 26.3407018 22.7523214 26.4701754 23.6201786 26.5852632 23.8371429 26.6140351 24.0541071 26.642807 24.2855357 26.6715789 25.3558929 26.8010526 26.4696429 26.9161404 27.6123214 27.0024561 27.9016071 27.0312281 28.1908929 27.045614 28.4801786 27.06 29.3914286 27.1319298 30.3316071 27.1750877 31.28625 27.2182456 31.6333929 27.2326316 31.9805357 27.2470175 32.3421429 27.2614035 33.5716071 27.3045614 34.8444643 27.3333333 36.1607143 27.3333333 37.4769643 27.3333333 38.7498214 27.3045614 39.99375 27.2614035 40.3553571 27.2470175 40.7025 27.2326316 41.0496429 27.2182456 42.0042857 27.1750877 42.9444643 27.1175439 43.8557143 27.06 44.145 27.045614 44.4342857 27.0168421 44.7235714 27.0024561 45.86625 26.9017544 46.98 26.8010526 48.0503571 26.6715789 48.2817857 26.642807 48.4842857 26.6140351 48.7157143 26.5852632 49.5835714 26.4701754 50.4225 26.3550877 51.2469643 26.2112281 51.5507143 26.1680702 51.84 26.1105263 52.1292857 26.0673684 52.9971429 25.9091228 53.8360714 25.7508772 54.6460714 25.5782456 54.77625 25.5494737 54.9064286 25.5207018 55.0366071 25.4919298 55.9478571 25.2905263 56.8301786 25.0603509 57.6691071 24.8301754 57.9005357 24.7726316 58.1319643 24.7007018 58.3633929 24.6287719 58.9998214 24.4417544 59.6217857 24.2547368 60.2148214 24.0533333 60.4317857 23.9814035 60.64875 23.9094737 60.85125 23.8375439 61.6033929 23.5785965 62.3266071 23.3052632 63.0064286 23.0175439 63.1076786 22.974386 63.1944643 22.9312281 63.28125 22.8880702 63.8598214 22.6291228 64.4239286 22.3701754 64.9446429 22.1112281 65.1326786 22.0249123 65.30625 21.9242105 65.4798214 21.8378947 65.9571429 21.5789474 66.4055357 21.334386 66.825 21.0610526 66.9407143 20.9891228 67.0564286 20.9315789 67.1576786 20.8596491 67.6639286 20.5287719 68.1267857 20.1978947 68.5751786 19.8526316 68.6908929 19.7663158 68.7776786 19.68 68.8789286 19.5936842 69.0669643 19.4354386 69.2694643 19.2915789 69.4430357 19.1333333L69.4430357 30.9442105C69.4430357 31.174386 69.3851786 31.4045614 69.3273214 31.6491228 69.2839286 31.8217544 69.2260714 31.994386 69.15375 32.1670175 69.0958929 32.3108772 69.0235714 32.4547368 68.95125 32.5985965 68.85 32.7712281 68.74875 32.9582456 68.6185714 33.1308772 68.5173214 33.2603509 68.4160714 33.3898246 68.3003571 33.5336842 68.14125 33.7207018 67.9676786 33.9077193 67.7796429 34.0947368 67.6639286 34.2098246 67.53375 34.3249123 67.4035714 34.44 67.1721429 34.6414035 66.9117857 34.857193 66.6369643 35.0585965 66.52125 35.1449123 66.3910714 35.2312281 66.2608929 35.3175439 65.9282143 35.5477193 65.5955357 35.7635088 65.2194643 35.9792982 65.1182143 36.0368421 65.0169643 36.094386 64.9157143 36.1519298 64.4817857 36.3964912 64.0333929 36.6266667 63.5560714 36.8712281 63.4982143 36.9 63.4258929 36.9287719 63.3680357 36.9575439 62.8328571 37.2164912 62.2542857 37.4610526 61.6467857 37.705614 61.6323214 37.705614 61.6178571 37.72 61.5889286 37.72 58.3055357 39.0291228 54.0964286 40.1224561 49.2075 40.8417544 49.1785714 40.8417544 49.1641071 40.8417544 49.1351786 40.8561404 48.1805357 41 47.2114286 41.1150877 46.1989286 41.2301754 46.0398214 41.2445614 45.86625 41.2589474 45.6926786 41.2733333 44.8103571 41.3596491 43.9280357 41.4459649 43.0167857 41.5178947 42.5973214 41.5466667 42.1633929 41.5610526 41.7439286 41.5898246 41.0641071 41.6329825 40.3842857 41.6761404 39.6755357 41.7049123 38.5328571 41.6905263 37.36125 41.7192982 36.1607143 41.7192982 34.9601786 41.7192982 33.7885714 41.6905263 32.6458929 41.6617544 31.9371429 41.6329825 31.2573214 41.5898246 30.5775 41.5466667 30.1580357 41.5178947 29.7241071 41.5035088 29.3046429 41.4747368 28.3933929 41.402807 27.5110714 41.3308772 26.62875 41.2301754 26.4696429 41.2157895 26.2960714 41.2014035 26.1225 41.1870175 25.1244643 41.0719298 24.1408929 40.9568421 23.18625 40.8129825 23.1573214 40.8129825 23.1428571 40.8129825 23.1139286 40.7985965 18.2105357 40.0792982 14.0158929 38.9859649 10.7325 37.6768421 10.7180357 37.6768421 10.7035714 37.6624561 10.6746429 37.6624561 10.0671429 37.4178947 9.50303571 37.1733333 8.95339286 36.914386 8.89553571 36.885614 8.82321429 36.8568421 8.76535714 36.8280702 8.27357143 36.5978947 7.82517857 36.3533333 7.40571429 36.1087719 7.30446429 36.0512281 7.20321429 35.9936842 7.10196429 35.9361404 6.72589286 35.7203509 6.39321429 35.4901754 6.06053571 35.274386 5.93035714 35.1880702 5.80017857 35.1017544 5.68446429 35.0154386 5.40964286 34.8140351 5.16375 34.6126316 4.91785714 34.3968421 4.78767857 34.2817544 4.6575 34.1666667 4.54178571 34.0515789 4.35375 33.8645614 4.18017857 33.6775439 4.02107143 33.4905263 3.90535714 33.3610526 3.80410714 33.2315789 3.70285714 33.0877193 3.57267857 32.9150877 3.47142857 32.7280702 3.37017857 32.5554386 3.29785714 32.4115789 3.22553571 32.2677193 3.16767857 32.1238596 3.09535714 31.9512281 3.0375 31.7785965 2.99410714 31.6059649 2.95071429 31.3901754 2.89285714 31.16 2.89285714 30.9298246L2.89285714 19.1189474C3.06642857 19.277193 3.26892857 19.4354386 3.45696429 19.5792982 3.55821429 19.68 3.65946429 19.7663158 3.76071429 19.8526316L3.76071429 19.8526316zM36.1607143 2.87719298C55.7598214 2.87719298 69.4285714 8.55964912 69.4285714 13.6666667 69.4285714 18.7736842 55.7598214 24.4561404 36.1607143 24.4561404 16.5616071 24.4561404 2.89285714 18.7736842 2.89285714 13.6666667 2.89285714 8.55964912 16.5616071 2.87719298 36.1607143 2.87719298L36.1607143 2.87719298z"/>
  </g>
</svg>
