<svg xmlns="http://www.w3.org/2000/svg" width="20" height="20" viewBox="0 0 20 20">
  <path fill="#FFFFFF" fill-rule="evenodd" d="M18,0 L2,0 C0.9,0 0,0.9 0,2 L0,18 C0,19.1 0.9,20 2,20 L18,20 C19.1,20 20,19.1 20,18 L20,2 C20,0.9 19.1,0 18,0 L18,0 Z M6.1,16 L3,16 L3,7.4 L6.1,7.4 L6.1,16 L6.1,16 Z M4.5,6.4 L4.5,6.4 C3.6,6.4 3,5.8 3,5 C3,4.2 3.6,3.6 4.6,3.6 C5.5,3.6 6.1,4.2 6.1,5 C6.1,5.8 5.5,6.4 4.5,6.4 L4.5,6.4 Z M17,16 L13.9,16 L13.9,11.3 C13.9,10 13.1,9.7 12.8,9.7 C12.5,9.7 11.5,9.9 11.5,11.3 L11.5,16 L8.4,16 L8.4,7.4 L11.5,7.4 L11.5,8.6 C11.9,7.9 12.7,7.4 14.2,7.4 C15.7,7.4 16.9,8.6 16.9,11.3 L16.9,16 L17,16 Z" opacity=".578"/>
</svg>
