<svg xmlns="http://www.w3.org/2000/svg" width="21" height="26" viewBox="0 0 21 26">
  <path fill="#FFFFFF" fill-rule="evenodd" d="M960.333333,972 C954.6097,972 950,976.6097 950,982.333333 L950,987.5 C950,993.223633 954.6097,997.833333 960.333333,997.833333 C966.056967,997.833333 970.666667,993.223633 970.666667,987.5 L970.666667,982.333333 C970.666667,976.6097 966.056967,972 960.333333,972 L960.333333,972 Z M960.333333,974.583333 C964.6847,974.583333 968.083333,977.981967 968.083333,982.333333 L968.083333,987.5 C968.083333,991.851367 964.6847,995.25 960.333333,995.25 C955.981967,995.25 952.583333,991.851367 952.583333,987.5 L952.583333,982.333333 C952.583333,977.981967 955.981967,974.583333 960.333333,974.583333 L960.333333,974.583333 Z M960.333333,977.166667 L956.458333,981.041667 L959.041667,981.041667 L959.041667,983.625 L956.458333,983.625 L960.333333,987.5 L964.208333,983.625 L961.625,983.625 L961.625,981.041667 L964.208333,981.041667 L960.333333,977.166667 Z" transform="translate(-950 -972)"/>
</svg>
