<svg xmlns="http://www.w3.org/2000/svg" width="17" height="17" viewBox="0 0 17 17">
  <path fill="#C4D908" fill-rule="evenodd" d="M14.4486943,5.94965432 L14.4486943,2.54938568 L11.0484257,2.54938568 L8.49904,2.84217094e-14 L5.94965432,2.54938568 L2.54938568,2.54938568 L2.54938568,5.94965432 L6.82121026e-13,8.49904 L2.54938568,11.0484257 L2.54938568,14.4486943 L5.94965432,14.4486943 L8.49904,16.99808 L11.0484257,14.4486943 L14.4486943,14.4486943 L14.4486943,11.0484257 L16.99808,8.49904 L14.4486943,5.94965432 Z M8.49904,12.7469284 C6.11852563,12.7469284 4.25115161,10.8795544 4.25115161,8.49904 C4.25115161,6.11852563 6.11852563,4.25115161 8.49904,4.25115161 C10.8795544,4.25115161 12.7469284,6.11852563 12.7469284,8.49904 C12.7469284,10.8795544 10.8795544,12.7469284 8.49904,12.7469284 L8.49904,12.7469284 Z"/>
</svg>
