<svg xmlns="http://www.w3.org/2000/svg"><symbol id="Hydro" viewBox="0 0 11 16"><path fill-rule="evenodd" d="M0 10c0 3.52 2.437 6 6 6 2.563 0 5-2.48 5-6C11 6.64 5.5 0 6 0c-.5 0-6 6.64-6 10z"/></symbol><symbol id="icon-analysts" viewBox="0 0 80 93"><g fill-rule="evenodd"><path stroke="#000" stroke-width="2" d="M39.824 91l-.145-.084L1.25 68.729V24.188l.145-.084L39.824 1.917l38.574 22.271V68.73l-.145.084L39.824 91zM1.831 68.394l37.993 21.935 37.993-21.935v-43.87L39.824 2.588 1.831 24.523v43.871z"/><path stroke="#000" stroke-width="2" d="M39.669 90.955a.294.294 0 0 1-.206-.084.293.293 0 0 1 0-.412.3.3 0 0 1 .41 0 .296.296 0 0 1 .087.206.296.296 0 0 1-.087.206.296.296 0 0 1-.204.084zm-.841-1.16a.294.294 0 0 1 .108-.398.293.293 0 0 1 .398.108.292.292 0 0 1-.108.398.297.297 0 0 1-.145.038.297.297 0 0 1-.253-.146zm-.584-1.015a.285.285 0 0 1 .105-.395.29.29 0 0 1 .29.503.29.29 0 0 1-.395-.108zm-.587-1.015a.293.293 0 0 1 .107-.398.292.292 0 1 1 .291.506.291.291 0 0 1-.398-.108zm-.588-1.015a.292.292 0 1 1 .506-.291.294.294 0 0 1-.108.398.292.292 0 0 1-.398-.107zm-.585-1.012a.288.288 0 0 1 .105-.398.29.29 0 1 1 .29.503.29.29 0 0 1-.395-.105zm-.587-1.018a.288.288 0 0 1 .108-.395.29.29 0 0 1 .396.105.292.292 0 0 1-.105.398.288.288 0 0 1-.399-.108zm-.588-1.012a.292.292 0 0 1 .108-.398.293.293 0 0 1 .398.108.29.29 0 0 1-.108.395.3.3 0 0 1-.145.041.297.297 0 0 1-.253-.146zm-.584-1.015a.29.29 0 1 1 .503-.29.287.287 0 0 1-.108.396.289.289 0 0 1-.145.041.293.293 0 0 1-.25-.147zm-.588-1.015a.29.29 0 1 1 .504-.29.29.29 0 0 1-.105.396.271.271 0 0 1-.145.041.301.301 0 0 1-.254-.147zm-.587-1.015a.293.293 0 0 1 .108-.398.29.29 0 0 1 .395.107.289.289 0 0 1-.105.398.295.295 0 0 1-.398-.107zm-.585-1.015a.29.29 0 0 1 .105-.398.292.292 0 0 1 .398.108.29.29 0 0 1-.108.398.293.293 0 0 1-.395-.108zm-.587-1.015a.29.29 0 0 1 .108-.396.286.286 0 0 1 .395.105.29.29 0 0 1-.105.398.292.292 0 0 1-.398-.107zm-.585-1.015a.285.285 0 0 1 .105-.395.289.289 0 0 1 .398.105.292.292 0 0 1-.108.398.293.293 0 0 1-.395-.108zm-.587-1.015a.286.286 0 0 1 .105-.395.292.292 0 0 1 .398.105.292.292 0 0 1-.105.398.297.297 0 0 1-.145.038.285.285 0 0 1-.253-.146zm-.588-1.015a.291.291 0 0 1 .108-.396.286.286 0 0 1 .395.108.287.287 0 0 1-.105.396.3.3 0 0 1-.145.041.294.294 0 0 1-.253-.149zm-.584-1.012a.29.29 0 0 1 .503-.29.29.29 0 0 1-.108.396.3.3 0 0 1-.145.041.293.293 0 0 1-.25-.147zm-.588-1.015a.292.292 0 0 1 .105-.398.294.294 0 0 1 .398.108.29.29 0 0 1-.105.396.3.3 0 0 1-.145.041.297.297 0 0 1-.253-.147zm-.587-1.015a.29.29 0 1 1 .503-.29.285.285 0 0 1-.105.395.269.269 0 0 1-.145.041.295.295 0 0 1-.253-.146zm-.585-1.015a.29.29 0 0 1 .105-.398.293.293 0 0 1 .398.108.29.29 0 0 1-.108.395.271.271 0 0 1-.145.041.293.293 0 0 1-.25-.146zm-.587-1.015a.292.292 0 0 1 .105-.398.293.293 0 0 1 .398.108.292.292 0 0 1-.105.398.291.291 0 0 1-.398-.108zm-.588-1.015a.29.29 0 0 1 .108-.395.286.286 0 0 1 .396.105.289.289 0 0 1-.105.398.298.298 0 0 1-.399-.108zm-.584-1.015a.286.286 0 0 1 .105-.396.291.291 0 0 1 .29.503.287.287 0 0 1-.395-.107zm-.588-1.015a.288.288 0 0 1 .108-.396.289.289 0 0 1 .395.105.292.292 0 0 1-.105.398.287.287 0 0 1-.398-.107zm-.587-1.012a.292.292 0 0 1 .506-.293.293.293 0 0 1-.108.398.3.3 0 0 1-.145.041.295.295 0 0 1-.253-.146zm-.585-1.015a.29.29 0 1 1 .503-.29.287.287 0 0 1-.107.395.292.292 0 0 1-.145.041.292.292 0 0 1-.251-.146zm-.587-1.015a.29.29 0 1 1 .504-.29.288.288 0 0 1-.105.395.3.3 0 0 1-.145.041.295.295 0 0 1-.254-.146zm-.588-1.015a.292.292 0 0 1 .108-.398.29.29 0 0 1 .395.108.286.286 0 0 1-.105.396.3.3 0 0 1-.145.041.3.3 0 0 1-.253-.147zm-.584-1.015A.29.29 0 0 1 23.1 62a.293.293 0 0 1 .398.108.29.29 0 0 1-.108.398.287.287 0 0 1-.394-.107zm-.588-1.015a.29.29 0 1 1 .504-.291.292.292 0 0 1-.105.398.295.295 0 0 1-.399-.107zm-.587-1.015a.29.29 0 0 1 .108-.396.285.285 0 0 1 .395.105.29.29 0 0 1-.105.398.292.292 0 0 1-.398-.107zm-.585-1.015a.286.286 0 0 1 .105-.396.292.292 0 0 1 .293.503.305.305 0 0 1-.148.038.29.29 0 0 1-.25-.145zm-.587-1.015a.29.29 0 0 1 .108-.395.286.286 0 0 1 .396.105.29.29 0 0 1-.105.398.297.297 0 0 1-.145.038.29.29 0 0 1-.254-.146zm-.585-1.012a.292.292 0 0 1 .503-.293.292.292 0 0 1-.108.398.298.298 0 0 1-.145.041.291.291 0 0 1-.25-.146zm-.587-1.015a.29.29 0 1 1 .503-.29.29.29 0 0 1-.105.396.3.3 0 0 1-.145.041.294.294 0 0 1-.253-.147zm-.588-1.015a.293.293 0 0 1 .108-.398.29.29 0 0 1 .395.108.286.286 0 0 1-.105.396.3.3 0 0 1-.145.041.298.298 0 0 1-.253-.147zm-.584-1.015a.29.29 0 0 1 .105-.398.29.29 0 1 1 .29.503.3.3 0 0 1-.145.041.29.29 0 0 1-.25-.146zm-.588-1.015a.289.289 0 0 1 .105-.398.293.293 0 0 1 .293.506.293.293 0 0 1-.398-.108zm-.587-1.015a.29.29 0 0 1 .108-.396.286.286 0 0 1 .395.105.29.29 0 0 1-.105.398.292.292 0 0 1-.398-.107zm-.585-1.015a.287.287 0 0 1 .105-.396.29.29 0 0 1 .398.105.293.293 0 0 1-.108.398.288.288 0 0 1-.395-.107zm-.587-1.015a.288.288 0 0 1 .105-.395.292.292 0 0 1 .293.503.291.291 0 0 1-.398-.108zm-.588-1.015a.292.292 0 1 1 .506-.291.293.293 0 0 1-.108.398.297.297 0 0 1-.145.038.288.288 0 0 1-.253-.145zm-.584-1.012a.29.29 0 1 1 .503-.29.289.289 0 0 1-.108.396.292.292 0 0 1-.145.041.293.293 0 0 1-.25-.147zm-.588-1.015a.292.292 0 0 1 .105-.398.293.293 0 0 1 .398.108.29.29 0 0 1-.105.396.3.3 0 0 1-.145.041.298.298 0 0 1-.253-.147zm-.587-1.015a.293.293 0 0 1 .108-.398.29.29 0 0 1 .396.108.286.286 0 0 1-.105.395.3.3 0 0 1-.145.041.295.295 0 0 1-.254-.146zm-.585-1.015a.289.289 0 0 1 .105-.398.293.293 0 0 1 .398.108.287.287 0 0 1-.108.395.264.264 0 0 1-.145.041.29.29 0 0 1-.25-.146zm-.587-1.015a.29.29 0 0 1 .107-.398.292.292 0 1 1 .291.506.295.295 0 0 1-.398-.108zm-.585-1.015a.286.286 0 0 1 .105-.395.286.286 0 0 1 .396.105.29.29 0 0 1-.105.398.29.29 0 0 1-.396-.108zm-.587-1.015a.286.286 0 0 1 .105-.396.29.29 0 1 1 .29.503.287.287 0 0 1-.395-.107zm-.588-1.015a.289.289 0 0 1 .108-.396.288.288 0 0 1 .396.105.289.289 0 0 1-.105.398.295.295 0 0 1-.399-.107zm-.587-1.012a.292.292 0 0 1 .108-.398.288.288 0 0 1 .395.105.289.289 0 0 1-.105.398.3.3 0 0 1-.145.041.295.295 0 0 1-.253-.146zm-.585-1.015a.29.29 0 0 1 .503-.29.286.286 0 0 1-.108.395.289.289 0 0 1-.145.041.291.291 0 0 1-.25-.146zm-.587-1.015a.293.293 0 0 1 .108-.398.29.29 0 0 1 .396.107.287.287 0 0 1-.105.396.3.3 0 0 1-.145.041.295.295 0 0 1-.254-.146zm-.585-1.015a.289.289 0 0 1 .105-.398.293.293 0 0 1 .398.108.29.29 0 0 1-.107.395.3.3 0 0 1-.145.041.29.29 0 0 1-.251-.146zm-.587-1.015a.29.29 0 0 1 .105-.398.292.292 0 1 1 .293.505.297.297 0 0 1-.145.038.288.288 0 0 1-.253-.145zm-.588-1.015a.286.286 0 0 1 .108-.395.285.285 0 0 1 .395.105.289.289 0 0 1-.105.398.295.295 0 0 1-.398-.108zm-.584-1.015a.289.289 0 0 1 .105-.398.293.293 0 0 1 .398.107.292.292 0 0 1-.108.398.287.287 0 0 1-.395-.107zm-.588-1.015a.287.287 0 0 1 .105-.395.29.29 0 0 1 .398.105.292.292 0 0 1-.105.398.293.293 0 0 1-.398-.108zm-.587-1.015a.289.289 0 0 1 .108-.395.286.286 0 0 1 .395.105.289.289 0 0 1-.105.398.297.297 0 0 1-.145.038.289.289 0 0 1-.253-.146zm-.585-1.015a.287.287 0 0 1 .105-.395.292.292 0 0 1 .398.105.293.293 0 0 1-.108.398.3.3 0 0 1-.145.041.288.288 0 0 1-.25-.149zm-.587-1.012a.291.291 0 0 1 .503-.29.289.289 0 0 1-.105.395.3.3 0 0 1-.145.041.291.291 0 0 1-.253-.146zm-.588-1.015a.293.293 0 0 1 .107-.398.29.29 0 0 1 .29.503.298.298 0 0 1-.145.041.295.295 0 0 1-.252-.146zm-.584-1.015a.29.29 0 0 1 .105-.398.293.293 0 0 1 .398.108.29.29 0 0 1-.108.395.264.264 0 0 1-.145.041.29.29 0 0 1-.25-.146zm-.588-1.015a.292.292 0 0 1 .105-.398.293.293 0 0 1 .398.108.292.292 0 0 1-.105.398.295.295 0 0 1-.398-.108zm-.587-1.015a.293.293 0 0 1 .108-.398.29.29 0 0 1 .396.108.289.289 0 0 1-.105.398.297.297 0 0 1-.145.038.3.3 0 0 1-.254-.146zm-.341-.864a.3.3 0 0 1-.206-.084.293.293 0 0 1 0-.412.298.298 0 0 1 .41 0 .296.296 0 0 1 .087.206.294.294 0 0 1-.291.29zm74.807-.291a.29.29 0 0 1 .291-.291c.163 0 .291.128.291.291a.29.29 0 0 1-.291.291.292.292 0 0 1-.291-.291zm-1.155 0a.29.29 0 0 1 .291-.291.29.29 0 0 1 .291.291c0 .16-.131.291-.291.291a.292.292 0 0 1-.291-.291zm-1.154 0a.29.29 0 0 1 .291-.291.29.29 0 0 1 .291.291c0 .16-.131.291-.291.291a.292.292 0 0 1-.291-.291zm-1.158 0a.29.29 0 0 1 .291-.291c.163 0 .291.128.291.291a.29.29 0 0 1-.291.291.292.292 0 0 1-.291-.291zm-1.154 0a.29.29 0 0 1 .291-.291.29.29 0 0 1 .291.291c0 .16-.131.291-.291.291a.292.292 0 0 1-.291-.291zm-1.155 0a.29.29 0 0 1 .291-.291.29.29 0 0 1 .291.291c0 .16-.131.291-.291.291a.292.292 0 0 1-.291-.291zm-1.154 0a.29.29 0 0 1 .291-.291.29.29 0 0 1 .291.291.291.291 0 0 1-.582 0zm-1.158 0a.29.29 0 0 1 .291-.291c.163 0 .291.128.291.291a.29.29 0 0 1-.291.291.292.292 0 0 1-.291-.291zm-1.154 0a.29.29 0 0 1 .291-.291.29.29 0 0 1 .291.291c0 .16-.131.291-.291.291a.292.292 0 0 1-.291-.291zm-1.155 0a.29.29 0 0 1 .291-.291.29.29 0 0 1 .291.291c0 .16-.131.291-.291.291a.292.292 0 0 1-.291-.291zm-1.155 0c0-.163.128-.291.291-.291a.29.29 0 0 1 .291.291c0 .16-.131.291-.291.291a.29.29 0 0 1-.291-.291zm-1.157 0a.29.29 0 0 1 .291-.291c.163 0 .291.128.291.291a.29.29 0 0 1-.291.291.292.292 0 0 1-.291-.291zm-1.155 0a.29.29 0 0 1 .291-.291.29.29 0 0 1 .291.291c0 .16-.131.291-.291.291a.292.292 0 0 1-.291-.291zm-1.154 0a.29.29 0 0 1 .291-.291.29.29 0 0 1 .291.291c0 .16-.131.291-.291.291a.292.292 0 0 1-.291-.291zm-1.155 0c0-.163.128-.291.291-.291a.29.29 0 0 1 .291.291c0 .16-.131.291-.291.291a.29.29 0 0 1-.291-.291zm-1.157 0a.29.29 0 0 1 .291-.291.29.29 0 0 1 .291.291c0 .16-.131.291-.291.291a.292.292 0 0 1-.291-.291zm-1.155 0a.29.29 0 0 1 .291-.291.29.29 0 0 1 .291.291c0 .16-.131.291-.291.291a.292.292 0 0 1-.291-.291zm-1.154 0a.29.29 0 0 1 .291-.291.29.29 0 0 1 .291.291c0 .16-.131.291-.291.291a.292.292 0 0 1-.291-.291zm-1.158 0a.29.29 0 0 1 .291-.291c.163 0 .291.128.291.291a.29.29 0 0 1-.291.291.292.292 0 0 1-.291-.291zm-1.155 0a.29.29 0 0 1 .291-.291.29.29 0 0 1 .291.291c0 .16-.131.291-.291.291a.292.292 0 0 1-.291-.291zm-1.154 0a.29.29 0 0 1 .291-.291.29.29 0 0 1 .291.291c0 .16-.131.291-.291.291a.292.292 0 0 1-.291-.291zm-1.155 0a.29.29 0 0 1 .291-.291.29.29 0 0 1 .291.291c0 .16-.131.291-.291.291a.292.292 0 0 1-.291-.291zm-1.157 0a.29.29 0 0 1 .291-.291c.163 0 .291.128.291.291a.29.29 0 0 1-.291.291.292.292 0 0 1-.291-.291zm-1.155 0a.29.29 0 0 1 .291-.291.29.29 0 0 1 .291.291c0 .16-.131.291-.291.291a.292.292 0 0 1-.291-.291zm-1.154 0a.29.29 0 0 1 .291-.291.29.29 0 0 1 .291.291.291.291 0 0 1-.582 0zm-1.155 0c0-.163.128-.291.291-.291a.29.29 0 0 1 .291.291c0 .16-.131.291-.291.291a.29.29 0 0 1-.291-.291zm-1.157 0a.29.29 0 0 1 .291-.291c.163 0 .291.128.291.291a.291.291 0 0 1-.582 0zm-1.155 0a.29.29 0 0 1 .291-.291.29.29 0 0 1 .291.291c0 .16-.131.291-.291.291a.292.292 0 0 1-.291-.291zm-1.155 0c0-.163.128-.291.291-.291a.29.29 0 0 1 .291.291c0 .16-.131.291-.291.291a.29.29 0 0 1-.291-.291zm-1.154 0c0-.163.128-.291.291-.291.16 0 .288.128.288.291a.29.29 0 0 1-.579 0zm-1.158 0a.29.29 0 0 1 .291-.291.29.29 0 0 1 .291.291c0 .16-.131.291-.291.291a.292.292 0 0 1-.291-.291zm-1.154 0a.29.29 0 0 1 .291-.291.29.29 0 0 1 .291.291c0 .16-.131.291-.291.291a.292.292 0 0 1-.291-.291zm-1.155 0c0-.163.128-.291.291-.291a.29.29 0 0 1 .291.291c0 .16-.131.291-.291.291a.29.29 0 0 1-.291-.291zm-1.155 0c0-.163.128-.291.291-.291a.29.29 0 0 1 .291.291.29.29 0 1 1-.582 0zm-1.157 0a.29.29 0 0 1 .291-.291.29.29 0 0 1 .291.291c0 .16-.131.291-.291.291a.292.292 0 0 1-.291-.291zm-1.154 0a.29.29 0 0 1 .291-.291.29.29 0 0 1 .291.291.291.291 0 0 1-.582 0zm-1.155 0c0-.163.128-.291.291-.291a.29.29 0 0 1 .291.291c0 .16-.131.291-.291.291a.29.29 0 0 1-.291-.291zm-1.158 0a.29.29 0 0 1 .291-.291c.163 0 .291.128.291.291a.29.29 0 0 1-.291.291.292.292 0 0 1-.291-.291zm-1.154 0a.29.29 0 0 1 .291-.291.29.29 0 0 1 .291.291c0 .16-.131.291-.291.291a.292.292 0 0 1-.291-.291zm-1.155 0c0-.163.128-.291.291-.291a.29.29 0 0 1 .291.291c0 .16-.131.291-.291.291a.29.29 0 0 1-.291-.291zm-1.157 0a.29.29 0 0 1 .291-.291c.163 0 .291.128.291.291a.291.291 0 0 1-.582 0zm-1.155 0a.29.29 0 0 1 .291-.291.29.29 0 0 1 .291.291c0 .16-.131.291-.291.291a.292.292 0 0 1-.291-.291zm-1.155 0a.29.29 0 0 1 .291-.291.29.29 0 0 1 .291.291c0 .16-.131.291-.291.291a.292.292 0 0 1-.291-.291zm-1.154 0c0-.163.128-.291.291-.291a.29.29 0 0 1 .291.291c0 .16-.131.291-.291.291a.29.29 0 0 1-.291-.291zm-1.158 0a.29.29 0 0 1 .291-.291.29.29 0 0 1 .291.291c0 .16-.131.291-.291.291a.292.292 0 0 1-.291-.291zm-1.154 0a.29.29 0 0 1 .291-.291.29.29 0 0 1 .291.291c0 .16-.131.291-.291.291a.292.292 0 0 1-.291-.291zm-1.155 0a.29.29 0 0 1 .291-.291.29.29 0 0 1 .291.291c0 .16-.131.291-.291.291a.292.292 0 0 1-.291-.291zm-1.157 0a.29.29 0 0 1 .291-.291c.163 0 .291.128.291.291a.29.29 0 0 1-.291.291.292.292 0 0 1-.291-.291zm-1.155 0a.29.29 0 0 1 .291-.291.29.29 0 0 1 .291.291c0 .16-.131.291-.291.291a.292.292 0 0 1-.291-.291zm-1.154 0a.29.29 0 0 1 .291-.291.29.29 0 0 1 .291.291.291.291 0 0 1-.582 0zm-1.155 0a.29.29 0 0 1 .291-.291.29.29 0 0 1 .291.291c0 .16-.131.291-.291.291a.292.292 0 0 1-.291-.291zm-1.157 0a.29.29 0 0 1 .291-.291c.163 0 .291.128.291.291a.291.291 0 0 1-.582 0zm-1.155 0a.29.29 0 0 1 .291-.291.29.29 0 0 1 .291.291c0 .16-.131.291-.291.291a.292.292 0 0 1-.291-.291zm-1.155 0a.29.29 0 0 1 .291-.291.29.29 0 0 1 .291.291c0 .16-.131.291-.291.291a.292.292 0 0 1-.291-.291zm-1.154 0c0-.163.128-.291.291-.291a.29.29 0 0 1 .291.291c0 .16-.131.291-.291.291a.29.29 0 0 1-.291-.291zm-1.158 0a.29.29 0 0 1 .291-.291c.163 0 .291.128.291.291a.29.29 0 0 1-.291.291.292.292 0 0 1-.291-.291zm-1.154 0a.29.29 0 0 1 .291-.291.29.29 0 0 1 .291.291c0 .16-.131.291-.291.291a.292.292 0 0 1-.291-.291zm-1.155 0c0-.163.128-.291.291-.291a.29.29 0 0 1 .291.291c0 .16-.131.291-.291.291a.29.29 0 0 1-.291-.291zm-1.154 0c0-.163.128-.291.291-.291a.29.29 0 0 1 .291.291c0 .16-.131.291-.291.291a.29.29 0 0 1-.291-.291zm-1.158 0a.29.29 0 0 1 .291-.291.29.29 0 0 1 .291.291c0 .16-.131.291-.291.291a.292.292 0 0 1-.291-.291zm-1.155 0a.29.29 0 0 1 .291-.291.29.29 0 0 1 .291.291c0 .16-.131.291-.291.291a.292.292 0 0 1-.291-.291zm-1.154 0c0-.163.128-.291.291-.291a.29.29 0 0 1 .291.291c0 .16-.131.291-.291.291a.29.29 0 0 1-.291-.291zm-1.155 0c0-.163.128-.291.291-.291a.29.29 0 0 1 .291.291c0 .16-.131.291-.291.291a.29.29 0 0 1-.291-.291zm-1.157 0a.29.29 0 0 1 .291-.291.29.29 0 0 1 .291.291c0 .16-.131.291-.291.291a.292.292 0 0 1-.291-.291zm-1.155 0a.29.29 0 0 1 .291-.291.29.29 0 0 1 .291.291c0 .16-.131.291-.291.291a.292.292 0 0 1-.291-.291zm75.391.291a.286.286 0 0 1-.206-.087.282.282 0 0 1-.084-.204c0-.079.029-.154.084-.206a.298.298 0 0 1 .41 0 .286.286 0 0 1 0 .412.29.29 0 0 1-.204.085z"/><path stroke="#000" stroke-width="2" d="M77.951 25.007a.294.294 0 0 1-.29-.291c0-.076.032-.151.084-.206a.304.304 0 0 1 .413 0 .293.293 0 0 1-.207.497zm-37.849 64.91a.291.291 0 0 1-.105-.398.29.29 0 0 1 .503.29.29.29 0 0 1-.253.145.285.285 0 0 1-.145-.037zm.579-1.001a.291.291 0 0 1-.105-.398.293.293 0 0 1 .398-.105.292.292 0 1 1-.148.543.279.279 0 0 1-.145-.04zm.582-.997a.294.294 0 0 1-.108-.398.291.291 0 0 1 .398-.105.29.29 0 0 1 .108.395.295.295 0 0 1-.253.145.282.282 0 0 1-.145-.037zm.578-1.001a.29.29 0 0 1-.105-.398.29.29 0 0 1 .398-.105.296.296 0 0 1 .105.398.292.292 0 0 1-.253.145.279.279 0 0 1-.145-.04zm.579-.997a.293.293 0 0 1-.105-.398.294.294 0 0 1 .398-.107.29.29 0 0 1 .105.398.288.288 0 0 1-.25.145.308.308 0 0 1-.148-.038zm.582-1.001a.29.29 0 0 1-.105-.398.29.29 0 0 1 .398-.105.293.293 0 0 1 .105.398.296.296 0 0 1-.253.143.286.286 0 0 1-.145-.038zm.578-1a.292.292 0 0 1-.105-.395.294.294 0 0 1 .398-.108.29.29 0 0 1 .105.398.287.287 0 0 1-.25.145.302.302 0 0 1-.148-.04zm.582-.998a.291.291 0 0 1-.105-.398.29.29 0 0 1 .398-.105.296.296 0 0 1 .105.398.296.296 0 0 1-.253.143.286.286 0 0 1-.145-.038zm.579-1a.295.295 0 0 1-.105-.398.295.295 0 0 1 .398-.105.29.29 0 0 1 .105.398.287.287 0 0 1-.25.145.3.3 0 0 1-.148-.04zm.582-.998a.295.295 0 0 1-.108-.398.291.291 0 0 1 .398-.105c.14.078.186.256.105.395a.287.287 0 0 1-.25.145.273.273 0 0 1-.145-.037zm.578-1a.293.293 0 0 1-.105-.398.293.293 0 0 1 .398-.105.293.293 0 0 1 .105.398.289.289 0 0 1-.25.143.3.3 0 0 1-.148-.038zm.582-1a.29.29 0 0 1-.108-.396.295.295 0 0 1 .398-.108.291.291 0 0 1 .105.398.288.288 0 0 1-.25.145.26.26 0 0 1-.145-.039zm.579-.998a.29.29 0 0 1-.105-.398.29.29 0 0 1 .398-.105.293.293 0 0 1 .105.398.294.294 0 0 1-.398.105zm.582-1a.291.291 0 0 1-.108-.396.294.294 0 0 1 .398-.107.29.29 0 0 1 .105.398.288.288 0 0 1-.395.105zm.578-.998a.291.291 0 0 1-.105-.398.287.287 0 0 1 .395-.105c.14.079.189.256.108.396a.292.292 0 0 1-.253.145.297.297 0 0 1-.145-.038zm.579-1a.293.293 0 0 1-.105-.398.293.293 0 0 1 .398-.105.29.29 0 0 1 .105.398.287.287 0 0 1-.25.145.307.307 0 0 1-.148-.04zm.582-1.001a.288.288 0 0 1-.105-.396.287.287 0 0 1 .395-.105.29.29 0 0 1 .108.396.292.292 0 0 1-.253.145.26.26 0 0 1-.145-.04zm.578-.998a.293.293 0 0 1-.105-.398.293.293 0 0 1 .398-.105.29.29 0 0 1 .105.398.288.288 0 0 1-.25.142.279.279 0 0 1-.148-.037zm.582-1a.291.291 0 0 1 .291-.504c.14.082.186.259.108.398a.295.295 0 0 1-.253.145.253.253 0 0 1-.146-.039zm.579-.998a.29.29 0 0 1-.105-.398.29.29 0 0 1 .398-.105c.14.078.186.259.105.396a.29.29 0 0 1-.253.145.274.274 0 0 1-.145-.038zm.581-1a.29.29 0 0 1-.105-.398.29.29 0 0 1 .396-.105.291.291 0 0 1 .105.398.287.287 0 0 1-.25.145.282.282 0 0 1-.146-.04zm.579-.997a.29.29 0 0 1-.105-.398.29.29 0 0 1 .398-.105.293.293 0 0 1 .105.396.292.292 0 0 1-.253.145.308.308 0 0 1-.145-.038zm.582-1.001a.294.294 0 0 1-.108-.398.291.291 0 0 1 .503.293.286.286 0 0 1-.395.105zm.578-1a.287.287 0 0 1-.105-.395.29.29 0 1 1 .503.291.292.292 0 0 1-.253.145.28.28 0 0 1-.145-.041zm.579-.998a.291.291 0 0 1 .293-.503.29.29 0 0 1 .105.398.285.285 0 0 1-.25.143.308.308 0 0 1-.148-.038zm.582-1a.289.289 0 0 1-.105-.396.294.294 0 0 1 .398-.108.296.296 0 0 1 .105.398.292.292 0 0 1-.253.145.26.26 0 0 1-.145-.039zm.579-.998a.291.291 0 0 1 .293-.503c.14.081.186.259.105.395a.288.288 0 0 1-.25.145.293.293 0 0 1-.148-.037zm.581-1a.29.29 0 1 1 .291-.503.295.295 0 0 1 .108.398.292.292 0 0 1-.253.145.3.3 0 0 1-.146-.04zm.579-1.001a.29.29 0 0 1-.105-.396.291.291 0 0 1 .398-.105.287.287 0 0 1 .105.395.287.287 0 0 1-.25.145.262.262 0 0 1-.148-.039zm.582-.997a.29.29 0 1 1 .29-.503.291.291 0 0 1 .105.398.287.287 0 0 1-.25.145.296.296 0 0 1-.145-.04zm.578-1.001a.288.288 0 0 1-.105-.395.294.294 0 0 1 .398-.108.292.292 0 1 1-.148.543.289.289 0 0 1-.145-.04zm.582-.997a.295.295 0 0 1-.108-.398.29.29 0 0 1 .398-.105.29.29 0 0 1 .105.398.292.292 0 0 1-.25.143.288.288 0 0 1-.145-.038zm.579-1.001a.287.287 0 0 1-.105-.395.294.294 0 0 1 .398-.108.292.292 0 1 1-.148.543.286.286 0 0 1-.145-.04zm.582-.997a.295.295 0 0 1-.108-.398.291.291 0 0 1 .398-.105.29.29 0 0 1 .105.398.293.293 0 0 1-.25.143.286.286 0 0 1-.145-.038zm.578-1.001a.29.29 0 1 1 .291-.503.295.295 0 0 1 .108.398.292.292 0 0 1-.253.145.28.28 0 0 1-.146-.04zm.582-1a.288.288 0 0 1-.108-.396.291.291 0 0 1 .398-.105.287.287 0 0 1 .105.395.287.287 0 0 1-.25.145.245.245 0 0 1-.145-.039zm.579-.998a.29.29 0 1 1 .291-.503.294.294 0 0 1 .107.398.29.29 0 0 1-.253.143.284.284 0 0 1-.145-.038zm.578-1a.29.29 0 0 1-.105-.396.294.294 0 0 1 .398-.108.291.291 0 0 1 .105.398.288.288 0 0 1-.253.145.26.26 0 0 1-.145-.039zm.582-.998a.291.291 0 0 1-.105-.398.291.291 0 0 1 .503.291.295.295 0 0 1-.253.145.286.286 0 0 1-.145-.038zm.579-1a.291.291 0 0 1-.105-.398.293.293 0 0 1 .398-.105.292.292 0 1 1-.148.543.296.296 0 0 1-.145-.04zm.581-.998a.291.291 0 0 1-.105-.398.287.287 0 0 1 .396-.105c.14.079.186.256.105.396a.288.288 0 0 1-.25.145.28.28 0 0 1-.146-.038zm.579-1a.29.29 0 0 1-.105-.398.293.293 0 0 1 .398-.105.295.295 0 0 1 .105.398.289.289 0 0 1-.398.105zm.582-1a.291.291 0 0 1-.108-.396.291.291 0 0 1 .398-.105.288.288 0 0 1 .105.396.288.288 0 0 1-.25.145.26.26 0 0 1-.145-.04zm.579-.998a.29.29 0 0 1-.105-.398.292.292 0 0 1 .398-.105.296.296 0 0 1 .105.398.289.289 0 0 1-.253.142.282.282 0 0 1-.145-.037zm.578-1a.293.293 0 0 1-.105-.396.294.294 0 0 1 .398-.108.291.291 0 0 1 .105.398.287.287 0 0 1-.25.145.272.272 0 0 1-.148-.039zm.582-.998a.29.29 0 0 1-.105-.398.291.291 0 0 1 .503.291.292.292 0 0 1-.253.145.297.297 0 0 1-.145-.038zm.579-1a.293.293 0 0 1-.105-.398.293.293 0 0 1 .398-.105.293.293 0 0 1 .105.398.287.287 0 0 1-.25.145.307.307 0 0 1-.148-.04zm.581-.998a.291.291 0 0 1-.105-.398.29.29 0 0 1 .395-.108c.14.082.186.259.108.398a.295.295 0 0 1-.253.145.285.285 0 0 1-.145-.037zm.579-1.001a.293.293 0 0 1-.105-.398.293.293 0 0 1 .398-.105.29.29 0 1 1-.145.543.282.282 0 0 1-.148-.04zm.582-.997a.29.29 0 1 1 .29-.503.288.288 0 0 1 .105.396.288.288 0 0 1-.25.145.294.294 0 0 1-.145-.038zm.579-1.001a.293.293 0 0 1-.105-.398.291.291 0 0 1 .503.293.29.29 0 0 1-.253.143.284.284 0 0 1-.145-.038zm.581-1a.29.29 0 0 1-.108-.395.294.294 0 0 1 .398-.108.291.291 0 0 1 .105.398.287.287 0 0 1-.25.145.28.28 0 0 1-.145-.04zm.579-.997a.291.291 0 0 1-.105-.398.29.29 0 0 1 .398-.105.29.29 0 0 1 .105.395.286.286 0 0 1-.253.145.293.293 0 0 1-.145-.037zm.582-1.001a.293.293 0 0 1-.107-.398.293.293 0 0 1 .398-.105.29.29 0 0 1 .105.398.287.287 0 0 1-.25.145.28.28 0 0 1-.146-.04zm.578-.997a.291.291 0 0 1-.105-.398.287.287 0 0 1 .395-.105.29.29 0 0 1 .108.395.295.295 0 0 1-.398.108zm.579-1.001a.293.293 0 0 1-.105-.398.29.29 0 0 1 .398-.105.292.292 0 1 1-.147.544.301.301 0 0 1-.146-.041zm.582-1a.287.287 0 0 1-.105-.396.29.29 0 0 1 .396-.107.29.29 0 0 1 .105.398.286.286 0 0 1-.25.145c-.05 0-.1-.011-.146-.04zm.579-.998a.29.29 0 0 1-.105-.398.29.29 0 1 1 .503.293.289.289 0 0 1-.253.142.282.282 0 0 1-.145-.037zm.581-1a.287.287 0 0 1-.105-.395.288.288 0 0 1 .396-.108.29.29 0 0 1 .105.398.287.287 0 0 1-.25.145.291.291 0 0 1-.146-.04zm.579-.998a.29.29 0 0 1-.105-.398.29.29 0 1 1 .503.29.292.292 0 0 1-.253.145.282.282 0 0 1-.145-.037zm.582-1a.293.293 0 0 1-.107-.398.293.293 0 0 1 .398-.105c.14.081.186.259.108.398a.295.295 0 0 1-.253.145c-.05 0-.1-.014-.146-.04zm.578-1.001a.287.287 0 0 1-.105-.395.291.291 0 0 1 .503.291.292.292 0 0 1-.253.145.271.271 0 0 1-.145-.041zm.582-.997a.294.294 0 0 1-.108-.398.29.29 0 0 1 .398-.105.29.29 0 0 1 .105.398.285.285 0 0 1-.25.143.288.288 0 0 1-.145-.038zm.579-1.001a.286.286 0 0 1-.105-.395.294.294 0 0 1 .398-.108.296.296 0 0 1 .105.398.292.292 0 0 1-.253.145.26.26 0 0 1-.145-.04zm.579-.997a.293.293 0 0 1-.105-.398.29.29 0 0 1 .398-.105.29.29 0 0 1 .105.398.286.286 0 0 1-.25.143.302.302 0 0 1-.148-.038zM39.669 90.955a.294.294 0 0 1-.206-.084.293.293 0 0 1 0-.412.3.3 0 0 1 .41 0 .296.296 0 0 1 .087.206.296.296 0 0 1-.087.206.296.296 0 0 1-.204.084z"/><path d="M78.464 68.78H1.696v-.581h75.742l-.039-.065L39.572 2.686l.504-.291 37.825 65.444z"/><path d="M1.299 68.348l38.265-65.96.503.292L1.802 68.64z"/></g></symbol><symbol id="icon-close" viewBox="0 0 26 26"><path fill-rule="evenodd" opacity=".585" d="M2.285 0L0 2.285l10.36 10.36L0 23.005l2.285 2.285 10.36-10.36 10.36 10.36 2.285-2.285-10.36-10.36 10.36-10.36L23.005 0l-10.36 10.36z"/></symbol><symbol id="icon-data" viewBox="0 0 80 82"><g fill-rule="evenodd"><path d="M78.382 60.22l-2.083-.403a2.766 2.766 0 0 1-2.112-1.755 2.757 2.757 0 0 1 .362-2.705l1.316-1.784a1.437 1.437 0 0 0-.144-1.87l-2.835-2.82a1.452 1.452 0 0 0-1.837-.172l-1.765 1.18a2.877 2.877 0 0 1-1.591.489c-1.215 0-2.59-.835-2.835-2.417l-.333-2.172a1.456 1.456 0 0 0-1.432-1.223h-4.006a1.44 1.44 0 0 0-1.418 1.165l-.52 2.69c-.29 1.51-1.635 2.302-2.807 2.302a2.877 2.877 0 0 1-1.59-.49l-2.272-1.524a1.452 1.452 0 0 0-1.837.173l-2.835 2.82a1.437 1.437 0 0 0-.144 1.87l1.316 1.783c.593.806.723 1.784.362 2.705a2.817 2.817 0 0 1-2.112 1.755l-2.083.403c-.68.13-1.172.719-1.172 1.41v3.984c0 .705.521 1.31 1.23 1.425l2.184.33a2.84 2.84 0 0 1 2.184 1.67c.405.906.304 1.898-.246 2.718l-1.186 1.755a1.433 1.433 0 0 0 .174 1.827l2.835 2.82a1.457 1.457 0 0 0 1.88.144l1.794-1.31a2.818 2.818 0 0 1 1.677-.546c1.172 0 2.517.791 2.806 2.302l.405 2.071a1.44 1.44 0 0 0 1.418 1.166h4.007c.708 0 1.316-.518 1.432-1.223l.231-1.54c.246-1.582 1.606-2.416 2.835-2.416a2.8 2.8 0 0 1 1.678.56l1.258.921c.579.418 1.374.36 1.88-.143l2.836-2.82c.491-.49.564-1.252.173-1.827l-1.186-1.755a2.736 2.736 0 0 1-.246-2.72 2.84 2.84 0 0 1 2.184-1.668l2.184-.33a1.453 1.453 0 0 0 1.23-1.425v-3.985c-.072-.662-.564-1.266-1.244-1.395zm-1.721 4.172l-.97.143a5.729 5.729 0 0 0-4.397 3.367 5.655 5.655 0 0 0 .507 5.495l.52.763-1.113 1.107-.26-.187a5.77 5.77 0 0 0-3.385-1.107c-2.864 0-5.25 2.042-5.685 4.848l-.029.302h-1.576l-.174-.907c-.52-2.69-2.893-4.632-5.655-4.632a5.77 5.77 0 0 0-3.385 1.108l-.781.575-1.114-1.107.52-.763a5.652 5.652 0 0 0 .507-5.495 5.736 5.736 0 0 0-4.397-3.367l-.955-.143v-1.568l.912-.173c1.952-.374 3.543-1.683 4.267-3.525a5.655 5.655 0 0 0-.71-5.466l-.578-.777 1.114-1.108 1.287.863a5.713 5.713 0 0 0 3.211.993c2.763 0 5.135-1.957 5.656-4.632l.29-1.51h1.576l.144.963c.434 2.805 2.835 4.848 5.685 4.848a5.713 5.713 0 0 0 3.21-.993l.768-.518 1.113 1.108-.578.777a5.655 5.655 0 0 0-.709 5.467 5.721 5.721 0 0 0 4.267 3.524l.897.159v1.568z"/><path d="M60.75 56.105c-3.992 0-7.232 3.223-7.232 7.193 0 3.97 3.24 7.193 7.232 7.193s7.232-3.222 7.232-7.193c0-3.97-3.24-7.193-7.232-7.193zm0 11.509c-2.387 0-4.34-1.942-4.34-4.316 0-2.373 1.953-4.316 4.34-4.316 2.387 0 4.34 1.943 4.34 4.316 0 2.374-1.953 4.316-4.34 4.316zm-24.59-8.632c-1.2 0-2.371-.028-3.514-.057a89.563 89.563 0 0 1-2.069-.115c-.419-.029-.853-.043-1.272-.072a76.93 76.93 0 0 1-2.676-.245l-.507-.043a85.833 85.833 0 0 1-2.936-.374c-.029 0-.043 0-.072-.014-4.903-.72-9.098-1.813-12.382-3.122-.014 0-.028-.014-.057-.014a32.38 32.38 0 0 1-1.722-.748c-.057-.03-.13-.058-.188-.087-.491-.23-.94-.475-1.36-.72l-.303-.172c-.376-.215-.709-.446-1.041-.661-.13-.087-.26-.173-.377-.26a11.02 11.02 0 0 1-.766-.618c-.13-.115-.26-.23-.376-.345a9.212 9.212 0 0 1-.52-.561 4.338 4.338 0 0 1-.32-.403c-.13-.173-.23-.36-.332-.532-.072-.144-.144-.288-.202-.432a3.63 3.63 0 0 1-.174-.518c-.043-.216-.101-.446-.101-.676v-11.81c.043.042.087.071.13.114.318.274.636.547.998.82 5.453 4.1 16.345 7.28 32.14 7.28 15.722 0 26.6-3.165 32.067-7.237.434-.316.825-.647 1.2-.978v5.337a1.447 1.447 0 0 0 2.893 0V12.947c0-.244-.086-.46-.202-.661C70.499 6.1 58.03 0 36.16 0 14.349 0 1.88 6.07.217 12.242c-.13.216-.217.446-.217.705V66.175c0 .23.058.446.174.648C1.822 73.77 15.636 77.87 28.827 78.849h.116c.752 0 1.389-.575 1.446-1.323a1.437 1.437 0 0 0-1.33-1.54c-16.099-1.208-25.472-6.07-26.123-10.04-.014-.073-.029-.13-.043-.188V53.66c.043.043.087.072.13.115.318.273.636.546.998.82 5.453 4.085 16.345 7.265 32.14 7.265.795 0 1.446-.648 1.446-1.439s-.65-1.439-1.446-1.439zm-32.4-39.13c.435.346.897.677 1.418 1.008.101.072.232.13.333.201.42.259.868.518 1.345.777.174.086.347.187.535.273a25.29 25.29 0 0 0 1.664.777c.1.043.188.086.274.13.68.287 1.403.56 2.156.82.202.071.42.143.636.215a47.07 47.07 0 0 0 1.851.576c.232.072.449.13.695.201.839.23 1.721.46 2.632.662l.39.086c.81.173 1.65.331 2.518.49.289.057.593.1.882.143.824.13 1.663.26 2.531.374.217.029.434.058.666.087 1.07.13 2.184.244 3.326.33.29.03.579.044.868.058a84.47 84.47 0 0 0 2.806.158l1.056.043c1.23.044 2.502.072 3.819.072a110.061 110.061 0 0 0 4.889-.115c.954-.043 1.894-.1 2.806-.158.289-.014.578-.043.868-.058 1.142-.1 2.256-.2 3.326-.33.232-.03.434-.058.666-.087a62.7 62.7 0 0 0 2.531-.374c.304-.043.593-.1.882-.144a87.073 87.073 0 0 0 2.517-.489l.39-.086a53.928 53.928 0 0 0 2.633-.662c.232-.057.463-.13.694-.201a47.07 47.07 0 0 0 1.852-.576c.217-.072.434-.144.636-.215a33.688 33.688 0 0 0 2.155-.82c.102-.044.188-.087.275-.13a45.872 45.872 0 0 0 1.664-.777c.188-.086.361-.187.535-.273.477-.26.926-.504 1.345-.777.116-.072.231-.13.333-.201.506-.331.969-.662 1.417-1.007.116-.087.203-.173.304-.26.188-.158.39-.301.564-.46v11.811c0 .23-.058.46-.116.705a3.63 3.63 0 0 1-.173.518c-.058.144-.13.288-.203.432-.101.172-.202.36-.332.532-.102.13-.203.259-.319.403-.159.187-.332.374-.52.56-.116.116-.246.23-.376.346-.232.201-.492.417-.767.619-.116.086-.246.172-.376.259a14.333 14.333 0 0 1-1.345.834c-.434.244-.883.475-1.36.72-.058.028-.13.057-.188.086-.535.258-1.114.503-1.721.748-.015 0-.03.014-.058.014-3.283 1.31-7.493 2.402-12.381 3.122-.03 0-.044 0-.073.014a81.45 81.45 0 0 1-2.936.374c-.16.015-.333.029-.506.043-.883.087-1.765.173-2.676.245-.42.029-.854.043-1.273.072-.68.043-1.36.086-2.068.115-1.143-.014-2.315.014-3.515.014-1.2 0-2.372-.028-3.515-.057a89.563 89.563 0 0 1-2.069-.115c-.419-.03-.853-.043-1.272-.072a76.93 76.93 0 0 1-2.676-.245l-.507-.043a85.833 85.833 0 0 1-2.936-.374c-.029 0-.043 0-.072-.014-4.903-.72-9.098-1.813-12.382-3.122-.014 0-.028-.015-.057-.015a32.38 32.38 0 0 1-1.722-.748c-.057-.028-.13-.057-.188-.086-.491-.23-.94-.475-1.36-.72l-.303-.172c-.376-.216-.709-.446-1.041-.662-.13-.086-.26-.172-.377-.259a11.02 11.02 0 0 1-.766-.618c-.13-.115-.26-.23-.376-.345a9.212 9.212 0 0 1-.52-.561 4.338 4.338 0 0 1-.32-.403c-.13-.173-.23-.36-.332-.533-.072-.143-.144-.287-.202-.431a3.63 3.63 0 0 1-.174-.518c-.043-.216-.101-.446-.101-.676V19.119c.173.158.376.316.564.46.101.101.202.187.304.274zm32.4-16.975c19.6 0 33.269 5.683 33.269 10.79 0 5.107-13.67 10.79-33.268 10.79-19.6 0-33.268-5.683-33.268-10.79 0-5.107 13.669-10.79 33.268-10.79z"/></g></symbol><symbol id="icon-engineers" viewBox="0 0 80 69"><g fill-rule="evenodd" stroke="#000" stroke-width="2"><path d="M39.7 1.972h.52v43.619h-.52z"/><path d="M2.09 66.977l37.738-21.563.259.453L2.349 67.43z"/><path d="M39.748 45.811l.259-.45 37.745 21.664-.259.45z"/><path d="M78 67.518H2.378v-.521h74.705l-.063-.105L39.735 2.103l.45-.262 37.283 64.786z"/><path d="M2.001 66.987L39.732 1.978l.452.262L2.453 67.25z"/></g></symbol><symbol id="icon-investment" viewBox="0 0 80 93"><g fill-rule="evenodd"><path d="M40.367 3.228a.305.305 0 0 1-.204-.083.288.288 0 0 1 .003-.408c.103-.106.296-.106.405 0a.282.282 0 0 1 .083.204.29.29 0 0 1-.083.204.305.305 0 0 1-.204.083zm-.288 42.544a.289.289 0 0 1 .576 0 .289.289 0 0 1-.288.288.29.29 0 0 1-.288-.288zm0-1.155c0-.161.129-.288.288-.288a.289.289 0 0 1 0 .576.29.29 0 0 1-.288-.288zm0-1.159a.289.289 0 0 1 .576 0 .289.289 0 0 1-.288.288.29.29 0 0 1-.288-.288zm0-1.159c0-.158.129-.285.288-.285a.287.287 0 0 1 0 .573.287.287 0 0 1-.288-.288zm0-1.156a.289.289 0 0 1 .576 0 .289.289 0 0 1-.288.288.29.29 0 0 1-.288-.288zm0-1.158a.289.289 0 0 1 .576 0 .289.289 0 0 1-.288.288.29.29 0 0 1-.288-.288zm0-1.156c0-.161.129-.288.288-.288a.286.286 0 1 1 0 .573.287.287 0 0 1-.288-.285zm0-1.159a.289.289 0 0 1 .576 0 .289.289 0 0 1-.288.288.29.29 0 0 1-.288-.288zm0-1.159a.289.289 0 0 1 .576 0 .287.287 0 1 1-.576 0zm0-1.156c0-.161.129-.288.288-.288a.289.289 0 0 1 0 .576.289.289 0 0 1-.288-.288zm0-1.158a.289.289 0 0 1 .576 0 .289.289 0 0 1-.288.288.29.29 0 0 1-.288-.288zm0-1.156c0-.161.129-.29.288-.29a.29.29 0 0 1 .288.29.286.286 0 0 1-.288.285.287.287 0 0 1-.288-.285zm0-1.159a.289.289 0 0 1 .576 0 .289.289 0 0 1-.288.288.29.29 0 0 1-.288-.288zm0-1.159a.289.289 0 0 1 .576 0 .289.289 0 0 1-.576 0zm0-1.155c0-.161.129-.29.288-.29a.289.289 0 1 1 0 .578.29.29 0 0 1-.288-.288zm0-1.159a.289.289 0 0 1 .576 0 .289.289 0 0 1-.288.288.29.29 0 0 1-.288-.288zm0-1.159a.289.289 0 0 1 .576 0 .287.287 0 1 1-.576 0zm0-1.156c0-.161.129-.288.288-.288a.289.289 0 0 1 0 .576.29.29 0 0 1-.288-.288zm0-1.158a.289.289 0 0 1 .576 0 .289.289 0 0 1-.288.288.29.29 0 0 1-.288-.288zm0-1.159a.289.289 0 0 1 .576 0 .288.288 0 0 1-.576 0zm0-1.156c0-.161.129-.288.288-.288a.289.289 0 0 1 0 .576.29.29 0 0 1-.288-.288zm0-1.159a.289.289 0 0 1 .576 0 .289.289 0 0 1-.288.288.29.29 0 0 1-.288-.288zm0-1.156c0-.161.129-.29.288-.29a.289.289 0 1 1 0 .578.289.289 0 0 1-.288-.288zm0-1.158a.287.287 0 1 1 .576 0 .289.289 0 0 1-.288.288.29.29 0 0 1-.288-.288zm0-1.159a.289.289 0 0 1 .576 0 .287.287 0 1 1-.576 0zm0-1.159c0-.158.129-.285.288-.285.158 0 .288.126.288.285a.289.289 0 0 1-.576 0zm0-1.155a.289.289 0 0 1 .576 0 .289.289 0 0 1-.288.288.29.29 0 0 1-.288-.288zm0-1.159a.289.289 0 0 1 .576 0 .289.289 0 0 1-.288.288.29.29 0 0 1-.288-.288zm0-1.156c0-.161.129-.288.288-.288a.289.289 0 0 1 0 .576.29.29 0 0 1-.288-.288zm0-1.159a.289.289 0 0 1 .576 0 .289.289 0 0 1-.288.288.29.29 0 0 1-.288-.288zm0-1.159a.289.289 0 0 1 .576 0 .287.287 0 1 1-.576 0zm0-1.155c0-.161.129-.288.288-.288a.289.289 0 0 1 0 .576.29.29 0 0 1-.288-.288zm0-1.159a.289.289 0 0 1 .576 0 .289.289 0 0 1-.288.288.29.29 0 0 1-.288-.288zm0-1.159c0-.158.129-.285.288-.285a.287.287 0 0 1 0 .573.287.287 0 0 1-.288-.288zm0-1.156a.289.289 0 0 1 .576 0 .289.289 0 0 1-.576 0zm0-1.158a.289.289 0 0 1 .576 0 .289.289 0 0 1-.288.288.29.29 0 0 1-.288-.288zm0-1.156c0-.161.129-.288.288-.288a.289.289 0 0 1 0 .576.29.29 0 0 1-.288-.288zm.288 43.12a.29.29 0 0 1-.287-.287c0-.078.032-.15.086-.204.103-.106.296-.106.405 0a.292.292 0 0 1 0 .408.305.305 0 0 1-.204.083z"/><path d="M2.147 69.07a.292.292 0 0 1-.204-.083.292.292 0 0 1 0-.408.301.301 0 0 1 .408 0 .293.293 0 0 1 .083.204.29.29 0 0 1-.287.287zm.756-.718a.29.29 0 0 1 .106-.394.286.286 0 0 1 .391.106.29.29 0 0 1-.106.394.286.286 0 0 1-.391-.106zm1.006-.576a.289.289 0 0 1 .106-.394.286.286 0 0 1 .391.106.292.292 0 0 1-.106.394.289.289 0 0 1-.144.037.283.283 0 0 1-.247-.143zm1.004-.575a.291.291 0 0 1 .109-.394.287.287 0 0 1 .391.106.292.292 0 0 1-.106.394.289.289 0 0 1-.144.037.289.289 0 0 1-.25-.143zm1.006-.577a.288.288 0 0 1 .106-.391.29.29 0 0 1 .394.106.292.292 0 0 1-.106.394.289.289 0 0 1-.144.037.287.287 0 0 1-.25-.146zm1.006-.573a.288.288 0 0 1 .106-.394.29.29 0 0 1 .394.106.292.292 0 0 1-.109.394.27.27 0 0 1-.141.037.284.284 0 0 1-.25-.143zm1.007-.575a.287.287 0 0 1 .106-.394.286.286 0 0 1 .391.106.29.29 0 0 1-.106.394.27.27 0 0 1-.141.037.282.282 0 0 1-.25-.143zm1.006-.575a.287.287 0 0 1 .106-.394.286.286 0 0 1 .391.106.29.29 0 0 1-.106.394.289.289 0 0 1-.144.037.282.282 0 0 1-.247-.143zm1.006-.575a.288.288 0 0 1 .106-.394.286.286 0 0 1 .391.106.292.292 0 0 1-.106.394.289.289 0 0 1-.144.037.283.283 0 0 1-.247-.143zm1.004-.575a.292.292 0 0 1 .106-.394.29.29 0 0 1 .394.106.292.292 0 0 1-.106.394.289.289 0 0 1-.144.037.285.285 0 0 1-.25-.143zm1.006-.575a.29.29 0 0 1 .106-.394.29.29 0 0 1 .394.106.292.292 0 0 1-.106.394.289.289 0 0 1-.144.037.286.286 0 0 1-.25-.143zm1.006-.575a.29.29 0 0 1 .106-.394.29.29 0 0 1 .394.106.292.292 0 0 1-.11.394.27.27 0 0 1-.141.037.284.284 0 0 1-.249-.143zm1.007-.575a.288.288 0 0 1 .106-.394.288.288 0 1 1 .285.5.278.278 0 0 1-.141.037.282.282 0 0 1-.25-.143zm1.006-.575a.287.287 0 0 1 .106-.394.288.288 0 1 1 .285.5.289.289 0 0 1-.144.037.282.282 0 0 1-.247-.143zm1.004-.575a.291.291 0 0 1 .109-.394.288.288 0 1 1 .285.5.289.289 0 0 1-.144.037.289.289 0 0 1-.25-.143zm1.006-.575a.29.29 0 0 1 .106-.394.29.29 0 0 1 .394.106.29.29 0 0 1-.106.394.289.289 0 0 1-.144.037.285.285 0 0 1-.25-.143zm1.006-.575a.29.29 0 0 1 .106-.394.29.29 0 0 1 .394.106.29.29 0 0 1-.106.394.289.289 0 0 1-.144.037.288.288 0 0 1-.25-.143zm1.007-.575a.29.29 0 0 1 .106-.394.29.29 0 0 1 .394.106.29.29 0 0 1-.109.394.27.27 0 0 1-.141.037.282.282 0 0 1-.25-.143zm1.006-.575a.288.288 0 0 1 .106-.394.288.288 0 1 1 .285.5.278.278 0 0 1-.141.037.283.283 0 0 1-.25-.143zm1.006-.575a.287.287 0 0 1 .106-.394.286.286 0 0 1 .391.106.29.29 0 0 1-.106.394.286.286 0 0 1-.391-.106zm1.003-.575a.291.291 0 0 1 .109-.394.288.288 0 1 1 .285.5.296.296 0 0 1-.394-.106zm1.007-.578a.289.289 0 0 1 .106-.391.29.29 0 0 1 .394.106.29.29 0 0 1-.106.394.289.289 0 0 1-.144.037.287.287 0 0 1-.25-.146zm1.006-.572a.292.292 0 0 1 .106-.394.29.29 0 0 1 .394.106.293.293 0 0 1-.106.394.289.289 0 0 1-.144.037.288.288 0 0 1-.25-.143zm1.006-.575a.291.291 0 0 1 .106-.394.286.286 0 0 1 .391.106.289.289 0 0 1-.106.394.288.288 0 0 1-.391-.106zm1.007-.575a.289.289 0 0 1 .106-.394.286.286 0 0 1 .391.106.289.289 0 0 1-.106.394.287.287 0 0 1-.391-.106zm1.006-.576a.29.29 0 0 1 .106-.394.286.286 0 0 1 .391.106.292.292 0 0 1-.106.394.289.289 0 0 1-.144.037.283.283 0 0 1-.247-.143zm1.006-.575a.29.29 0 0 1 .104-.394.29.29 0 0 1 .394.106.292.292 0 0 1-.106.394.289.289 0 0 1-.144.037.283.283 0 0 1-.248-.143zm1.004-.575a.29.29 0 0 1 .106-.394.29.29 0 0 1 .394.106.292.292 0 0 1-.106.394.289.289 0 0 1-.144.037.288.288 0 0 1-.25-.143zm1.006-.575a.291.291 0 0 1 .106-.394.29.29 0 0 1 .394.106.292.292 0 0 1-.109.394.27.27 0 0 1-.141.037.284.284 0 0 1-.25-.143zm1.007-.575a.288.288 0 0 1 .106-.394.286.286 0 0 1 .391.106.29.29 0 0 1-.106.394.27.27 0 0 1-.141.037.282.282 0 0 1-.25-.143zm1.006-.575a.287.287 0 0 1 .106-.394.286.286 0 0 1 .391.106.29.29 0 0 1-.106.394.278.278 0 0 1-.141.037.284.284 0 0 1-.25-.143zm1.006-.575a.288.288 0 0 1 .106-.394.286.286 0 0 1 .391.106.29.29 0 0 1-.106.394.289.289 0 0 1-.144.037.283.283 0 0 1-.247-.143zm1.004-.575a.29.29 0 0 1 .106-.394.29.29 0 0 1 .394.106.292.292 0 0 1-.106.394.289.289 0 0 1-.144.037.285.285 0 0 1-.25-.143zm1.006-.575a.29.29 0 0 1 .106-.394.29.29 0 0 1 .394.106.292.292 0 0 1-.106.394.289.289 0 0 1-.144.037.286.286 0 0 1-.25-.143zm1.006-.575a.29.29 0 0 1 .106-.394.286.286 0 0 1 .391.106.286.286 0 0 1-.103.394.289.289 0 0 1-.144.037.288.288 0 0 1-.25-.143zm1.007-.575a.288.288 0 0 1 .106-.394.288.288 0 1 1 .285.5.278.278 0 0 1-.141.037.282.282 0 0 1-.25-.143zm1.006-.575a.287.287 0 0 1 .106-.394.288.288 0 1 1 .285.5.286.286 0 0 1-.141.037.283.283 0 0 1-.25-.143zm1.006-.575a.287.287 0 0 1 .106-.394.288.288 0 1 1 .285.5.289.289 0 0 1-.144.037.283.283 0 0 1-.247-.143zm1.254-.431a.29.29 0 0 1-.287-.287c0-.078.032-.15.086-.204.103-.106.296-.106.405 0a.292.292 0 0 1 0 .408.305.305 0 0 1-.204.083z"/><path d="M78.435 68.783a.302.302 0 0 1-.204-.083.29.29 0 0 1 0-.408.298.298 0 0 1 .405 0 .293.293 0 0 1 .086.204.29.29 0 0 1-.287.287zm-1.147-.613a.29.29 0 0 1-.106-.394.29.29 0 0 1 .394-.106.288.288 0 1 1-.144.538.29.29 0 0 1-.144-.038zm-1.001-.575a.29.29 0 0 1-.106-.394.289.289 0 0 1 .5.288.29.29 0 0 1-.394.106zm-1-.575a.288.288 0 0 1-.106-.394.288.288 0 0 1 .497.288.287.287 0 0 1-.25.144.272.272 0 0 1-.141-.038zm-1.004-.575a.29.29 0 0 1-.106-.394.29.29 0 0 1 .394-.106.29.29 0 0 1 .106.394.29.29 0 0 1-.394.106zm-1-.575a.288.288 0 0 1-.106-.394.288.288 0 0 1 .497.288.287.287 0 0 1-.25.144.277.277 0 0 1-.141-.038zm-1.004-.575a.29.29 0 0 1-.106-.394.29.29 0 0 1 .394-.106.288.288 0 1 1-.144.538.29.29 0 0 1-.144-.038zm-1-.575a.29.29 0 0 1-.106-.394.288.288 0 0 1 .497.288.285.285 0 0 1-.247.144.29.29 0 0 1-.144-.038zm-1.001-.575a.288.288 0 0 1-.106-.394.286.286 0 0 1 .391-.106.29.29 0 0 1 .106.394.29.29 0 0 1-.25.144.281.281 0 0 1-.141-.038zm-1.004-.575a.29.29 0 0 1-.106-.394.29.29 0 0 1 .394-.106.293.293 0 0 1 .106.394.292.292 0 0 1-.25.144.301.301 0 0 1-.144-.038zm-1-.575a.288.288 0 0 1-.106-.394.288.288 0 0 1 .497.288.287.287 0 0 1-.25.144.281.281 0 0 1-.141-.038zm-1.004-.575a.293.293 0 0 1-.106-.394.29.29 0 0 1 .394-.106.29.29 0 0 1 .106.394.29.29 0 0 1-.25.144.301.301 0 0 1-.144-.038zm-1-.575a.29.29 0 0 1-.106-.394.288.288 0 0 1 .497.288.285.285 0 0 1-.247.144.301.301 0 0 1-.144-.038zm-1.004-.575a.29.29 0 0 1-.104-.394.286.286 0 0 1 .391-.106.29.29 0 0 1 .106.394.287.287 0 0 1-.25.144.303.303 0 0 1-.143-.038zm-1-.575a.29.29 0 0 1-.106-.394.29.29 0 0 1 .394-.106.29.29 0 0 1 .106.394.292.292 0 0 1-.25.144.301.301 0 0 1-.144-.038zm-1.001-.575a.288.288 0 0 1-.106-.394.288.288 0 0 1 .497.288.286.286 0 0 1-.25.144.281.281 0 0 1-.141-.038zm-1.003-.575a.29.29 0 0 1-.106-.394.29.29 0 0 1 .394-.106.29.29 0 0 1 .106.394.29.29 0 0 1-.25.144.301.301 0 0 1-.144-.038zm-1.001-.575a.287.287 0 1 1 .285-.5.288.288 0 0 1 .106.394.285.285 0 0 1-.247.144.301.301 0 0 1-.144-.038zm-1-.575a.285.285 0 0 1-.106-.394.286.286 0 0 1 .391-.106.29.29 0 0 1 .106.394.287.287 0 0 1-.25.144.281.281 0 0 1-.141-.038zm-1.004-.575a.29.29 0 0 1-.106-.394.29.29 0 0 1 .394-.106.29.29 0 0 1 .106.394.292.292 0 0 1-.25.144.313.313 0 0 1-.144-.038zm-1-.575a.288.288 0 0 1-.106-.394.288.288 0 0 1 .497.288.286.286 0 0 1-.25.144.301.301 0 0 1-.141-.038zm-1.004-.575a.29.29 0 0 1-.106-.394.29.29 0 0 1 .394-.106.29.29 0 0 1 .106.394.29.29 0 0 1-.25.144.313.313 0 0 1-.144-.038zm-1.001-.576a.288.288 0 0 1-.106-.394.288.288 0 0 1 .497.288.286.286 0 0 1-.25.144.29.29 0 0 1-.141-.038zm-1-.575a.291.291 0 0 1-.109-.394.29.29 0 0 1 .394-.106.29.29 0 0 1 .106.394.287.287 0 0 1-.25.144.272.272 0 0 1-.141-.038zm-1.003-.575a.29.29 0 0 1-.106-.394.29.29 0 0 1 .394-.106.29.29 0 0 1 .106.394.293.293 0 0 1-.25.144.287.287 0 0 1-.144-.038zm-1.001-.575a.288.288 0 0 1-.106-.394.288.288 0 0 1 .497.288.286.286 0 0 1-.25.144.272.272 0 0 1-.141-.038zm-1.003-.575a.29.29 0 0 1-.106-.394.29.29 0 0 1 .394-.106.29.29 0 0 1 .106.394.29.29 0 0 1-.25.144.287.287 0 0 1-.144-.038zm-1.001-.575a.288.288 0 0 1-.106-.394.288.288 0 0 1 .497.288.285.285 0 0 1-.247.144.29.29 0 0 1-.144-.038zm-1.003-.575a.29.29 0 0 1-.106-.394.29.29 0 0 1 .394-.106.288.288 0 1 1-.144.538.287.287 0 0 1-.144-.038zm-1.001-.575a.29.29 0 0 1-.106-.394.29.29 0 0 1 .394-.106.293.293 0 0 1 .106.394.29.29 0 0 1-.394.106zm-1.001-.575a.288.288 0 0 1-.106-.394.288.288 0 0 1 .497.288.286.286 0 0 1-.25.144.281.281 0 0 1-.141-.038zm-1.003-.575a.29.29 0 0 1-.106-.394.29.29 0 0 1 .394-.106.29.29 0 0 1 .106.394.29.29 0 0 1-.25.144.301.301 0 0 1-.144-.038zm-1.001-.575a.288.288 0 0 1-.106-.394.288.288 0 0 1 .497.288.286.286 0 0 1-.247.144.301.301 0 0 1-.144-.038zm-1.003-.575a.293.293 0 0 1-.106-.394.29.29 0 0 1 .394-.106.288.288 0 1 1-.144.538.301.301 0 0 1-.144-.038zm-1.001-.575a.287.287 0 1 1 .285-.5.288.288 0 0 1 .106.394.286.286 0 0 1-.247.144.301.301 0 0 1-.144-.038zm-1-.575a.288.288 0 0 1-.106-.394.288.288 0 0 1 .497.288.286.286 0 0 1-.25.144.281.281 0 0 1-.141-.038zm-1.004-.575a.29.29 0 0 1-.106-.394.29.29 0 0 1 .394-.106.29.29 0 0 1 .106.394.29.29 0 0 1-.25.144.301.301 0 0 1-.144-.038zm-1-.575a.288.288 0 0 1-.106-.394.288.288 0 0 1 .497.288.287.287 0 0 1-.25.144.29.29 0 0 1-.141-.038zm-.86-.538a.29.29 0 0 1-.287-.287c0-.078.032-.15.086-.204.103-.106.296-.106.405 0a.292.292 0 0 1 0 .408.292.292 0 0 1-.204.083z"/><path stroke="#000" stroke-width="2" d="M40.212 46.644h.575v43.991h-.575z"/><path stroke="#000" stroke-width="2" d="M40.358 46.395L78.292 24.54l.287.498-37.934 21.855z"/><path stroke="#000" stroke-width="2" d="M2.157 25.04l.287-.5L40.51 46.39l-.286.498z"/><path stroke="#000" stroke-width="2" d="M40.368 90.966l-.144-.083-38.365-22.15V24.267l.144-.083 38.365-22.15 38.509 22.233v44.467l-.144.083-38.365 22.149zM2.434 68.401l37.934 21.901 37.934-21.901V24.598L40.368 2.697 2.434 24.598v43.803z"/></g></symbol><symbol id="icon-reporting" viewBox="0 0 88 85"><g fill-rule="evenodd" stroke="#191919" stroke-width="3" stroke-linecap="round" stroke-linejoin="round"><path d="M2 25.468v57.488h84.218V2l-20.14 16.988-21.85-4.245-23.304 14.601-18.912-4.401"/><path d="M86.218 26.494l-20.14 16.988-21.85-4.246-23.304 14.602-18.912-4.402"/></g></symbol><symbol id="icon-simulations" viewBox="0 0 116 89"><g fill-rule="evenodd" transform="translate(1 2)"><path stroke="#000" stroke-width="3" d="M66.5 44.5v41.012M26.5 28.5l40 15.012M26.5 28.5H.5m26 0v-20m25 28v-18m-26 28l26-9m34-10l-19 16.012m19-16.012h16m-16 0v-14" stroke-linecap="round"/><circle cx="43" cy="67" r="10" stroke="#000" stroke-width="3"/><circle cx="103" cy="10" r="10" stroke="#000" stroke-width="3"/><path d="M43.024 62.48l-2.31.882v1.89l1.792-.672v5.614h-1.792V72h5.432v-1.806H44.55V62.48zM101.548 7.134V6.28h-1.722V13h1.946V8.618c.28-.406.812-.854 1.498-.854.756 0 1.302.42 1.302 1.33V13h1.946V8.842c0-1.554-.966-2.758-2.73-2.758-.966 0-1.722.448-2.24 1.05z"/></g></symbol><symbol id="icon-vision" viewBox="0 0 92 92"><g fill-rule="evenodd"><path d="M75 77H16c-1.217 0-2-.783-2-2V16c0-1.217.783-2 2-2h59c1.217 0 2 .783 2 2v59c0 1.217-.783 2-2 2zm-57-4h55V18H18v55z"/><path d="M63 65H28c-1.166 0-2-.83-2-2V28c0-1.17.834-2 2-2h35c1.14 0 1.973.83 2 2v35c.182.963-.86 2-2 2zm-33-4h31V30H30v31zm-4-49c-1.4 0-2-.8-2-2V2c0-1.2.6-2 2-2 .4 0 1 .8 1 2v8c0 1.2-.6 2-1 2zm9 0c-1.4 0-2-.8-2-2V2c0-1.2.6-2 2-2 .4 0 1 .8 1 2v8c0 1.2-.6 2-1 2zm11 0c-1.4 0-2-.8-2-2V2c0-1.2.6-2 2-2 .4 0 1 .8 1 2v8c0 1.2-.6 2-1 2zm10 0c-1.4 0-2-.8-2-2V2c0-1.2.6-2 2-2 .4 0 1 .8 1 2v8c0 1.2-.75 2-1 2zm10 0c-1.4 0-2-.8-2-2V2c0-1.2.6-2 2-2 .4 0 1 .8 1 2v8c0 1.2-.75 2-1 2zM26 92c-1.4 0-2-.8-2-2v-8c0-1.2.6-2 2-2 .4 0 1 .8 1 2v8c0 1.2-.6 2-1 2zm9 0c-1.4 0-2-.8-2-2v-8c0-1.2.6-2 2-2 .4 0 1 .8 1 2v8c0 1.2-.6 2-1 2zm11 0c-1.4 0-2-.8-2-2v-8c0-1.2.6-2 2-2 .4 0 1 .8 1 2v8c0 1.2-.6 2-1 2zm10 0c-1.4 0-2-.8-2-2v-8c0-1.2.6-2 2-2 .4 0 1 .8 1 2v8c0 1.2-.75 2-1 2zm10 0c-1.4 0-2-.8-2-2v-8c0-1.2.6-2 2-2 .4 0 1 .8 1 2v8c0 1.2-.75 2-1 2zm24-65h-8c-1.2 0-2-.6-2-1 0-1.4.8-2 2-2h8c1.2 0 2 .6 2 2 0 .4-.8 1-2 1zm0 9h-8c-1.2 0-2-.6-2-1 0-1.4.8-2 2-2h8c1.2 0 2 .6 2 2 0 .4-.8 1-2 1zm0 11h-8c-1.2 0-2-.6-2-1 0-1.4.8-2 2-2h8c1.2 0 2 .6 2 2 0 .4-.8 1-2 1zm0 10h-8c-1.2 0-2-.6-2-1 0-1.4.8-2 2-2h8c1.2 0 2 .6 2 2 0 .25-.8 1-2 1zm0 10h-8c-1.2 0-2-.6-2-1 0-1.4.8-2 2-2h8c1.2 0 2 .6 2 2 0 .25-.8 1-2 1zM10 27H2c-1.2 0-2-.6-2-1 0-1.4.8-2 2-2h8c1.2 0 2 .6 2 2 0 .4-.8 1-2 1zm0 9H2c-1.2 0-2-.6-2-1 0-1.4.8-2 2-2h8c1.2 0 2 .6 2 2 0 .4-.8 1-2 1zm0 11H2c-1.2 0-2-.6-2-1 0-1.4.8-2 2-2h8c1.2 0 2 .6 2 2 0 .4-.8 1-2 1zm0 10H2c-1.2 0-2-.6-2-1 0-1.4.8-2 2-2h8c1.2 0 2 .6 2 2 0 .25-.8 1-2 1zm0 10H2c-1.2 0-2-.6-2-1 0-1.4.8-2 2-2h8c1.2 0 2 .6 2 2 0 .25-.8 1-2 1z"/></g></symbol><symbol id="map" viewBox="0 0 20 20"><path d="M10.292 4.229a2.69 2.69 0 1 0 0 5.381 2.69 2.69 0 0 0 0-5.381zm0 4.306a1.615 1.615 0 1 1 0-3.23 1.615 1.615 0 0 1 0 3.23zm0-7.535a6.458 6.458 0 0 0-6.458 6.458c0 3.567 6.458 10.764 6.458 10.764s6.458-7.196 6.458-10.764A6.458 6.458 0 0 0 10.292 1zM4.91 7.525c0-3.009 2.41-5.449 5.382-5.449 2.971 0 5.381 2.44 5.381 5.449s-5.381 9.082-5.381 9.082S4.91 10.535 4.91 7.525z"/></symbol><symbol id="mouse" viewBox="0 0 21 26"><path fill-rule="evenodd" d="M10.333 0A10.312 10.312 0 0 0 0 10.333V15.5c0 5.724 4.61 10.333 10.333 10.333 5.724 0 10.334-4.61 10.334-10.333v-5.167C20.667 4.61 16.057 0 10.333 0zm0 2.583c4.352 0 7.75 3.399 7.75 7.75V15.5c0 4.351-3.398 7.75-7.75 7.75-4.351 0-7.75-3.399-7.75-7.75v-5.167c0-4.351 3.399-7.75 7.75-7.75zm0 2.584L6.458 9.042h2.584v2.583H6.458l3.875 3.875 3.875-3.875h-2.583V9.042h2.583l-3.875-3.875z"/></symbol><symbol id="Solar" viewBox="0 0 17 17"><path fill-rule="evenodd" d="M14.449 5.95v-3.4h-3.4L8.498 0l-2.55 2.55h-3.4v3.4L0 8.499l2.55 2.55v3.4h3.4l2.549 2.55 2.55-2.55h3.4v-3.4l2.55-2.55-2.55-2.55zm-5.95 6.797c-2.38 0-4.248-1.867-4.248-4.248 0-2.38 1.868-4.248 4.248-4.248S12.747 6.12 12.747 8.5s-1.867 4.248-4.248 4.248z"/></symbol><symbol id="Wind" viewBox="0 0 14 14"><path fill-rule="evenodd" d="M2 7.194v6.747H0V.55h2v.983c1.108.09 2.066.414 3.43 1.026l.168.076c2.29 1.027 3.646 1.207 6.447.408l.463-.132.15.457.73 2.233.116.354-.306.212C10.71 7.892 8.834 8.036 5.514 7.4 3.78 7.067 2.804 6.964 2 7.194z"/></symbol></svg>