<?xml version="1.0" standalone="no"?>
<!DOCTYPE svg PUBLIC "-//W3C//DTD SVG 20010904//EN"
 "http://www.w3.org/TR/2001/REC-SVG-20010904/DTD/svg10.dtd">
<svg version="1.0" xmlns="http://www.w3.org/2000/svg"
 width="837.000000pt" height="837.000000pt" viewBox="0 0 837.000000 837.000000"
 preserveAspectRatio="xMidYMid meet">
<metadata>
Created by potrace 1.11, written by Peter Selinger 2001-2013
</metadata>
<g transform="translate(0.000000,837.000000) scale(0.100000,-0.100000)"
fill="#000000" stroke="none">
<path d="M4540 7881 l0 -488 835 -501 834 -501 83 73 c107 94 258 251 333 346
72 90 160 218 154 223 -12 11 -2228 1337 -2233 1337 -3 0 -6 -220 -6 -489z"/>
<path d="M7387 8177 c-4 -10 -7 -44 -7 -75 -1 -145 -56 -420 -131 -647 -59
-180 -196 -463 -298 -615 -413 -621 -1054 -1059 -1921 -1314 -212 -62 -372
-99 -659 -152 -982 -182 -1738 -463 -2387 -890 -726 -477 -1268 -1132 -1543
-1867 -47 -126 -121 -385 -121 -425 0 -9 17 12 38 48 313 535 955 1073 1772
1484 744 375 1561 637 2600 836 146 27 327 66 403 85 559 141 1024 390 1386
740 499 483 786 1120 878 1948 26 237 18 913 -10 844z"/>
<path d="M8307 7090 c-36 -396 -142 -759 -326 -1116 -441 -855 -1260 -1454
-2395 -1749 -218 -57 -471 -107 -706 -140 -486 -67 -689 -103 -990 -171 -1371
-313 -2452 -941 -3167 -1839 -329 -413 -577 -885 -699 -1331 -14 -53 -24 -98
-21 -100 2 -2 21 24 41 58 99 169 319 427 519 610 860 783 2120 1347 3742
1673 241 48 521 95 865 145 157 22 359 57 450 76 567 122 1058 345 1461 665
133 106 362 334 469 469 411 518 670 1195 755 1980 19 174 30 627 18 760 l-9
95 -7 -85z"/>
<path d="M7477 6498 c-62 -202 -178 -467 -286 -652 l-51 -90 2 -210 3 -211
107 108 c215 216 377 444 513 722 46 94 87 181 90 195 5 23 -5 32 -161 125
-92 55 -172 101 -178 103 -6 1 -24 -40 -39 -90z"/>
<path d="M920 5050 l0 -1151 178 179 c183 184 349 329 535 465 l107 79 -2 546
-3 546 -380 229 c-209 125 -392 235 -407 243 l-28 15 0 -1151z"/>
<path d="M7891 4328 c-146 -216 -422 -513 -636 -682 l-110 -87 -5 -481 -5
-482 -1348 -809 -1349 -809 -971 583 c-535 321 -979 582 -988 582 -23 -2 -336
-142 -494 -220 -149 -75 -383 -202 -389 -212 -5 -8 2820 -1705 2843 -1708 9
-1 804 472 1766 1050 l1750 1052 3 1153 c1 633 -1 1152 -5 1152 -5 -1 -32 -37
-62 -82z"/>
</g>
</svg>
